<mxfile host="app.diagrams.net" agent="Mozilla/5.0 (Windows NT 10.0; Win64; x64) AppleWebKit/537.36 (KHTML, like Gecko) Chrome/131.0.0.0 Safari/537.36" version="26.0.2">
  <diagram name="Page-1" id="880yclliNoPkZubjAsWY">
    <mxGraphModel dx="2693" dy="1896" grid="1" gridSize="10" guides="1" tooltips="1" connect="1" arrows="1" fold="1" page="1" pageScale="1" pageWidth="850" pageHeight="1100" background="none" math="1" shadow="0">
      <root>
        <mxCell id="0" />
        <mxCell id="1" parent="0" />
        <mxCell id="DWwsRA3n9qqmaE4OlVu3-1" value="User" style="whiteSpace=wrap;html=1;align=center;fillColor=#cdeb8b;strokeColor=#36393d;fontSize=13;fontStyle=0;labelBorderColor=none;textShadow=0;" parent="1" vertex="1">
          <mxGeometry x="165" y="160" width="100" height="40" as="geometry" />
        </mxCell>
        <mxCell id="DWwsRA3n9qqmaE4OlVu3-2" value="Account" style="whiteSpace=wrap;html=1;align=center;fillColor=#cdeb8b;strokeColor=#36393d;fontSize=13;fontStyle=0;labelBorderColor=none;textShadow=0;" parent="1" vertex="1">
          <mxGeometry x="165" y="-60" width="100" height="40" as="geometry" />
        </mxCell>
        <mxCell id="DWwsRA3n9qqmaE4OlVu3-3" value="Has" style="shape=rhombus;perimeter=rhombusPerimeter;whiteSpace=wrap;html=1;align=center;fillColor=#ffcccc;strokeColor=#36393d;fontSize=13;fontStyle=0;labelBorderColor=none;textShadow=0;" parent="1" vertex="1">
          <mxGeometry x="155" y="40" width="120" height="60" as="geometry" />
        </mxCell>
        <mxCell id="DWwsRA3n9qqmaE4OlVu3-8" value="user_id" style="ellipse;whiteSpace=wrap;html=1;align=center;fontStyle=4;fillColor=#cce5ff;strokeColor=#36393d;fontSize=13;labelBorderColor=none;textShadow=0;" parent="1" vertex="1">
          <mxGeometry x="-10" y="80" width="100" height="40" as="geometry" />
        </mxCell>
        <mxCell id="DWwsRA3n9qqmaE4OlVu3-9" value="" style="endArrow=none;html=1;rounded=0;exitX=1;exitY=1;exitDx=0;exitDy=0;entryX=0;entryY=0;entryDx=0;entryDy=0;fontSize=13;fontStyle=0;labelBorderColor=none;textShadow=0;" parent="1" source="DWwsRA3n9qqmaE4OlVu3-8" target="DWwsRA3n9qqmaE4OlVu3-1" edge="1">
          <mxGeometry relative="1" as="geometry">
            <mxPoint x="180" y="100" as="sourcePoint" />
            <mxPoint x="340" y="100" as="targetPoint" />
          </mxGeometry>
        </mxCell>
        <mxCell id="DWwsRA3n9qqmaE4OlVu3-10" value="Auth" style="ellipse;whiteSpace=wrap;html=1;align=center;fillColor=#cce5ff;strokeColor=#36393d;fontSize=13;fontStyle=0;labelBorderColor=none;textShadow=0;" parent="1" vertex="1">
          <mxGeometry x="400" y="160" width="100" height="40" as="geometry" />
        </mxCell>
        <mxCell id="DWwsRA3n9qqmaE4OlVu3-11" value="verify_phone" style="ellipse;whiteSpace=wrap;html=1;align=center;fillColor=#cce5ff;strokeColor=#36393d;fontSize=13;fontStyle=0;labelBorderColor=none;textShadow=0;" parent="1" vertex="1">
          <mxGeometry x="520" y="100" width="100" height="40" as="geometry" />
        </mxCell>
        <mxCell id="DWwsRA3n9qqmaE4OlVu3-12" value="verify_password" style="ellipse;whiteSpace=wrap;html=1;align=center;fillColor=#cce5ff;strokeColor=#36393d;fontSize=13;fontStyle=0;labelBorderColor=none;textShadow=0;" parent="1" vertex="1">
          <mxGeometry x="300" y="100" width="100" height="40" as="geometry" />
        </mxCell>
        <mxCell id="DWwsRA3n9qqmaE4OlVu3-13" value="" style="endArrow=none;html=1;rounded=0;exitX=1;exitY=1;exitDx=0;exitDy=0;entryX=0;entryY=0;entryDx=0;entryDy=0;fontSize=13;fontStyle=0;labelBorderColor=none;textShadow=0;" parent="1" source="DWwsRA3n9qqmaE4OlVu3-12" target="DWwsRA3n9qqmaE4OlVu3-10" edge="1">
          <mxGeometry relative="1" as="geometry">
            <mxPoint x="200" y="200" as="sourcePoint" />
            <mxPoint x="360" y="200" as="targetPoint" />
          </mxGeometry>
        </mxCell>
        <mxCell id="DWwsRA3n9qqmaE4OlVu3-14" value="" style="endArrow=none;html=1;rounded=0;exitX=0;exitY=1;exitDx=0;exitDy=0;entryX=1;entryY=0;entryDx=0;entryDy=0;fontSize=13;fontStyle=0;labelBorderColor=none;textShadow=0;" parent="1" source="DWwsRA3n9qqmaE4OlVu3-11" target="DWwsRA3n9qqmaE4OlVu3-10" edge="1">
          <mxGeometry relative="1" as="geometry">
            <mxPoint x="570" y="150" as="sourcePoint" />
            <mxPoint x="360" y="200" as="targetPoint" />
          </mxGeometry>
        </mxCell>
        <mxCell id="DWwsRA3n9qqmaE4OlVu3-15" value="" style="endArrow=none;html=1;rounded=0;exitX=1;exitY=0.5;exitDx=0;exitDy=0;entryX=0;entryY=0.5;entryDx=0;entryDy=0;fontSize=13;fontStyle=0;labelBorderColor=none;textShadow=0;" parent="1" source="DWwsRA3n9qqmaE4OlVu3-1" target="DWwsRA3n9qqmaE4OlVu3-10" edge="1">
          <mxGeometry relative="1" as="geometry">
            <mxPoint x="180" y="100" as="sourcePoint" />
            <mxPoint x="340" y="100" as="targetPoint" />
          </mxGeometry>
        </mxCell>
        <mxCell id="DWwsRA3n9qqmaE4OlVu3-16" value="is_premium" style="ellipse;whiteSpace=wrap;html=1;align=center;fillColor=#cce5ff;strokeColor=#36393d;fontSize=13;fontStyle=0;labelBorderColor=none;textShadow=0;" parent="1" vertex="1">
          <mxGeometry y="220" width="100" height="40" as="geometry" />
        </mxCell>
        <mxCell id="DWwsRA3n9qqmaE4OlVu3-17" value="" style="endArrow=none;html=1;rounded=0;exitX=1;exitY=0.5;exitDx=0;exitDy=0;entryX=0;entryY=1;entryDx=0;entryDy=0;fontSize=13;fontStyle=0;labelBorderColor=none;textShadow=0;" parent="1" source="DWwsRA3n9qqmaE4OlVu3-16" target="DWwsRA3n9qqmaE4OlVu3-1" edge="1">
          <mxGeometry relative="1" as="geometry">
            <mxPoint x="180" y="100" as="sourcePoint" />
            <mxPoint x="340" y="100" as="targetPoint" />
          </mxGeometry>
        </mxCell>
        <mxCell id="DWwsRA3n9qqmaE4OlVu3-18" value="first_name" style="ellipse;whiteSpace=wrap;html=1;align=center;fillColor=#cce5ff;strokeColor=#36393d;fontSize=13;fontStyle=0;labelBorderColor=none;textShadow=0;" parent="1" vertex="1">
          <mxGeometry x="310" y="-20" width="100" height="40" as="geometry" />
        </mxCell>
        <mxCell id="DWwsRA3n9qqmaE4OlVu3-19" value="last_name" style="ellipse;whiteSpace=wrap;html=1;align=center;fillColor=#cce5ff;strokeColor=#36393d;fontSize=13;fontStyle=0;labelBorderColor=none;textShadow=0;" parent="1" vertex="1">
          <mxGeometry x="430" y="-20" width="100" height="40" as="geometry" />
        </mxCell>
        <mxCell id="DWwsRA3n9qqmaE4OlVu3-20" value="bio" style="ellipse;whiteSpace=wrap;html=1;align=center;fillColor=#cce5ff;strokeColor=#36393d;fontSize=13;fontStyle=0;labelBorderColor=none;textShadow=0;" parent="1" vertex="1">
          <mxGeometry x="430" y="-100" width="100" height="40" as="geometry" />
        </mxCell>
        <mxCell id="DWwsRA3n9qqmaE4OlVu3-24" value="public_photo&amp;nbsp;" style="ellipse;whiteSpace=wrap;html=1;align=center;fillColor=#cce5ff;strokeColor=#36393d;fontSize=13;fontStyle=0;labelBorderColor=none;textShadow=0;" parent="1" vertex="1">
          <mxGeometry x="310" y="-100" width="100" height="40" as="geometry" />
        </mxCell>
        <mxCell id="DWwsRA3n9qqmaE4OlVu3-27" value="user_name" style="ellipse;whiteSpace=wrap;html=1;align=center;fillColor=#cce5ff;strokeColor=#36393d;fontSize=13;fontStyle=0;labelBorderColor=none;textShadow=0;" parent="1" vertex="1">
          <mxGeometry x="-100" y="-20" width="100" height="40" as="geometry" />
        </mxCell>
        <mxCell id="DWwsRA3n9qqmaE4OlVu3-28" value="last_seen" style="ellipse;whiteSpace=wrap;html=1;align=center;fillColor=#cce5ff;strokeColor=#36393d;fontSize=13;fontStyle=0;labelBorderColor=none;textShadow=0;" parent="1" vertex="1">
          <mxGeometry x="20" y="-20" width="100" height="40" as="geometry" />
        </mxCell>
        <mxCell id="DWwsRA3n9qqmaE4OlVu3-29" value="date_of_birth" style="ellipse;whiteSpace=wrap;html=1;align=center;fillColor=#cce5ff;strokeColor=#36393d;fontSize=13;fontStyle=0;labelBorderColor=none;textShadow=0;" parent="1" vertex="1">
          <mxGeometry x="10" y="-100" width="100" height="40" as="geometry" />
        </mxCell>
        <mxCell id="DWwsRA3n9qqmaE4OlVu3-30" value="day" style="ellipse;whiteSpace=wrap;html=1;align=center;fillColor=#cce5ff;strokeColor=#36393d;fontSize=13;fontStyle=0;labelBorderColor=none;textShadow=0;" parent="1" vertex="1">
          <mxGeometry x="100" y="-159.5" width="100" height="40" as="geometry" />
        </mxCell>
        <mxCell id="DWwsRA3n9qqmaE4OlVu3-31" value="month" style="ellipse;whiteSpace=wrap;html=1;align=center;fillColor=#cce5ff;strokeColor=#36393d;fontSize=13;fontStyle=0;labelBorderColor=none;textShadow=0;" parent="1" vertex="1">
          <mxGeometry x="-10" y="-160" width="100" height="40" as="geometry" />
        </mxCell>
        <mxCell id="DWwsRA3n9qqmaE4OlVu3-32" value="year" style="ellipse;whiteSpace=wrap;html=1;align=center;fillColor=#cce5ff;strokeColor=#36393d;fontSize=13;fontStyle=0;labelBorderColor=none;textShadow=0;" parent="1" vertex="1">
          <mxGeometry x="-120" y="-160" width="100" height="40" as="geometry" />
        </mxCell>
        <mxCell id="DWwsRA3n9qqmaE4OlVu3-33" value="" style="endArrow=none;html=1;rounded=0;exitX=1;exitY=1;exitDx=0;exitDy=0;entryX=0;entryY=0;entryDx=0;entryDy=0;fontSize=13;fontStyle=0;labelBorderColor=none;textShadow=0;" parent="1" source="DWwsRA3n9qqmaE4OlVu3-32" target="DWwsRA3n9qqmaE4OlVu3-29" edge="1">
          <mxGeometry relative="1" as="geometry">
            <mxPoint x="-190" y="-60" as="sourcePoint" />
            <mxPoint x="-30" y="-60" as="targetPoint" />
          </mxGeometry>
        </mxCell>
        <mxCell id="DWwsRA3n9qqmaE4OlVu3-34" value="" style="endArrow=none;html=1;rounded=0;exitX=0.5;exitY=1;exitDx=0;exitDy=0;entryX=0.5;entryY=0;entryDx=0;entryDy=0;fontSize=13;fontStyle=0;labelBorderColor=none;textShadow=0;" parent="1" source="DWwsRA3n9qqmaE4OlVu3-31" target="DWwsRA3n9qqmaE4OlVu3-29" edge="1">
          <mxGeometry relative="1" as="geometry">
            <mxPoint x="-190" y="-60" as="sourcePoint" />
            <mxPoint x="-30" y="-60" as="targetPoint" />
          </mxGeometry>
        </mxCell>
        <mxCell id="DWwsRA3n9qqmaE4OlVu3-35" value="" style="endArrow=none;html=1;rounded=0;exitX=0;exitY=1;exitDx=0;exitDy=0;entryX=1;entryY=0;entryDx=0;entryDy=0;fontSize=13;fontStyle=0;labelBorderColor=none;textShadow=0;" parent="1" source="DWwsRA3n9qqmaE4OlVu3-30" target="DWwsRA3n9qqmaE4OlVu3-29" edge="1">
          <mxGeometry relative="1" as="geometry">
            <mxPoint x="180" y="-110" as="sourcePoint" />
            <mxPoint x="-30" y="-60" as="targetPoint" />
          </mxGeometry>
        </mxCell>
        <mxCell id="DWwsRA3n9qqmaE4OlVu3-36" value="phone _number" style="ellipse;whiteSpace=wrap;html=1;align=center;fontStyle=4;fillColor=#cce5ff;strokeColor=#36393d;fontSize=13;labelBorderColor=none;textShadow=0;" parent="1" vertex="1">
          <mxGeometry x="-110" y="-100" width="100" height="40" as="geometry" />
        </mxCell>
        <mxCell id="DWwsRA3n9qqmaE4OlVu3-37" value="" style="endArrow=none;html=1;rounded=0;exitX=1;exitY=0.5;exitDx=0;exitDy=0;fontSize=13;fontStyle=0;labelBorderColor=none;textShadow=0;" parent="1" edge="1">
          <mxGeometry relative="1" as="geometry">
            <mxPoint x="265" y="-50" as="sourcePoint" />
            <mxPoint x="600" y="-50" as="targetPoint" />
          </mxGeometry>
        </mxCell>
        <mxCell id="DWwsRA3n9qqmaE4OlVu3-38" value="" style="endArrow=none;html=1;rounded=0;fontSize=13;fontStyle=0;labelBorderColor=none;textShadow=0;exitX=0.5;exitY=1;exitDx=0;exitDy=0;" parent="1" source="DWwsRA3n9qqmaE4OlVu3-24" edge="1">
          <mxGeometry relative="1" as="geometry">
            <mxPoint x="350" y="-60" as="sourcePoint" />
            <mxPoint x="360" y="-50" as="targetPoint" />
          </mxGeometry>
        </mxCell>
        <mxCell id="DWwsRA3n9qqmaE4OlVu3-39" value="" style="endArrow=none;html=1;rounded=0;exitX=0.5;exitY=1;exitDx=0;exitDy=0;fontSize=13;fontStyle=0;labelBorderColor=none;textShadow=0;" parent="1" source="DWwsRA3n9qqmaE4OlVu3-20" edge="1">
          <mxGeometry relative="1" as="geometry">
            <mxPoint x="470" y="-60" as="sourcePoint" />
            <mxPoint x="480" y="-50" as="targetPoint" />
          </mxGeometry>
        </mxCell>
        <mxCell id="DWwsRA3n9qqmaE4OlVu3-41" value="" style="endArrow=none;html=1;rounded=0;exitX=1;exitY=0.75;exitDx=0;exitDy=0;fontSize=13;fontStyle=0;labelBorderColor=none;textShadow=0;" parent="1" source="DWwsRA3n9qqmaE4OlVu3-2" edge="1">
          <mxGeometry relative="1" as="geometry">
            <mxPoint x="200" y="-50" as="sourcePoint" />
            <mxPoint x="480" y="-30" as="targetPoint" />
          </mxGeometry>
        </mxCell>
        <mxCell id="DWwsRA3n9qqmaE4OlVu3-42" value="" style="endArrow=none;html=1;rounded=0;fontSize=13;fontStyle=0;labelBorderColor=none;textShadow=0;" parent="1" edge="1">
          <mxGeometry relative="1" as="geometry">
            <mxPoint x="-60" y="-50" as="sourcePoint" />
            <mxPoint x="165" y="-50" as="targetPoint" />
          </mxGeometry>
        </mxCell>
        <mxCell id="DWwsRA3n9qqmaE4OlVu3-43" value="" style="endArrow=none;html=1;rounded=0;exitX=1;exitY=0.75;exitDx=0;exitDy=0;fontSize=13;fontStyle=0;labelBorderColor=none;textShadow=0;" parent="1" edge="1">
          <mxGeometry relative="1" as="geometry">
            <mxPoint x="-50" y="-30" as="sourcePoint" />
            <mxPoint x="165" y="-30" as="targetPoint" />
          </mxGeometry>
        </mxCell>
        <mxCell id="DWwsRA3n9qqmaE4OlVu3-44" value="" style="endArrow=none;html=1;rounded=0;entryX=0.5;entryY=0;entryDx=0;entryDy=0;fontSize=13;fontStyle=0;labelBorderColor=none;textShadow=0;" parent="1" target="DWwsRA3n9qqmaE4OlVu3-18" edge="1">
          <mxGeometry relative="1" as="geometry">
            <mxPoint x="360" y="-30" as="sourcePoint" />
            <mxPoint x="370" y="-40" as="targetPoint" />
          </mxGeometry>
        </mxCell>
        <mxCell id="DWwsRA3n9qqmaE4OlVu3-45" value="" style="endArrow=none;html=1;rounded=0;exitX=0.5;exitY=0;exitDx=0;exitDy=0;fontSize=13;fontStyle=0;labelBorderColor=none;textShadow=0;" parent="1" source="DWwsRA3n9qqmaE4OlVu3-19" edge="1">
          <mxGeometry relative="1" as="geometry">
            <mxPoint x="840" y="-70" as="sourcePoint" />
            <mxPoint x="480" y="-30" as="targetPoint" />
          </mxGeometry>
        </mxCell>
        <mxCell id="DWwsRA3n9qqmaE4OlVu3-46" value="" style="endArrow=none;html=1;rounded=0;exitX=0.5;exitY=0;exitDx=0;exitDy=0;fontSize=13;fontStyle=0;labelBorderColor=none;textShadow=0;" parent="1" source="DWwsRA3n9qqmaE4OlVu3-28" edge="1">
          <mxGeometry relative="1" as="geometry">
            <mxPoint x="-60" y="-60" as="sourcePoint" />
            <mxPoint x="70" y="-30" as="targetPoint" />
          </mxGeometry>
        </mxCell>
        <mxCell id="DWwsRA3n9qqmaE4OlVu3-47" value="" style="endArrow=none;html=1;rounded=0;exitX=0.5;exitY=0;exitDx=0;exitDy=0;fontSize=13;fontStyle=0;labelBorderColor=none;textShadow=0;" parent="1" source="DWwsRA3n9qqmaE4OlVu3-27" edge="1">
          <mxGeometry relative="1" as="geometry">
            <mxPoint x="-60" y="-60" as="sourcePoint" />
            <mxPoint x="-50" y="-30" as="targetPoint" />
          </mxGeometry>
        </mxCell>
        <mxCell id="DWwsRA3n9qqmaE4OlVu3-48" value="" style="endArrow=none;html=1;rounded=0;fontSize=13;fontStyle=0;labelBorderColor=none;textShadow=0;" parent="1" edge="1">
          <mxGeometry relative="1" as="geometry">
            <mxPoint x="-60" y="-60" as="sourcePoint" />
            <mxPoint x="-60" y="-50" as="targetPoint" />
          </mxGeometry>
        </mxCell>
        <mxCell id="DWwsRA3n9qqmaE4OlVu3-49" value="" style="endArrow=none;html=1;rounded=0;fontSize=13;fontStyle=0;labelBorderColor=none;textShadow=0;" parent="1" edge="1">
          <mxGeometry relative="1" as="geometry">
            <mxPoint x="60" y="-60" as="sourcePoint" />
            <mxPoint x="60" y="-50" as="targetPoint" />
          </mxGeometry>
        </mxCell>
        <mxCell id="DWwsRA3n9qqmaE4OlVu3-52" value="O" style="ellipse;whiteSpace=wrap;html=1;fillColor=#ffff88;strokeColor=#36393d;fontSize=13;fontStyle=0;labelBorderColor=none;textShadow=0;" parent="1" vertex="1">
          <mxGeometry x="235" y="-270" width="30" height="30" as="geometry" />
        </mxCell>
        <mxCell id="DWwsRA3n9qqmaE4OlVu3-54" value="Member" style="whiteSpace=wrap;html=1;align=center;fillColor=#cdeb8b;strokeColor=#36393d;fontSize=13;fontStyle=0;labelBorderColor=none;textShadow=0;" parent="1" vertex="1">
          <mxGeometry x="230" y="-400" width="100" height="40" as="geometry" />
        </mxCell>
        <mxCell id="DWwsRA3n9qqmaE4OlVu3-55" value="Admin" style="whiteSpace=wrap;html=1;align=center;fillColor=#cdeb8b;strokeColor=#36393d;fontSize=13;fontStyle=0;labelBorderColor=none;textShadow=0;" parent="1" vertex="1">
          <mxGeometry x="70" y="-400" width="100" height="40" as="geometry" />
        </mxCell>
        <mxCell id="DWwsRA3n9qqmaE4OlVu3-56" value="Owner" style="whiteSpace=wrap;html=1;align=center;fillColor=#cdeb8b;strokeColor=#36393d;fontSize=13;fontStyle=0;labelBorderColor=none;textShadow=0;" parent="1" vertex="1">
          <mxGeometry x="-70" y="-400" width="100" height="40" as="geometry" />
        </mxCell>
        <mxCell id="DWwsRA3n9qqmaE4OlVu3-57" value="" style="endArrow=classic;html=1;rounded=0;exitX=1;exitY=0.5;exitDx=0;exitDy=0;entryX=0.25;entryY=1;entryDx=0;entryDy=0;fontSize=13;fontStyle=0;labelBorderColor=none;textShadow=0;" parent="1" source="DWwsRA3n9qqmaE4OlVu3-52" target="sVT_aw7DjIe-fD_PMOQF-67" edge="1">
          <mxGeometry width="50" height="50" relative="1" as="geometry">
            <mxPoint x="240" y="-300" as="sourcePoint" />
            <mxPoint x="440" y="-360" as="targetPoint" />
          </mxGeometry>
        </mxCell>
        <mxCell id="DWwsRA3n9qqmaE4OlVu3-58" value="" style="endArrow=classic;html=1;rounded=0;entryX=0.5;entryY=1;entryDx=0;entryDy=0;exitX=1;exitY=0;exitDx=0;exitDy=0;fontSize=13;fontStyle=0;labelBorderColor=none;textShadow=0;" parent="1" source="DWwsRA3n9qqmaE4OlVu3-52" target="DWwsRA3n9qqmaE4OlVu3-54" edge="1">
          <mxGeometry width="50" height="50" relative="1" as="geometry">
            <mxPoint x="240" y="-300" as="sourcePoint" />
            <mxPoint x="290" y="-350" as="targetPoint" />
          </mxGeometry>
        </mxCell>
        <mxCell id="DWwsRA3n9qqmaE4OlVu3-59" value="" style="endArrow=classic;html=1;rounded=0;exitX=0;exitY=0;exitDx=0;exitDy=0;entryX=0.5;entryY=1;entryDx=0;entryDy=0;fontSize=13;fontStyle=0;labelBorderColor=none;textShadow=0;" parent="1" source="DWwsRA3n9qqmaE4OlVu3-52" target="DWwsRA3n9qqmaE4OlVu3-55" edge="1">
          <mxGeometry width="50" height="50" relative="1" as="geometry">
            <mxPoint x="240" y="-300" as="sourcePoint" />
            <mxPoint x="290" y="-350" as="targetPoint" />
          </mxGeometry>
        </mxCell>
        <mxCell id="DWwsRA3n9qqmaE4OlVu3-60" value="" style="endArrow=classic;html=1;rounded=0;exitX=0;exitY=0.5;exitDx=0;exitDy=0;entryX=0.5;entryY=1;entryDx=0;entryDy=0;fontSize=13;fontStyle=0;labelBorderColor=none;textShadow=0;" parent="1" source="DWwsRA3n9qqmaE4OlVu3-52" target="DWwsRA3n9qqmaE4OlVu3-56" edge="1">
          <mxGeometry width="50" height="50" relative="1" as="geometry">
            <mxPoint x="240" y="-300" as="sourcePoint" />
            <mxPoint x="290" y="-350" as="targetPoint" />
          </mxGeometry>
        </mxCell>
        <mxCell id="DWwsRA3n9qqmaE4OlVu3-70" value="Do" style="shape=rhombus;perimeter=rhombusPerimeter;whiteSpace=wrap;html=1;align=center;fillColor=#ffcccc;strokeColor=#36393d;fontSize=13;fontStyle=0;labelBorderColor=none;textShadow=0;" parent="1" vertex="1">
          <mxGeometry x="690" y="13.25" width="120" height="44" as="geometry" />
        </mxCell>
        <mxCell id="DWwsRA3n9qqmaE4OlVu3-72" value="Chat" style="whiteSpace=wrap;html=1;align=center;fillColor=#cdeb8b;strokeColor=#36393d;fontSize=13;fontStyle=0;labelBorderColor=none;textShadow=0;" parent="1" vertex="1">
          <mxGeometry x="1090" y="30" width="100" height="40" as="geometry" />
        </mxCell>
        <mxCell id="DWwsRA3n9qqmaE4OlVu3-73" value="" style="shape=link;html=1;rounded=0;exitX=0.902;exitY=-0.023;exitDx=0;exitDy=0;exitPerimeter=0;fontSize=13;fontStyle=0;labelBorderColor=none;textShadow=0;" parent="1" target="DWwsRA3n9qqmaE4OlVu3-75" edge="1">
          <mxGeometry relative="1" as="geometry">
            <mxPoint x="1140" y="29.5" as="sourcePoint" />
            <mxPoint x="1140" y="-149.5" as="targetPoint" />
          </mxGeometry>
        </mxCell>
        <mxCell id="DWwsRA3n9qqmaE4OlVu3-74" value="" style="resizable=0;html=1;whiteSpace=wrap;align=right;verticalAlign=bottom;fontSize=13;fontStyle=0;labelBorderColor=none;textShadow=0;" parent="DWwsRA3n9qqmaE4OlVu3-73" connectable="0" vertex="1">
          <mxGeometry x="1" relative="1" as="geometry" />
        </mxCell>
        <mxCell id="DWwsRA3n9qqmaE4OlVu3-75" value="D" style="ellipse;whiteSpace=wrap;html=1;fillColor=#ffff88;strokeColor=#36393d;fontSize=13;fontStyle=0;labelBorderColor=none;textShadow=0;" parent="1" vertex="1">
          <mxGeometry x="1125" y="-291.5" width="30" height="30" as="geometry" />
        </mxCell>
        <mxCell id="DWwsRA3n9qqmaE4OlVu3-78" value="Group" style="whiteSpace=wrap;html=1;align=center;fillColor=#cdeb8b;strokeColor=#36393d;fontSize=13;fontStyle=0;labelBorderColor=none;textShadow=0;" parent="1" vertex="1">
          <mxGeometry x="1530" y="-330" width="100" height="40" as="geometry" />
        </mxCell>
        <mxCell id="DWwsRA3n9qqmaE4OlVu3-79" value="Bot" style="whiteSpace=wrap;html=1;align=center;fillColor=#cdeb8b;strokeColor=#36393d;fontSize=13;fontStyle=0;labelBorderColor=none;textShadow=0;" parent="1" vertex="1">
          <mxGeometry x="1520" y="57.25" width="100" height="40" as="geometry" />
        </mxCell>
        <mxCell id="DWwsRA3n9qqmaE4OlVu3-80" value="" style="endArrow=classic;html=1;rounded=0;entryX=0;entryY=0.5;entryDx=0;entryDy=0;fontSize=13;fontStyle=0;labelBorderColor=none;textShadow=0;" parent="1" source="DWwsRA3n9qqmaE4OlVu3-75" target="DWwsRA3n9qqmaE4OlVu3-79" edge="1">
          <mxGeometry width="50" height="50" relative="1" as="geometry">
            <mxPoint x="1155" y="-170" as="sourcePoint" />
            <mxPoint x="1325" y="-265" as="targetPoint" />
          </mxGeometry>
        </mxCell>
        <mxCell id="DWwsRA3n9qqmaE4OlVu3-81" value="" style="endArrow=classic;html=1;rounded=0;fontSize=13;fontStyle=0;labelBorderColor=none;textShadow=0;entryX=1;entryY=1;entryDx=0;entryDy=0;exitX=0;exitY=0.5;exitDx=0;exitDy=0;" parent="1" source="DWwsRA3n9qqmaE4OlVu3-75" target="sVT_aw7DjIe-fD_PMOQF-67" edge="1">
          <mxGeometry width="50" height="50" relative="1" as="geometry">
            <mxPoint x="1129" y="-185" as="sourcePoint" />
            <mxPoint x="920" y="-370" as="targetPoint" />
          </mxGeometry>
        </mxCell>
        <mxCell id="DWwsRA3n9qqmaE4OlVu3-83" value="" style="endArrow=classic;html=1;rounded=0;entryX=0;entryY=1;entryDx=0;entryDy=0;exitX=1;exitY=0;exitDx=0;exitDy=0;fontSize=13;fontStyle=0;labelBorderColor=none;textShadow=0;" parent="1" source="DWwsRA3n9qqmaE4OlVu3-75" target="DWwsRA3n9qqmaE4OlVu3-78" edge="1">
          <mxGeometry width="50" height="50" relative="1" as="geometry">
            <mxPoint x="830" y="-140" as="sourcePoint" />
            <mxPoint x="880" y="-190" as="targetPoint" />
          </mxGeometry>
        </mxCell>
        <mxCell id="DWwsRA3n9qqmaE4OlVu3-84" value="is_archive" style="ellipse;whiteSpace=wrap;html=1;align=center;fillColor=#cce5ff;strokeColor=#36393d;fontSize=13;fontStyle=0;labelBorderColor=none;textShadow=0;" parent="1" vertex="1">
          <mxGeometry x="912.5" y="-10" width="100" height="40" as="geometry" />
        </mxCell>
        <mxCell id="DWwsRA3n9qqmaE4OlVu3-87" value="" style="endArrow=none;html=1;rounded=0;exitX=1;exitY=1;exitDx=0;exitDy=0;entryX=0;entryY=0;entryDx=0;entryDy=0;fontSize=13;fontStyle=0;labelBorderColor=none;textShadow=0;" parent="1" source="DWwsRA3n9qqmaE4OlVu3-84" target="DWwsRA3n9qqmaE4OlVu3-72" edge="1">
          <mxGeometry relative="1" as="geometry">
            <mxPoint x="1080" y="20" as="sourcePoint" />
            <mxPoint x="1240" y="20" as="targetPoint" />
          </mxGeometry>
        </mxCell>
        <mxCell id="DWwsRA3n9qqmaE4OlVu3-90" value="Delete" style="shape=rhombus;perimeter=rhombusPerimeter;whiteSpace=wrap;html=1;align=center;fillColor=#ffcccc;strokeColor=#36393d;fontSize=13;fontStyle=0;labelBorderColor=none;textShadow=0;" parent="1" vertex="1">
          <mxGeometry x="877.5" y="170" width="120" height="60" as="geometry" />
        </mxCell>
        <mxCell id="DWwsRA3n9qqmaE4OlVu3-91" value="Send &amp;amp; Receive" style="shape=rhombus;perimeter=rhombusPerimeter;whiteSpace=wrap;html=1;align=center;fillColor=#ffcccc;strokeColor=#36393d;fontSize=13;fontStyle=0;labelBorderColor=none;textShadow=0;" parent="1" vertex="1">
          <mxGeometry x="1012.5" y="170" width="120" height="60" as="geometry" />
        </mxCell>
        <mxCell id="DWwsRA3n9qqmaE4OlVu3-92" value="Edit" style="shape=rhombus;perimeter=rhombusPerimeter;whiteSpace=wrap;html=1;align=center;fillColor=#ffcccc;strokeColor=#36393d;fontSize=13;fontStyle=0;labelBorderColor=none;textShadow=0;" parent="1" vertex="1">
          <mxGeometry x="1282.5" y="170" width="120" height="60" as="geometry" />
        </mxCell>
        <mxCell id="DWwsRA3n9qqmaE4OlVu3-93" value="Forward" style="shape=rhombus;perimeter=rhombusPerimeter;whiteSpace=wrap;html=1;align=center;fillColor=#ffcccc;strokeColor=#36393d;fontSize=13;fontStyle=0;labelBorderColor=none;textShadow=0;" parent="1" vertex="1">
          <mxGeometry x="1147.5" y="170" width="120" height="60" as="geometry" />
        </mxCell>
        <mxCell id="DWwsRA3n9qqmaE4OlVu3-94" value="Message" style="whiteSpace=wrap;html=1;align=center;fillColor=#cdeb8b;strokeColor=#36393d;fontSize=13;fontStyle=0;labelBorderColor=none;textShadow=0;" parent="1" vertex="1">
          <mxGeometry x="1090" y="330" width="100" height="40" as="geometry" />
        </mxCell>
        <mxCell id="DWwsRA3n9qqmaE4OlVu3-104" value="" style="shape=link;html=1;rounded=0;exitX=0.5;exitY=1;exitDx=0;exitDy=0;fontSize=13;fontStyle=0;labelBorderColor=none;textShadow=0;" parent="1" source="DWwsRA3n9qqmaE4OlVu3-94" target="DWwsRA3n9qqmaE4OlVu3-106" edge="1">
          <mxGeometry relative="1" as="geometry">
            <mxPoint x="1245" y="759" as="sourcePoint" />
            <mxPoint x="1245" y="580" as="targetPoint" />
          </mxGeometry>
        </mxCell>
        <mxCell id="DWwsRA3n9qqmaE4OlVu3-105" value="" style="resizable=0;html=1;whiteSpace=wrap;align=right;verticalAlign=bottom;fontSize=13;fontStyle=0;labelBorderColor=none;textShadow=0;" parent="DWwsRA3n9qqmaE4OlVu3-104" connectable="0" vertex="1">
          <mxGeometry x="1" relative="1" as="geometry" />
        </mxCell>
        <mxCell id="DWwsRA3n9qqmaE4OlVu3-106" value="D" style="ellipse;whiteSpace=wrap;html=1;fillColor=#ffff88;strokeColor=#36393d;fontSize=13;fontStyle=0;labelBorderColor=none;textShadow=0;" parent="1" vertex="1">
          <mxGeometry x="1125" y="530" width="30" height="30" as="geometry" />
        </mxCell>
        <mxCell id="DWwsRA3n9qqmaE4OlVu3-107" value="" style="endArrow=classic;html=1;rounded=0;exitX=0.5;exitY=1;exitDx=0;exitDy=0;fontSize=13;fontStyle=0;labelBorderColor=none;textShadow=0;" parent="1" source="DWwsRA3n9qqmaE4OlVu3-106" edge="1">
          <mxGeometry width="50" height="50" relative="1" as="geometry">
            <mxPoint x="1130" y="640" as="sourcePoint" />
            <mxPoint x="1140" y="610" as="targetPoint" />
          </mxGeometry>
        </mxCell>
        <mxCell id="DWwsRA3n9qqmaE4OlVu3-108" value="" style="endArrow=none;html=1;rounded=0;fontSize=13;fontStyle=0;labelBorderColor=none;textShadow=0;" parent="1" edge="1">
          <mxGeometry relative="1" as="geometry">
            <mxPoint x="-20" y="660" as="sourcePoint" />
            <mxPoint x="1420" y="660" as="targetPoint" />
          </mxGeometry>
        </mxCell>
        <mxCell id="DWwsRA3n9qqmaE4OlVu3-109" value="" style="endArrow=none;html=1;rounded=0;fontSize=13;fontStyle=0;labelBorderColor=none;textShadow=0;" parent="1" edge="1">
          <mxGeometry relative="1" as="geometry">
            <mxPoint x="1140" y="610" as="sourcePoint" />
            <mxPoint x="1140" y="660" as="targetPoint" />
          </mxGeometry>
        </mxCell>
        <mxCell id="DWwsRA3n9qqmaE4OlVu3-110" value="Video" style="whiteSpace=wrap;html=1;align=center;fillColor=#cdeb8b;strokeColor=#36393d;fontSize=13;fontStyle=0;labelBorderColor=none;textShadow=0;" parent="1" vertex="1">
          <mxGeometry x="410" y="710" width="100" height="40" as="geometry" />
        </mxCell>
        <mxCell id="DWwsRA3n9qqmaE4OlVu3-111" value="Location" style="whiteSpace=wrap;html=1;align=center;fillColor=#cdeb8b;strokeColor=#36393d;fontSize=13;fontStyle=0;labelBorderColor=none;textShadow=0;" parent="1" vertex="1">
          <mxGeometry x="570" y="710" width="100" height="40" as="geometry" />
        </mxCell>
        <mxCell id="DWwsRA3n9qqmaE4OlVu3-112" value="Picture" style="whiteSpace=wrap;html=1;align=center;fillColor=#cdeb8b;strokeColor=#36393d;fontSize=13;fontStyle=0;labelBorderColor=none;textShadow=0;" parent="1" vertex="1">
          <mxGeometry x="730" y="710" width="100" height="40" as="geometry" />
        </mxCell>
        <mxCell id="DWwsRA3n9qqmaE4OlVu3-113" value="File" style="whiteSpace=wrap;html=1;align=center;fillColor=#cdeb8b;strokeColor=#36393d;fontSize=13;fontStyle=0;labelBorderColor=none;textShadow=0;" parent="1" vertex="1">
          <mxGeometry x="887.5" y="710" width="100" height="40" as="geometry" />
        </mxCell>
        <mxCell id="DWwsRA3n9qqmaE4OlVu3-114" value="Voice" style="whiteSpace=wrap;html=1;align=center;fillColor=#cdeb8b;strokeColor=#36393d;fontSize=13;fontStyle=0;labelBorderColor=none;textShadow=0;" parent="1" vertex="1">
          <mxGeometry x="1047.5" y="710" width="100" height="40" as="geometry" />
        </mxCell>
        <mxCell id="DWwsRA3n9qqmaE4OlVu3-115" value="Music" style="whiteSpace=wrap;html=1;align=center;fillColor=#cdeb8b;strokeColor=#36393d;fontSize=13;fontStyle=0;labelBorderColor=none;textShadow=0;" parent="1" vertex="1">
          <mxGeometry x="1210" y="710" width="100" height="40" as="geometry" />
        </mxCell>
        <mxCell id="DWwsRA3n9qqmaE4OlVu3-116" value="Poll" style="whiteSpace=wrap;html=1;align=center;fillColor=#cdeb8b;strokeColor=#36393d;fontSize=13;fontStyle=0;labelBorderColor=none;textShadow=0;" parent="1" vertex="1">
          <mxGeometry x="1370" y="710" width="100" height="40" as="geometry" />
        </mxCell>
        <mxCell id="DWwsRA3n9qqmaE4OlVu3-117" value="Gif" style="whiteSpace=wrap;html=1;align=center;fillColor=#cdeb8b;strokeColor=#36393d;fontSize=13;fontStyle=0;labelBorderColor=none;textShadow=0;" parent="1" vertex="1">
          <mxGeometry x="250" y="710" width="100" height="40" as="geometry" />
        </mxCell>
        <mxCell id="DWwsRA3n9qqmaE4OlVu3-118" value="Text" style="whiteSpace=wrap;html=1;align=center;fillColor=#cdeb8b;strokeColor=#36393d;fontSize=13;fontStyle=0;labelBorderColor=none;textShadow=0;" parent="1" vertex="1">
          <mxGeometry x="90" y="710" width="100" height="40" as="geometry" />
        </mxCell>
        <mxCell id="DWwsRA3n9qqmaE4OlVu3-119" value="Sticker" style="whiteSpace=wrap;html=1;align=center;fillColor=#cdeb8b;strokeColor=#36393d;fontSize=13;fontStyle=0;labelBorderColor=none;textShadow=0;" parent="1" vertex="1">
          <mxGeometry x="-70" y="710" width="100" height="40" as="geometry" />
        </mxCell>
        <mxCell id="DWwsRA3n9qqmaE4OlVu3-120" value="" style="endArrow=classic;html=1;rounded=0;entryX=0.5;entryY=0;entryDx=0;entryDy=0;fontSize=13;fontStyle=0;labelBorderColor=none;textShadow=0;" parent="1" target="DWwsRA3n9qqmaE4OlVu3-116" edge="1">
          <mxGeometry width="50" height="50" relative="1" as="geometry">
            <mxPoint x="1420" y="660" as="sourcePoint" />
            <mxPoint x="1380" y="510" as="targetPoint" />
          </mxGeometry>
        </mxCell>
        <mxCell id="DWwsRA3n9qqmaE4OlVu3-121" value="" style="endArrow=classic;html=1;rounded=0;entryX=0.5;entryY=0;entryDx=0;entryDy=0;fontSize=13;fontStyle=0;labelBorderColor=none;textShadow=0;" parent="1" target="DWwsRA3n9qqmaE4OlVu3-115" edge="1">
          <mxGeometry width="50" height="50" relative="1" as="geometry">
            <mxPoint x="1260" y="660" as="sourcePoint" />
            <mxPoint x="1380" y="510" as="targetPoint" />
          </mxGeometry>
        </mxCell>
        <mxCell id="DWwsRA3n9qqmaE4OlVu3-122" value="" style="endArrow=classic;html=1;rounded=0;entryX=0.5;entryY=0;entryDx=0;entryDy=0;fontSize=13;fontStyle=0;labelBorderColor=none;textShadow=0;" parent="1" target="DWwsRA3n9qqmaE4OlVu3-114" edge="1">
          <mxGeometry width="50" height="50" relative="1" as="geometry">
            <mxPoint x="1100" y="660" as="sourcePoint" />
            <mxPoint x="1310" y="510" as="targetPoint" />
          </mxGeometry>
        </mxCell>
        <mxCell id="DWwsRA3n9qqmaE4OlVu3-123" value="" style="endArrow=classic;html=1;rounded=0;entryX=0.5;entryY=0;entryDx=0;entryDy=0;fontSize=13;fontStyle=0;labelBorderColor=none;textShadow=0;" parent="1" target="DWwsRA3n9qqmaE4OlVu3-113" edge="1">
          <mxGeometry width="50" height="50" relative="1" as="geometry">
            <mxPoint x="940" y="660" as="sourcePoint" />
            <mxPoint x="960" y="570" as="targetPoint" />
          </mxGeometry>
        </mxCell>
        <mxCell id="DWwsRA3n9qqmaE4OlVu3-124" value="" style="endArrow=classic;html=1;rounded=0;entryX=0.5;entryY=0;entryDx=0;entryDy=0;fontSize=13;fontStyle=0;labelBorderColor=none;textShadow=0;" parent="1" target="DWwsRA3n9qqmaE4OlVu3-112" edge="1">
          <mxGeometry width="50" height="50" relative="1" as="geometry">
            <mxPoint x="780" y="660" as="sourcePoint" />
            <mxPoint x="860" y="610" as="targetPoint" />
          </mxGeometry>
        </mxCell>
        <mxCell id="DWwsRA3n9qqmaE4OlVu3-125" value="" style="endArrow=classic;html=1;rounded=0;entryX=0.5;entryY=0;entryDx=0;entryDy=0;fontSize=13;fontStyle=0;labelBorderColor=none;textShadow=0;" parent="1" target="DWwsRA3n9qqmaE4OlVu3-111" edge="1">
          <mxGeometry width="50" height="50" relative="1" as="geometry">
            <mxPoint x="620" y="660" as="sourcePoint" />
            <mxPoint x="530" y="610" as="targetPoint" />
          </mxGeometry>
        </mxCell>
        <mxCell id="DWwsRA3n9qqmaE4OlVu3-126" value="" style="endArrow=classic;html=1;rounded=0;entryX=0.5;entryY=0;entryDx=0;entryDy=0;fontSize=13;fontStyle=0;labelBorderColor=none;textShadow=0;" parent="1" target="DWwsRA3n9qqmaE4OlVu3-110" edge="1">
          <mxGeometry width="50" height="50" relative="1" as="geometry">
            <mxPoint x="460" y="660" as="sourcePoint" />
            <mxPoint x="530" y="610" as="targetPoint" />
          </mxGeometry>
        </mxCell>
        <mxCell id="DWwsRA3n9qqmaE4OlVu3-127" value="" style="endArrow=classic;html=1;rounded=0;entryX=0.5;entryY=0;entryDx=0;entryDy=0;fontSize=13;fontStyle=0;labelBorderColor=none;textShadow=0;" parent="1" target="DWwsRA3n9qqmaE4OlVu3-117" edge="1">
          <mxGeometry width="50" height="50" relative="1" as="geometry">
            <mxPoint x="300" y="660" as="sourcePoint" />
            <mxPoint x="450" y="610" as="targetPoint" />
          </mxGeometry>
        </mxCell>
        <mxCell id="DWwsRA3n9qqmaE4OlVu3-128" value="" style="endArrow=classic;html=1;rounded=0;entryX=0.5;entryY=0;entryDx=0;entryDy=0;fontSize=13;fontStyle=0;labelBorderColor=none;textShadow=0;" parent="1" target="DWwsRA3n9qqmaE4OlVu3-118" edge="1">
          <mxGeometry width="50" height="50" relative="1" as="geometry">
            <mxPoint x="140" y="660" as="sourcePoint" />
            <mxPoint x="400" y="610" as="targetPoint" />
          </mxGeometry>
        </mxCell>
        <mxCell id="DWwsRA3n9qqmaE4OlVu3-129" value="" style="endArrow=classic;html=1;rounded=0;entryX=0.5;entryY=0;entryDx=0;entryDy=0;fontSize=13;fontStyle=0;labelBorderColor=none;textShadow=0;" parent="1" target="DWwsRA3n9qqmaE4OlVu3-119" edge="1">
          <mxGeometry width="50" height="50" relative="1" as="geometry">
            <mxPoint x="-20" y="660" as="sourcePoint" />
            <mxPoint x="320" y="610" as="targetPoint" />
          </mxGeometry>
        </mxCell>
        <mxCell id="DWwsRA3n9qqmaE4OlVu3-130" value="format" style="ellipse;whiteSpace=wrap;html=1;align=center;fillColor=#cce5ff;strokeColor=#36393d;fontSize=13;fontStyle=0;labelBorderColor=none;textShadow=0;" parent="1" vertex="1">
          <mxGeometry x="-60" y="830" width="100" height="40" as="geometry" />
        </mxCell>
        <mxCell id="DWwsRA3n9qqmaE4OlVu3-131" value="spoiler" style="ellipse;whiteSpace=wrap;html=1;align=center;fillColor=#cce5ff;strokeColor=#36393d;fontSize=13;fontStyle=0;labelBorderColor=none;textShadow=0;" parent="1" vertex="1">
          <mxGeometry x="50" y="910" width="100" height="40" as="geometry" />
        </mxCell>
        <mxCell id="DWwsRA3n9qqmaE4OlVu3-132" value="Italic" style="ellipse;whiteSpace=wrap;html=1;align=center;fillColor=#cce5ff;strokeColor=#36393d;fontSize=13;fontStyle=0;labelBorderColor=none;textShadow=0;" parent="1" vertex="1">
          <mxGeometry x="-60" y="910" width="100" height="40" as="geometry" />
        </mxCell>
        <mxCell id="DWwsRA3n9qqmaE4OlVu3-133" value="bold" style="ellipse;whiteSpace=wrap;html=1;align=center;fillColor=#cce5ff;strokeColor=#36393d;fontSize=13;fontStyle=0;labelBorderColor=none;textShadow=0;" parent="1" vertex="1">
          <mxGeometry x="-170" y="910" width="100" height="40" as="geometry" />
        </mxCell>
        <mxCell id="DWwsRA3n9qqmaE4OlVu3-134" value="" style="endArrow=none;html=1;rounded=0;exitX=1;exitY=0;exitDx=0;exitDy=0;entryX=0;entryY=1;entryDx=0;entryDy=0;fillColor=#cce5ff;strokeColor=#36393d;fontSize=13;fontStyle=0;labelBorderColor=none;textShadow=0;" parent="1" source="DWwsRA3n9qqmaE4OlVu3-133" target="DWwsRA3n9qqmaE4OlVu3-130" edge="1">
          <mxGeometry relative="1" as="geometry">
            <mxPoint x="-270" y="970" as="sourcePoint" />
            <mxPoint x="-110" y="970" as="targetPoint" />
          </mxGeometry>
        </mxCell>
        <mxCell id="DWwsRA3n9qqmaE4OlVu3-135" value="" style="endArrow=none;html=1;rounded=0;entryX=0.5;entryY=1;entryDx=0;entryDy=0;exitX=0.5;exitY=0;exitDx=0;exitDy=0;fillColor=#cce5ff;strokeColor=#36393d;fontSize=13;fontStyle=0;labelBorderColor=none;textShadow=0;" parent="1" source="DWwsRA3n9qqmaE4OlVu3-132" target="DWwsRA3n9qqmaE4OlVu3-130" edge="1">
          <mxGeometry relative="1" as="geometry">
            <mxPoint x="-10" y="910" as="sourcePoint" />
            <mxPoint x="-10" y="870" as="targetPoint" />
          </mxGeometry>
        </mxCell>
        <mxCell id="DWwsRA3n9qqmaE4OlVu3-136" value="" style="endArrow=none;html=1;rounded=0;exitX=0;exitY=0;exitDx=0;exitDy=0;entryX=1;entryY=1;entryDx=0;entryDy=0;fillColor=#cce5ff;strokeColor=#36393d;fontSize=13;fontStyle=0;labelBorderColor=none;textShadow=0;" parent="1" source="DWwsRA3n9qqmaE4OlVu3-131" target="DWwsRA3n9qqmaE4OlVu3-130" edge="1">
          <mxGeometry relative="1" as="geometry">
            <mxPoint x="100" y="920" as="sourcePoint" />
            <mxPoint x="-110" y="970" as="targetPoint" />
          </mxGeometry>
        </mxCell>
        <mxCell id="DWwsRA3n9qqmaE4OlVu3-137" value="emoji" style="ellipse;whiteSpace=wrap;html=1;align=center;fillColor=#cce5ff;strokeColor=#36393d;fontSize=13;fontStyle=0;labelBorderColor=none;textShadow=0;" parent="1" vertex="1">
          <mxGeometry x="55" y="830" width="100" height="40" as="geometry" />
        </mxCell>
        <mxCell id="DWwsRA3n9qqmaE4OlVu3-138" value="char" style="ellipse;whiteSpace=wrap;html=1;align=center;fillColor=#cce5ff;strokeColor=#36393d;fontSize=13;fontStyle=0;labelBorderColor=none;textShadow=0;" parent="1" vertex="1">
          <mxGeometry x="170" y="830" width="100" height="40" as="geometry" />
        </mxCell>
        <mxCell id="DWwsRA3n9qqmaE4OlVu3-139" value="" style="endArrow=none;html=1;rounded=0;exitX=0.5;exitY=0;exitDx=0;exitDy=0;entryX=0;entryY=1;entryDx=0;entryDy=0;fontSize=13;fontStyle=0;labelBorderColor=none;textShadow=0;" parent="1" source="DWwsRA3n9qqmaE4OlVu3-130" target="DWwsRA3n9qqmaE4OlVu3-118" edge="1">
          <mxGeometry relative="1" as="geometry">
            <mxPoint x="200" y="790" as="sourcePoint" />
            <mxPoint x="360" y="790" as="targetPoint" />
          </mxGeometry>
        </mxCell>
        <mxCell id="DWwsRA3n9qqmaE4OlVu3-140" value="" style="endArrow=none;html=1;rounded=0;exitX=0.5;exitY=1;exitDx=0;exitDy=0;entryX=0.5;entryY=0;entryDx=0;entryDy=0;fontSize=13;fontStyle=0;labelBorderColor=none;textShadow=0;" parent="1" source="DWwsRA3n9qqmaE4OlVu3-118" target="DWwsRA3n9qqmaE4OlVu3-137" edge="1">
          <mxGeometry relative="1" as="geometry">
            <mxPoint x="200" y="790" as="sourcePoint" />
            <mxPoint x="360" y="790" as="targetPoint" />
          </mxGeometry>
        </mxCell>
        <mxCell id="DWwsRA3n9qqmaE4OlVu3-141" value="" style="endArrow=none;html=1;rounded=0;exitX=1;exitY=1;exitDx=0;exitDy=0;entryX=0.5;entryY=0;entryDx=0;entryDy=0;fontSize=13;fontStyle=0;labelBorderColor=none;textShadow=0;" parent="1" source="DWwsRA3n9qqmaE4OlVu3-118" target="DWwsRA3n9qqmaE4OlVu3-138" edge="1">
          <mxGeometry relative="1" as="geometry">
            <mxPoint x="200" y="790" as="sourcePoint" />
            <mxPoint x="360" y="790" as="targetPoint" />
          </mxGeometry>
        </mxCell>
        <mxCell id="DWwsRA3n9qqmaE4OlVu3-142" value="duration" style="ellipse;whiteSpace=wrap;html=1;align=center;fillColor=#cce5ff;strokeColor=#36393d;fontSize=13;fontStyle=0;labelBorderColor=none;textShadow=0;" parent="1" vertex="1">
          <mxGeometry x="250" y="780" width="100" height="40" as="geometry" />
        </mxCell>
        <mxCell id="DWwsRA3n9qqmaE4OlVu3-143" value="" style="endArrow=none;html=1;rounded=0;exitX=0.5;exitY=1;exitDx=0;exitDy=0;entryX=0.5;entryY=0;entryDx=0;entryDy=0;fontSize=13;fontStyle=0;labelBorderColor=none;textShadow=0;" parent="1" source="DWwsRA3n9qqmaE4OlVu3-117" target="DWwsRA3n9qqmaE4OlVu3-142" edge="1">
          <mxGeometry relative="1" as="geometry">
            <mxPoint x="380" y="790" as="sourcePoint" />
            <mxPoint x="540" y="790" as="targetPoint" />
          </mxGeometry>
        </mxCell>
        <mxCell id="DWwsRA3n9qqmaE4OlVu3-144" value="duration" style="ellipse;whiteSpace=wrap;html=1;align=center;fillColor=#cce5ff;strokeColor=#36393d;fontSize=13;fontStyle=0;labelBorderColor=none;textShadow=0;" parent="1" vertex="1">
          <mxGeometry x="360" y="780" width="100" height="40" as="geometry" />
        </mxCell>
        <mxCell id="DWwsRA3n9qqmaE4OlVu3-145" value="quality" style="ellipse;whiteSpace=wrap;html=1;align=center;fillColor=#cce5ff;strokeColor=#36393d;fontSize=13;fontStyle=0;labelBorderColor=none;textShadow=0;" parent="1" vertex="1">
          <mxGeometry x="470" y="780" width="100" height="40" as="geometry" />
        </mxCell>
        <mxCell id="DWwsRA3n9qqmaE4OlVu3-146" value="" style="endArrow=none;html=1;rounded=0;exitX=0.5;exitY=0;exitDx=0;exitDy=0;entryX=0.25;entryY=1;entryDx=0;entryDy=0;fontSize=13;fontStyle=0;labelBorderColor=none;textShadow=0;" parent="1" source="DWwsRA3n9qqmaE4OlVu3-144" target="DWwsRA3n9qqmaE4OlVu3-110" edge="1">
          <mxGeometry relative="1" as="geometry">
            <mxPoint x="440" y="790" as="sourcePoint" />
            <mxPoint x="600" y="790" as="targetPoint" />
          </mxGeometry>
        </mxCell>
        <mxCell id="DWwsRA3n9qqmaE4OlVu3-147" value="" style="endArrow=none;html=1;rounded=0;exitX=0.75;exitY=1;exitDx=0;exitDy=0;entryX=0.5;entryY=0;entryDx=0;entryDy=0;fontSize=13;fontStyle=0;labelBorderColor=none;textShadow=0;" parent="1" source="DWwsRA3n9qqmaE4OlVu3-110" target="DWwsRA3n9qqmaE4OlVu3-145" edge="1">
          <mxGeometry relative="1" as="geometry">
            <mxPoint x="440" y="790" as="sourcePoint" />
            <mxPoint x="600" y="790" as="targetPoint" />
          </mxGeometry>
        </mxCell>
        <mxCell id="DWwsRA3n9qqmaE4OlVu3-148" value="pack_name" style="ellipse;whiteSpace=wrap;html=1;align=center;fillColor=#cce5ff;strokeColor=#36393d;fontSize=13;fontStyle=0;labelBorderColor=none;textShadow=0;" parent="1" vertex="1">
          <mxGeometry x="-670" y="790" width="100" height="40" as="geometry" />
        </mxCell>
        <mxCell id="DWwsRA3n9qqmaE4OlVu3-154" value="quality" style="ellipse;whiteSpace=wrap;html=1;align=center;fillColor=#cce5ff;strokeColor=#36393d;fontSize=13;fontStyle=0;labelBorderColor=none;textShadow=0;" parent="1" vertex="1">
          <mxGeometry x="730" y="780" width="100" height="40" as="geometry" />
        </mxCell>
        <mxCell id="DWwsRA3n9qqmaE4OlVu3-155" value="" style="endArrow=none;html=1;rounded=0;entryX=0.5;entryY=1;entryDx=0;entryDy=0;exitX=0.5;exitY=0;exitDx=0;exitDy=0;fontSize=13;fontStyle=0;labelBorderColor=none;textShadow=0;" parent="1" source="DWwsRA3n9qqmaE4OlVu3-154" target="DWwsRA3n9qqmaE4OlVu3-112" edge="1">
          <mxGeometry relative="1" as="geometry">
            <mxPoint x="590" y="790" as="sourcePoint" />
            <mxPoint x="750" y="790" as="targetPoint" />
          </mxGeometry>
        </mxCell>
        <mxCell id="DWwsRA3n9qqmaE4OlVu3-156" value="duration" style="ellipse;whiteSpace=wrap;html=1;align=center;fillColor=#cce5ff;strokeColor=#36393d;fontSize=13;fontStyle=0;labelBorderColor=none;textShadow=0;" parent="1" vertex="1">
          <mxGeometry x="1047.5" y="780" width="100" height="40" as="geometry" />
        </mxCell>
        <mxCell id="DWwsRA3n9qqmaE4OlVu3-157" value="duration" style="ellipse;whiteSpace=wrap;html=1;align=center;fillColor=#cce5ff;strokeColor=#36393d;fontSize=13;fontStyle=0;labelBorderColor=none;textShadow=0;" parent="1" vertex="1">
          <mxGeometry x="1210" y="780" width="100" height="40" as="geometry" />
        </mxCell>
        <mxCell id="DWwsRA3n9qqmaE4OlVu3-158" value="" style="endArrow=none;html=1;rounded=0;exitX=0.5;exitY=1;exitDx=0;exitDy=0;entryX=0.5;entryY=0;entryDx=0;entryDy=0;fontSize=13;fontStyle=0;labelBorderColor=none;textShadow=0;" parent="1" source="DWwsRA3n9qqmaE4OlVu3-114" target="DWwsRA3n9qqmaE4OlVu3-156" edge="1">
          <mxGeometry relative="1" as="geometry">
            <mxPoint x="1100" y="790" as="sourcePoint" />
            <mxPoint x="1260" y="790" as="targetPoint" />
          </mxGeometry>
        </mxCell>
        <mxCell id="DWwsRA3n9qqmaE4OlVu3-159" value="" style="endArrow=none;html=1;rounded=0;entryX=0.5;entryY=1;entryDx=0;entryDy=0;exitX=0.5;exitY=0;exitDx=0;exitDy=0;fontSize=13;fontStyle=0;labelBorderColor=none;textShadow=0;" parent="1" source="DWwsRA3n9qqmaE4OlVu3-157" target="DWwsRA3n9qqmaE4OlVu3-115" edge="1">
          <mxGeometry relative="1" as="geometry">
            <mxPoint x="1100" y="790" as="sourcePoint" />
            <mxPoint x="1260" y="790" as="targetPoint" />
          </mxGeometry>
        </mxCell>
        <mxCell id="DWwsRA3n9qqmaE4OlVu3-160" value="Reply" style="shape=rhombus;perimeter=rhombusPerimeter;whiteSpace=wrap;html=1;align=center;rotation=0;fillColor=#ffcccc;strokeColor=#36393d;fontSize=13;fontStyle=0;labelBorderColor=none;textShadow=0;" parent="1" vertex="1">
          <mxGeometry x="1337.5" y="320" width="120" height="60" as="geometry" />
        </mxCell>
        <mxCell id="DWwsRA3n9qqmaE4OlVu3-163" value="link" style="ellipse;whiteSpace=wrap;html=1;align=center;fillColor=#cce5ff;strokeColor=#36393d;fontSize=13;fontStyle=0;labelBorderColor=none;textShadow=0;" parent="1" vertex="1">
          <mxGeometry x="940" y="390" width="100" height="40" as="geometry" />
        </mxCell>
        <mxCell id="DWwsRA3n9qqmaE4OlVu3-164" value="size" style="ellipse;whiteSpace=wrap;html=1;align=center;fillColor=#cce5ff;strokeColor=#36393d;fontSize=13;fontStyle=0;labelBorderColor=none;textShadow=0;" parent="1" vertex="1">
          <mxGeometry x="820" y="390" width="100" height="40" as="geometry" />
        </mxCell>
        <mxCell id="DWwsRA3n9qqmaE4OlVu3-165" value="message_id" style="ellipse;whiteSpace=wrap;html=1;align=center;fontStyle=4;fillColor=#cce5ff;strokeColor=#36393d;fontSize=13;labelBorderColor=none;textShadow=0;" parent="1" vertex="1">
          <mxGeometry x="700" y="390" width="100" height="40" as="geometry" />
        </mxCell>
        <mxCell id="DWwsRA3n9qqmaE4OlVu3-166" value="" style="endArrow=none;html=1;rounded=0;exitX=0.5;exitY=0;exitDx=0;exitDy=0;fontSize=13;fontStyle=0;labelBorderColor=none;textShadow=0;" parent="1" source="DWwsRA3n9qqmaE4OlVu3-165" edge="1">
          <mxGeometry relative="1" as="geometry">
            <mxPoint x="1020" y="350" as="sourcePoint" />
            <mxPoint x="750" y="370" as="targetPoint" />
          </mxGeometry>
        </mxCell>
        <mxCell id="DWwsRA3n9qqmaE4OlVu3-167" value="" style="endArrow=none;html=1;rounded=0;exitX=0.5;exitY=0;exitDx=0;exitDy=0;fontSize=13;fontStyle=0;labelBorderColor=none;textShadow=0;" parent="1" source="DWwsRA3n9qqmaE4OlVu3-164" edge="1">
          <mxGeometry relative="1" as="geometry">
            <mxPoint x="1020" y="350" as="sourcePoint" />
            <mxPoint x="870" y="370" as="targetPoint" />
          </mxGeometry>
        </mxCell>
        <mxCell id="DWwsRA3n9qqmaE4OlVu3-168" value="" style="endArrow=none;html=1;rounded=0;exitX=0.5;exitY=0;exitDx=0;exitDy=0;fontSize=13;fontStyle=0;labelBorderColor=none;textShadow=0;" parent="1" source="DWwsRA3n9qqmaE4OlVu3-163" edge="1">
          <mxGeometry relative="1" as="geometry">
            <mxPoint x="1020" y="350" as="sourcePoint" />
            <mxPoint x="990" y="370" as="targetPoint" />
          </mxGeometry>
        </mxCell>
        <mxCell id="DWwsRA3n9qqmaE4OlVu3-169" value="msg-date" style="ellipse;whiteSpace=wrap;html=1;align=center;fillColor=#cce5ff;strokeColor=#36393d;fontSize=13;fontStyle=0;labelBorderColor=none;textShadow=0;" parent="1" vertex="1">
          <mxGeometry x="1247" y="410" width="100" height="40" as="geometry" />
        </mxCell>
        <mxCell id="DWwsRA3n9qqmaE4OlVu3-170" value="day" style="ellipse;whiteSpace=wrap;html=1;align=center;fillColor=#cce5ff;strokeColor=#36393d;fontSize=13;fontStyle=0;labelBorderColor=none;textShadow=0;" parent="1" vertex="1">
          <mxGeometry x="1355" y="490" width="100" height="40" as="geometry" />
        </mxCell>
        <mxCell id="DWwsRA3n9qqmaE4OlVu3-171" value="month" style="ellipse;whiteSpace=wrap;html=1;align=center;fillColor=#cce5ff;strokeColor=#36393d;fontSize=13;fontStyle=0;labelBorderColor=none;textShadow=0;" parent="1" vertex="1">
          <mxGeometry x="1255" y="490" width="100" height="40" as="geometry" />
        </mxCell>
        <mxCell id="DWwsRA3n9qqmaE4OlVu3-172" value="year" style="ellipse;whiteSpace=wrap;html=1;align=center;fillColor=#cce5ff;strokeColor=#36393d;fontSize=13;fontStyle=0;labelBorderColor=none;textShadow=0;" parent="1" vertex="1">
          <mxGeometry x="1155" y="490" width="100" height="40" as="geometry" />
        </mxCell>
        <mxCell id="DWwsRA3n9qqmaE4OlVu3-173" value="" style="endArrow=none;html=1;rounded=0;exitX=1;exitY=0;exitDx=0;exitDy=0;entryX=0;entryY=1;entryDx=0;entryDy=0;fontSize=13;fontStyle=0;labelBorderColor=none;textShadow=0;" parent="1" source="DWwsRA3n9qqmaE4OlVu3-172" target="DWwsRA3n9qqmaE4OlVu3-169" edge="1">
          <mxGeometry relative="1" as="geometry">
            <mxPoint x="1055" y="560" as="sourcePoint" />
            <mxPoint x="1215" y="560" as="targetPoint" />
          </mxGeometry>
        </mxCell>
        <mxCell id="DWwsRA3n9qqmaE4OlVu3-174" value="" style="endArrow=none;html=1;rounded=0;exitX=0.45;exitY=-0.038;exitDx=0;exitDy=0;entryX=0.5;entryY=1;entryDx=0;entryDy=0;exitPerimeter=0;fontSize=13;fontStyle=0;labelBorderColor=none;textShadow=0;" parent="1" source="DWwsRA3n9qqmaE4OlVu3-171" target="DWwsRA3n9qqmaE4OlVu3-169" edge="1">
          <mxGeometry relative="1" as="geometry">
            <mxPoint x="1055" y="560" as="sourcePoint" />
            <mxPoint x="1215" y="560" as="targetPoint" />
          </mxGeometry>
        </mxCell>
        <mxCell id="DWwsRA3n9qqmaE4OlVu3-175" value="" style="endArrow=none;html=1;rounded=0;exitX=0;exitY=0;exitDx=0;exitDy=0;entryX=1;entryY=1;entryDx=0;entryDy=0;fontSize=13;fontStyle=0;labelBorderColor=none;textShadow=0;" parent="1" source="DWwsRA3n9qqmaE4OlVu3-170" target="DWwsRA3n9qqmaE4OlVu3-169" edge="1">
          <mxGeometry relative="1" as="geometry">
            <mxPoint x="1425" y="510" as="sourcePoint" />
            <mxPoint x="1215" y="560" as="targetPoint" />
          </mxGeometry>
        </mxCell>
        <mxCell id="DWwsRA3n9qqmaE4OlVu3-176" value="" style="endArrow=none;html=1;rounded=0;exitX=1;exitY=1;exitDx=0;exitDy=0;entryX=0;entryY=0;entryDx=0;entryDy=0;fontSize=13;fontStyle=0;labelBorderColor=none;textShadow=0;" parent="1" source="DWwsRA3n9qqmaE4OlVu3-94" target="DWwsRA3n9qqmaE4OlVu3-169" edge="1">
          <mxGeometry relative="1" as="geometry">
            <mxPoint x="1080" y="380" as="sourcePoint" />
            <mxPoint x="1240" y="380" as="targetPoint" />
          </mxGeometry>
        </mxCell>
        <mxCell id="DWwsRA3n9qqmaE4OlVu3-177" value="is_once_seen&amp;nbsp;" style="ellipse;whiteSpace=wrap;html=1;align=center;fillColor=#cce5ff;strokeColor=#36393d;fontSize=13;fontStyle=0;labelBorderColor=none;textShadow=0;" parent="1" vertex="1">
          <mxGeometry x="940" y="290" width="100" height="40" as="geometry" />
        </mxCell>
        <mxCell id="DWwsRA3n9qqmaE4OlVu3-178" value="timed" style="ellipse;whiteSpace=wrap;html=1;align=center;fillColor=#cce5ff;strokeColor=#36393d;fontSize=13;fontStyle=0;labelBorderColor=none;textShadow=0;" parent="1" vertex="1">
          <mxGeometry x="820" y="290" width="100" height="40" as="geometry" />
        </mxCell>
        <mxCell id="DWwsRA3n9qqmaE4OlVu3-180" value="" style="endArrow=none;html=1;rounded=0;fontSize=13;fontStyle=0;labelBorderColor=none;textShadow=0;" parent="1" edge="1">
          <mxGeometry relative="1" as="geometry">
            <mxPoint x="870" y="340" as="sourcePoint" />
            <mxPoint x="1090" y="340" as="targetPoint" />
          </mxGeometry>
        </mxCell>
        <mxCell id="DWwsRA3n9qqmaE4OlVu3-181" value="" style="endArrow=none;html=1;rounded=0;exitX=0.5;exitY=1;exitDx=0;exitDy=0;fontSize=13;fontStyle=0;labelBorderColor=none;textShadow=0;" parent="1" source="DWwsRA3n9qqmaE4OlVu3-178" edge="1">
          <mxGeometry relative="1" as="geometry">
            <mxPoint x="670" y="400" as="sourcePoint" />
            <mxPoint x="870" y="340" as="targetPoint" />
          </mxGeometry>
        </mxCell>
        <mxCell id="DWwsRA3n9qqmaE4OlVu3-183" value="" style="endArrow=none;html=1;rounded=0;exitX=0.5;exitY=1;exitDx=0;exitDy=0;fontSize=13;fontStyle=0;labelBorderColor=none;textShadow=0;" parent="1" edge="1">
          <mxGeometry relative="1" as="geometry">
            <mxPoint x="990" y="330" as="sourcePoint" />
            <mxPoint x="990" y="340" as="targetPoint" />
          </mxGeometry>
        </mxCell>
        <mxCell id="DWwsRA3n9qqmaE4OlVu3-184" value="" style="endArrow=none;html=1;rounded=0;fontSize=13;fontStyle=0;labelBorderColor=none;textShadow=0;" parent="1" edge="1">
          <mxGeometry relative="1" as="geometry">
            <mxPoint x="750" y="370" as="sourcePoint" />
            <mxPoint x="1090" y="370" as="targetPoint" />
          </mxGeometry>
        </mxCell>
        <mxCell id="DWwsRA3n9qqmaE4OlVu3-185" value="Save" style="shape=rhombus;perimeter=rhombusPerimeter;whiteSpace=wrap;html=1;align=center;fillColor=#ffcccc;strokeColor=#36393d;fontSize=13;fontStyle=0;labelBorderColor=none;textShadow=0;" parent="1" vertex="1">
          <mxGeometry x="155" y="320" width="120" height="60" as="geometry" />
        </mxCell>
        <mxCell id="DWwsRA3n9qqmaE4OlVu3-188" value="Storage" style="whiteSpace=wrap;html=1;align=center;fillColor=#cdeb8b;strokeColor=#36393d;fontSize=13;fontStyle=0;labelBorderColor=none;textShadow=0;" parent="1" vertex="1">
          <mxGeometry y="330" width="100" height="40" as="geometry" />
        </mxCell>
        <mxCell id="DWwsRA3n9qqmaE4OlVu3-190" value="cache" style="ellipse;whiteSpace=wrap;html=1;align=center;fillColor=#cce5ff;strokeColor=#36393d;fontSize=13;fontStyle=0;labelBorderColor=none;textShadow=0;" parent="1" vertex="1">
          <mxGeometry x="-110" y="370" width="100" height="40" as="geometry" />
        </mxCell>
        <mxCell id="DWwsRA3n9qqmaE4OlVu3-191" value="limit" style="ellipse;whiteSpace=wrap;html=1;align=center;fillColor=#cce5ff;strokeColor=#36393d;fontSize=13;fontStyle=0;labelBorderColor=none;textShadow=0;" parent="1" vertex="1">
          <mxGeometry x="20" y="450" width="100" height="40" as="geometry" />
        </mxCell>
        <mxCell id="DWwsRA3n9qqmaE4OlVu3-192" value="type" style="ellipse;whiteSpace=wrap;html=1;align=center;fillColor=#cce5ff;strokeColor=#36393d;fontSize=13;fontStyle=0;labelBorderColor=none;textShadow=0;" parent="1" vertex="1">
          <mxGeometry x="90" y="400" width="100" height="40" as="geometry" />
        </mxCell>
        <mxCell id="DWwsRA3n9qqmaE4OlVu3-193" value="remove_time" style="ellipse;whiteSpace=wrap;html=1;align=center;fillColor=#cce5ff;strokeColor=#36393d;fontSize=13;fontStyle=0;labelBorderColor=none;textShadow=0;" parent="1" vertex="1">
          <mxGeometry x="-120" y="320" width="100" height="40" as="geometry" />
        </mxCell>
        <mxCell id="DWwsRA3n9qqmaE4OlVu3-196" value="" style="endArrow=none;html=1;rounded=0;exitX=0.75;exitY=1;exitDx=0;exitDy=0;entryX=0.5;entryY=0;entryDx=0;entryDy=0;fontSize=13;fontStyle=0;labelBorderColor=none;textShadow=0;" parent="1" source="DWwsRA3n9qqmaE4OlVu3-188" target="DWwsRA3n9qqmaE4OlVu3-192" edge="1">
          <mxGeometry relative="1" as="geometry">
            <mxPoint x="150" y="460" as="sourcePoint" />
            <mxPoint x="310" y="460" as="targetPoint" />
          </mxGeometry>
        </mxCell>
        <mxCell id="DWwsRA3n9qqmaE4OlVu3-197" value="" style="endArrow=none;html=1;rounded=0;exitX=0.5;exitY=1;exitDx=0;exitDy=0;entryX=0.5;entryY=0;entryDx=0;entryDy=0;fontSize=13;fontStyle=0;labelBorderColor=none;textShadow=0;" parent="1" source="DWwsRA3n9qqmaE4OlVu3-188" target="DWwsRA3n9qqmaE4OlVu3-191" edge="1">
          <mxGeometry relative="1" as="geometry">
            <mxPoint x="150" y="460" as="sourcePoint" />
            <mxPoint x="310" y="460" as="targetPoint" />
          </mxGeometry>
        </mxCell>
        <mxCell id="DWwsRA3n9qqmaE4OlVu3-198" value="" style="endArrow=none;html=1;rounded=0;exitX=1;exitY=0;exitDx=0;exitDy=0;entryX=0;entryY=0.75;entryDx=0;entryDy=0;fontSize=13;fontStyle=0;labelBorderColor=none;textShadow=0;" parent="1" source="DWwsRA3n9qqmaE4OlVu3-190" target="DWwsRA3n9qqmaE4OlVu3-188" edge="1">
          <mxGeometry relative="1" as="geometry">
            <mxPoint x="150" y="460" as="sourcePoint" />
            <mxPoint x="310" y="460" as="targetPoint" />
          </mxGeometry>
        </mxCell>
        <mxCell id="DWwsRA3n9qqmaE4OlVu3-199" value="" style="endArrow=none;html=1;rounded=0;exitX=1.001;exitY=0.718;exitDx=0;exitDy=0;exitPerimeter=0;entryX=0;entryY=0.25;entryDx=0;entryDy=0;fontSize=13;fontStyle=0;labelBorderColor=none;textShadow=0;" parent="1" source="DWwsRA3n9qqmaE4OlVu3-193" target="DWwsRA3n9qqmaE4OlVu3-188" edge="1">
          <mxGeometry relative="1" as="geometry">
            <mxPoint x="150" y="460" as="sourcePoint" />
            <mxPoint x="310" y="460" as="targetPoint" />
          </mxGeometry>
        </mxCell>
        <mxCell id="DWwsRA3n9qqmaE4OlVu3-201" value="Folders" style="whiteSpace=wrap;html=1;align=center;fillColor=#cdeb8b;strokeColor=#36393d;fontSize=13;fontStyle=0;labelBorderColor=none;textShadow=0;" parent="1" vertex="1">
          <mxGeometry x="-460" y="-260" width="100" height="40" as="geometry" />
        </mxCell>
        <mxCell id="DWwsRA3n9qqmaE4OlVu3-202" value="manage" style="shape=rhombus;perimeter=rhombusPerimeter;whiteSpace=wrap;html=1;align=center;fillColor=#ffcccc;strokeColor=#36393d;fontSize=13;fontStyle=0;labelBorderColor=none;textShadow=0;" parent="1" vertex="1">
          <mxGeometry x="610" y="-295" width="120" height="60" as="geometry" />
        </mxCell>
        <mxCell id="DWwsRA3n9qqmaE4OlVu3-206" value="Has" style="shape=rhombus;perimeter=rhombusPerimeter;whiteSpace=wrap;html=1;align=center;fillColor=#ffcccc;strokeColor=#36393d;fontSize=13;fontStyle=0;labelBorderColor=none;textShadow=0;" parent="1" vertex="1">
          <mxGeometry x="-210" y="-270" width="120" height="60" as="geometry" />
        </mxCell>
        <mxCell id="DWwsRA3n9qqmaE4OlVu3-214" value="is_pinned" style="ellipse;whiteSpace=wrap;html=1;align=center;fillColor=#cce5ff;strokeColor=#36393d;fontSize=13;fontStyle=0;labelBorderColor=none;textShadow=0;" parent="1" vertex="1">
          <mxGeometry x="990" y="480" width="100" height="40" as="geometry" />
        </mxCell>
        <mxCell id="DWwsRA3n9qqmaE4OlVu3-215" value="" style="endArrow=none;html=1;rounded=0;exitX=0.5;exitY=0;exitDx=0;exitDy=0;entryX=0.25;entryY=1;entryDx=0;entryDy=0;fontSize=13;fontStyle=0;labelBorderColor=none;textShadow=0;" parent="1" source="DWwsRA3n9qqmaE4OlVu3-214" target="DWwsRA3n9qqmaE4OlVu3-94" edge="1">
          <mxGeometry relative="1" as="geometry">
            <mxPoint x="910" y="380" as="sourcePoint" />
            <mxPoint x="1070" y="380" as="targetPoint" />
          </mxGeometry>
        </mxCell>
        <mxCell id="DWwsRA3n9qqmaE4OlVu3-217" value="Premium" style="whiteSpace=wrap;html=1;align=center;fillColor=#cdeb8b;strokeColor=#36393d;fontSize=13;fontStyle=0;labelBorderColor=none;textShadow=0;" parent="1" vertex="1">
          <mxGeometry x="-370" y="160" width="100" height="40" as="geometry" />
        </mxCell>
        <mxCell id="DWwsRA3n9qqmaE4OlVu3-218" value="Pay" style="shape=rhombus;perimeter=rhombusPerimeter;whiteSpace=wrap;html=1;align=center;fillColor=#ffcccc;strokeColor=#36393d;fontSize=13;fontStyle=0;labelBorderColor=none;textShadow=0;" parent="1" vertex="1">
          <mxGeometry x="-110" y="150" width="120" height="60" as="geometry" />
        </mxCell>
        <mxCell id="DWwsRA3n9qqmaE4OlVu3-222" value="amount" style="ellipse;whiteSpace=wrap;html=1;align=center;fillColor=#cce5ff;strokeColor=#36393d;fontSize=13;fontStyle=0;labelBorderColor=none;textShadow=0;" parent="1" vertex="1">
          <mxGeometry x="-510" y="240" width="100" height="40" as="geometry" />
        </mxCell>
        <mxCell id="DWwsRA3n9qqmaE4OlVu3-223" value="user_id" style="ellipse;whiteSpace=wrap;html=1;align=center;fillColor=#cce5ff;strokeColor=#36393d;fontSize=13;fontStyle=0;labelBorderColor=none;textShadow=0;" parent="1" vertex="1">
          <mxGeometry x="-490" y="80" width="100" height="40" as="geometry" />
        </mxCell>
        <mxCell id="DWwsRA3n9qqmaE4OlVu3-224" value="pay_id" style="ellipse;whiteSpace=wrap;html=1;align=center;fontStyle=4;fillColor=#cce5ff;strokeColor=#36393d;fontSize=13;labelBorderColor=none;textShadow=0;" parent="1" vertex="1">
          <mxGeometry x="-510" y="160" width="100" height="40" as="geometry" />
        </mxCell>
        <mxCell id="DWwsRA3n9qqmaE4OlVu3-225" value="start_date" style="ellipse;whiteSpace=wrap;html=1;align=center;fillColor=#cce5ff;strokeColor=#36393d;fontSize=13;fontStyle=0;labelBorderColor=none;textShadow=0;" parent="1" vertex="1">
          <mxGeometry x="-370" y="80" width="100" height="40" as="geometry" />
        </mxCell>
        <mxCell id="DWwsRA3n9qqmaE4OlVu3-226" value="day" style="ellipse;whiteSpace=wrap;html=1;align=center;fillColor=#cce5ff;strokeColor=#36393d;fontSize=13;fontStyle=0;labelBorderColor=none;textShadow=0;" parent="1" vertex="1">
          <mxGeometry x="-260" y="-20" width="100" height="40" as="geometry" />
        </mxCell>
        <mxCell id="DWwsRA3n9qqmaE4OlVu3-227" value="month" style="ellipse;whiteSpace=wrap;html=1;align=center;fillColor=#cce5ff;strokeColor=#36393d;fontSize=13;fontStyle=0;labelBorderColor=none;textShadow=0;" parent="1" vertex="1">
          <mxGeometry x="-370" y="-20" width="100" height="40" as="geometry" />
        </mxCell>
        <mxCell id="DWwsRA3n9qqmaE4OlVu3-228" value="year" style="ellipse;whiteSpace=wrap;html=1;align=center;fillColor=#cce5ff;strokeColor=#36393d;fontSize=13;fontStyle=0;labelBorderColor=none;textShadow=0;" parent="1" vertex="1">
          <mxGeometry x="-480" y="-20" width="100" height="40" as="geometry" />
        </mxCell>
        <mxCell id="DWwsRA3n9qqmaE4OlVu3-229" value="" style="endArrow=none;html=1;rounded=0;exitX=1;exitY=1;exitDx=0;exitDy=0;entryX=0;entryY=0;entryDx=0;entryDy=0;fontSize=13;fontStyle=0;labelBorderColor=none;textShadow=0;" parent="1" source="DWwsRA3n9qqmaE4OlVu3-228" target="DWwsRA3n9qqmaE4OlVu3-225" edge="1">
          <mxGeometry relative="1" as="geometry">
            <mxPoint x="-580" y="120" as="sourcePoint" />
            <mxPoint x="-420" y="120" as="targetPoint" />
          </mxGeometry>
        </mxCell>
        <mxCell id="DWwsRA3n9qqmaE4OlVu3-230" value="" style="endArrow=none;html=1;rounded=0;exitX=0.5;exitY=1;exitDx=0;exitDy=0;entryX=0.5;entryY=0;entryDx=0;entryDy=0;fontSize=13;fontStyle=0;labelBorderColor=none;textShadow=0;" parent="1" source="DWwsRA3n9qqmaE4OlVu3-227" target="DWwsRA3n9qqmaE4OlVu3-225" edge="1">
          <mxGeometry relative="1" as="geometry">
            <mxPoint x="-580" y="120" as="sourcePoint" />
            <mxPoint x="-420" y="120" as="targetPoint" />
          </mxGeometry>
        </mxCell>
        <mxCell id="DWwsRA3n9qqmaE4OlVu3-231" value="" style="endArrow=none;html=1;rounded=0;exitX=0;exitY=1;exitDx=0;exitDy=0;entryX=1;entryY=0;entryDx=0;entryDy=0;fontSize=13;fontStyle=0;labelBorderColor=none;textShadow=0;" parent="1" source="DWwsRA3n9qqmaE4OlVu3-226" target="DWwsRA3n9qqmaE4OlVu3-225" edge="1">
          <mxGeometry relative="1" as="geometry">
            <mxPoint x="-210" y="70" as="sourcePoint" />
            <mxPoint x="-420" y="120" as="targetPoint" />
          </mxGeometry>
        </mxCell>
        <mxCell id="DWwsRA3n9qqmaE4OlVu3-239" value="" style="resizable=0;html=1;whiteSpace=wrap;align=right;verticalAlign=bottom;fontSize=13;fontStyle=0;labelBorderColor=none;textShadow=0;" parent="1" connectable="0" vertex="1">
          <mxGeometry x="-500" y="400.00000000000045" as="geometry" />
        </mxCell>
        <mxCell id="DWwsRA3n9qqmaE4OlVu3-240" value="expire_date" style="ellipse;whiteSpace=wrap;html=1;align=center;fillColor=#cce5ff;strokeColor=#36393d;fontSize=13;fontStyle=0;labelBorderColor=none;textShadow=0;" parent="1" vertex="1">
          <mxGeometry x="-395" y="280" width="100" height="40" as="geometry" />
        </mxCell>
        <mxCell id="DWwsRA3n9qqmaE4OlVu3-241" value="day" style="ellipse;whiteSpace=wrap;html=1;align=center;fillColor=#cce5ff;strokeColor=#36393d;fontSize=13;fontStyle=0;labelBorderColor=none;textShadow=0;" parent="1" vertex="1">
          <mxGeometry x="-285" y="360" width="100" height="40" as="geometry" />
        </mxCell>
        <mxCell id="DWwsRA3n9qqmaE4OlVu3-242" value="month" style="ellipse;whiteSpace=wrap;html=1;align=center;fillColor=#cce5ff;strokeColor=#36393d;fontSize=13;fontStyle=0;labelBorderColor=none;textShadow=0;" parent="1" vertex="1">
          <mxGeometry x="-385" y="360" width="100" height="40" as="geometry" />
        </mxCell>
        <mxCell id="DWwsRA3n9qqmaE4OlVu3-243" value="year" style="ellipse;whiteSpace=wrap;html=1;align=center;fillColor=#cce5ff;strokeColor=#36393d;fontSize=13;fontStyle=0;labelBorderColor=none;textShadow=0;" parent="1" vertex="1">
          <mxGeometry x="-485" y="360" width="100" height="40" as="geometry" />
        </mxCell>
        <mxCell id="DWwsRA3n9qqmaE4OlVu3-244" value="" style="endArrow=none;html=1;rounded=0;exitX=1;exitY=0;exitDx=0;exitDy=0;entryX=0;entryY=1;entryDx=0;entryDy=0;fontSize=13;fontStyle=0;labelBorderColor=none;textShadow=0;" parent="1" source="DWwsRA3n9qqmaE4OlVu3-243" target="DWwsRA3n9qqmaE4OlVu3-240" edge="1">
          <mxGeometry relative="1" as="geometry">
            <mxPoint x="-585" y="430" as="sourcePoint" />
            <mxPoint x="-425" y="430" as="targetPoint" />
          </mxGeometry>
        </mxCell>
        <mxCell id="DWwsRA3n9qqmaE4OlVu3-245" value="" style="endArrow=none;html=1;rounded=0;exitX=0.45;exitY=-0.038;exitDx=0;exitDy=0;entryX=0.5;entryY=1;entryDx=0;entryDy=0;exitPerimeter=0;fontSize=13;fontStyle=0;labelBorderColor=none;textShadow=0;" parent="1" source="DWwsRA3n9qqmaE4OlVu3-242" target="DWwsRA3n9qqmaE4OlVu3-240" edge="1">
          <mxGeometry relative="1" as="geometry">
            <mxPoint x="-585" y="430" as="sourcePoint" />
            <mxPoint x="-425" y="430" as="targetPoint" />
          </mxGeometry>
        </mxCell>
        <mxCell id="DWwsRA3n9qqmaE4OlVu3-246" value="" style="endArrow=none;html=1;rounded=0;exitX=0;exitY=0;exitDx=0;exitDy=0;entryX=1;entryY=1;entryDx=0;entryDy=0;fontSize=13;fontStyle=0;labelBorderColor=none;textShadow=0;" parent="1" source="DWwsRA3n9qqmaE4OlVu3-241" target="DWwsRA3n9qqmaE4OlVu3-240" edge="1">
          <mxGeometry relative="1" as="geometry">
            <mxPoint x="-215" y="380" as="sourcePoint" />
            <mxPoint x="-425" y="430" as="targetPoint" />
          </mxGeometry>
        </mxCell>
        <mxCell id="DWwsRA3n9qqmaE4OlVu3-247" value="" style="endArrow=none;html=1;rounded=0;exitX=0.5;exitY=1;exitDx=0;exitDy=0;entryX=0.5;entryY=0;entryDx=0;entryDy=0;fontSize=13;fontStyle=0;labelBorderColor=none;textShadow=0;" parent="1" source="DWwsRA3n9qqmaE4OlVu3-217" target="DWwsRA3n9qqmaE4OlVu3-240" edge="1">
          <mxGeometry relative="1" as="geometry">
            <mxPoint x="-390" y="340" as="sourcePoint" />
            <mxPoint x="-230" y="340" as="targetPoint" />
          </mxGeometry>
        </mxCell>
        <mxCell id="DWwsRA3n9qqmaE4OlVu3-248" value="" style="endArrow=none;html=1;rounded=0;exitX=1;exitY=0;exitDx=0;exitDy=0;entryX=0;entryY=1;entryDx=0;entryDy=0;fontSize=13;fontStyle=0;labelBorderColor=none;textShadow=0;" parent="1" source="DWwsRA3n9qqmaE4OlVu3-222" target="DWwsRA3n9qqmaE4OlVu3-217" edge="1">
          <mxGeometry relative="1" as="geometry">
            <mxPoint x="-390" y="340" as="sourcePoint" />
            <mxPoint x="-230" y="340" as="targetPoint" />
          </mxGeometry>
        </mxCell>
        <mxCell id="DWwsRA3n9qqmaE4OlVu3-249" value="" style="endArrow=none;html=1;rounded=0;exitX=1;exitY=0.5;exitDx=0;exitDy=0;entryX=0;entryY=0.5;entryDx=0;entryDy=0;fontSize=13;fontStyle=0;labelBorderColor=none;textShadow=0;" parent="1" source="DWwsRA3n9qqmaE4OlVu3-224" target="DWwsRA3n9qqmaE4OlVu3-217" edge="1">
          <mxGeometry relative="1" as="geometry">
            <mxPoint x="-390" y="340" as="sourcePoint" />
            <mxPoint x="-230" y="340" as="targetPoint" />
          </mxGeometry>
        </mxCell>
        <mxCell id="DWwsRA3n9qqmaE4OlVu3-250" value="" style="endArrow=none;html=1;rounded=0;exitX=1;exitY=1;exitDx=0;exitDy=0;entryX=0;entryY=0;entryDx=0;entryDy=0;fontSize=13;fontStyle=0;labelBorderColor=none;textShadow=0;" parent="1" source="DWwsRA3n9qqmaE4OlVu3-223" target="DWwsRA3n9qqmaE4OlVu3-217" edge="1">
          <mxGeometry relative="1" as="geometry">
            <mxPoint x="-390" y="300" as="sourcePoint" />
            <mxPoint x="-230" y="300" as="targetPoint" />
          </mxGeometry>
        </mxCell>
        <mxCell id="DWwsRA3n9qqmaE4OlVu3-251" value="" style="endArrow=none;html=1;rounded=0;exitX=0.5;exitY=1;exitDx=0;exitDy=0;entryX=0.5;entryY=0;entryDx=0;entryDy=0;fontSize=13;fontStyle=0;labelBorderColor=none;textShadow=0;" parent="1" source="DWwsRA3n9qqmaE4OlVu3-225" target="DWwsRA3n9qqmaE4OlVu3-217" edge="1">
          <mxGeometry relative="1" as="geometry">
            <mxPoint x="-380" y="300" as="sourcePoint" />
            <mxPoint x="-220" y="300" as="targetPoint" />
          </mxGeometry>
        </mxCell>
        <mxCell id="DWwsRA3n9qqmaE4OlVu3-252" value="" style="endArrow=none;html=1;rounded=0;exitX=1;exitY=0;exitDx=0;exitDy=0;entryX=0;entryY=1;entryDx=0;entryDy=0;fontSize=13;fontStyle=0;labelBorderColor=none;textShadow=0;" parent="1" source="DWwsRA3n9qqmaE4OlVu3-217" target="CrQmq970yaaDrKnqdUMQ-21" edge="1">
          <mxGeometry relative="1" as="geometry">
            <mxPoint x="-380" y="300" as="sourcePoint" />
            <mxPoint x="-235.14552060382766" y="114.22556786345399" as="targetPoint" />
          </mxGeometry>
        </mxCell>
        <mxCell id="DWwsRA3n9qqmaE4OlVu3-253" value="method" style="ellipse;whiteSpace=wrap;html=1;align=center;fillColor=#cce5ff;strokeColor=#36393d;fontSize=13;fontStyle=0;labelBorderColor=none;textShadow=0;" parent="1" vertex="1">
          <mxGeometry x="-295" y="240" width="100" height="40" as="geometry" />
        </mxCell>
        <mxCell id="DWwsRA3n9qqmaE4OlVu3-254" value="" style="endArrow=none;html=1;rounded=0;exitX=1;exitY=1;exitDx=0;exitDy=0;entryX=0.5;entryY=0;entryDx=0;entryDy=0;fontSize=13;fontStyle=0;labelBorderColor=none;textShadow=0;" parent="1" source="DWwsRA3n9qqmaE4OlVu3-217" target="DWwsRA3n9qqmaE4OlVu3-253" edge="1">
          <mxGeometry relative="1" as="geometry">
            <mxPoint x="-380" y="300" as="sourcePoint" />
            <mxPoint x="-220" y="300" as="targetPoint" />
          </mxGeometry>
        </mxCell>
        <mxCell id="WTfuxV2dFYM7REvjqLjO-1" value="membership" style="shape=rhombus;perimeter=rhombusPerimeter;whiteSpace=wrap;html=1;align=center;fillColor=#ffcccc;strokeColor=#36393d;fontSize=13;fontStyle=0;labelBorderColor=none;textShadow=0;" parent="1" vertex="1">
          <mxGeometry x="470" y="-295" width="120" height="60" as="geometry" />
        </mxCell>
        <mxCell id="WTfuxV2dFYM7REvjqLjO-3" value="" style="endArrow=none;html=1;rounded=0;entryX=0.5;entryY=0;entryDx=0;entryDy=0;fontSize=13;fontStyle=0;labelBorderColor=none;textShadow=0;" parent="1" target="WTfuxV2dFYM7REvjqLjO-1" edge="1">
          <mxGeometry relative="1" as="geometry">
            <mxPoint x="530" y="-470" as="sourcePoint" />
            <mxPoint x="870" y="-290" as="targetPoint" />
          </mxGeometry>
        </mxCell>
        <mxCell id="WTfuxV2dFYM7REvjqLjO-5" value="Create" style="shape=rhombus;perimeter=rhombusPerimeter;whiteSpace=wrap;html=1;align=center;fillColor=#ffcccc;strokeColor=#36393d;fontSize=13;fontStyle=0;labelBorderColor=none;textShadow=0;" parent="1" vertex="1">
          <mxGeometry x="740" y="-295" width="120" height="60" as="geometry" />
        </mxCell>
        <mxCell id="WTfuxV2dFYM7REvjqLjO-9" value="" style="endArrow=none;html=1;rounded=0;entryX=0.5;entryY=0;entryDx=0;entryDy=0;fontSize=13;fontStyle=0;labelBorderColor=none;textShadow=0;" parent="1" target="WTfuxV2dFYM7REvjqLjO-5" edge="1">
          <mxGeometry relative="1" as="geometry">
            <mxPoint x="800" y="-530" as="sourcePoint" />
            <mxPoint x="738.5699999999999" y="-290" as="targetPoint" />
          </mxGeometry>
        </mxCell>
        <mxCell id="WTfuxV2dFYM7REvjqLjO-14" value="" style="endArrow=none;html=1;rounded=0;entryX=0.5;entryY=0;entryDx=0;entryDy=0;fontSize=13;fontStyle=0;labelBorderColor=none;textShadow=0;" parent="1" edge="1">
          <mxGeometry relative="1" as="geometry">
            <mxPoint x="670" y="-490" as="sourcePoint" />
            <mxPoint x="670" y="-295" as="targetPoint" />
          </mxGeometry>
        </mxCell>
        <mxCell id="CrQmq970yaaDrKnqdUMQ-4" value="name" style="ellipse;whiteSpace=wrap;html=1;align=center;fillColor=#cce5ff;strokeColor=#36393d;fontSize=13;fontStyle=0;labelBorderColor=none;textShadow=0;" parent="1" vertex="1">
          <mxGeometry x="-510" y="-340" width="100" height="40" as="geometry" />
        </mxCell>
        <mxCell id="CrQmq970yaaDrKnqdUMQ-5" value="notif_number" style="ellipse;whiteSpace=wrap;html=1;align=center;fillColor=#cce5ff;strokeColor=#36393d;fontSize=13;fontStyle=0;labelBorderColor=none;textShadow=0;" parent="1" vertex="1">
          <mxGeometry x="-360" y="-189.5" width="100" height="40" as="geometry" />
        </mxCell>
        <mxCell id="CrQmq970yaaDrKnqdUMQ-6" value="icon" style="ellipse;whiteSpace=wrap;html=1;align=center;fillColor=#cce5ff;strokeColor=#36393d;fontSize=13;fontStyle=0;labelBorderColor=none;textShadow=0;" parent="1" vertex="1">
          <mxGeometry x="-510" y="-189.5" width="100" height="40" as="geometry" />
        </mxCell>
        <mxCell id="CrQmq970yaaDrKnqdUMQ-7" value="floder_id" style="ellipse;whiteSpace=wrap;html=1;align=center;fontStyle=4;fillColor=#cce5ff;strokeColor=#36393d;fontSize=13;labelBorderColor=none;textShadow=0;" parent="1" vertex="1">
          <mxGeometry x="-370" y="-340" width="100" height="40" as="geometry" />
        </mxCell>
        <mxCell id="CrQmq970yaaDrKnqdUMQ-8" value="" style="endArrow=none;html=1;rounded=0;exitX=1;exitY=1;exitDx=0;exitDy=0;entryX=0.5;entryY=0;entryDx=0;entryDy=0;fontSize=13;fontStyle=0;labelBorderColor=none;textShadow=0;" parent="1" source="DWwsRA3n9qqmaE4OlVu3-201" target="CrQmq970yaaDrKnqdUMQ-5" edge="1">
          <mxGeometry relative="1" as="geometry">
            <mxPoint x="-310" y="30" as="sourcePoint" />
            <mxPoint x="-320" y="90" as="targetPoint" />
          </mxGeometry>
        </mxCell>
        <mxCell id="CrQmq970yaaDrKnqdUMQ-9" value="" style="endArrow=none;html=1;rounded=0;exitX=0.5;exitY=1;exitDx=0;exitDy=0;entryX=0.5;entryY=0;entryDx=0;entryDy=0;fontSize=13;fontStyle=0;labelBorderColor=none;textShadow=0;" parent="1" source="DWwsRA3n9qqmaE4OlVu3-201" target="CrQmq970yaaDrKnqdUMQ-6" edge="1">
          <mxGeometry relative="1" as="geometry">
            <mxPoint x="-375" y="-210" as="sourcePoint" />
            <mxPoint x="-300" y="-179" as="targetPoint" />
          </mxGeometry>
        </mxCell>
        <mxCell id="CrQmq970yaaDrKnqdUMQ-10" value="" style="endArrow=none;html=1;rounded=0;exitX=0.5;exitY=0;exitDx=0;exitDy=0;entryX=0.5;entryY=1;entryDx=0;entryDy=0;fontSize=13;fontStyle=0;labelBorderColor=none;textShadow=0;" parent="1" source="DWwsRA3n9qqmaE4OlVu3-201" target="CrQmq970yaaDrKnqdUMQ-4" edge="1">
          <mxGeometry relative="1" as="geometry">
            <mxPoint x="-365" y="-200" as="sourcePoint" />
            <mxPoint x="-290" y="-169" as="targetPoint" />
          </mxGeometry>
        </mxCell>
        <mxCell id="CrQmq970yaaDrKnqdUMQ-11" value="" style="endArrow=none;html=1;rounded=0;exitX=1;exitY=0;exitDx=0;exitDy=0;entryX=0.5;entryY=1;entryDx=0;entryDy=0;fontSize=13;fontStyle=0;labelBorderColor=none;textShadow=0;" parent="1" source="DWwsRA3n9qqmaE4OlVu3-201" target="CrQmq970yaaDrKnqdUMQ-7" edge="1">
          <mxGeometry relative="1" as="geometry">
            <mxPoint x="-355" y="-190" as="sourcePoint" />
            <mxPoint x="-280" y="-159" as="targetPoint" />
          </mxGeometry>
        </mxCell>
        <mxCell id="CrQmq970yaaDrKnqdUMQ-14" value="name" style="ellipse;whiteSpace=wrap;html=1;align=center;fillColor=#cce5ff;strokeColor=#36393d;fontSize=13;fontStyle=0;labelBorderColor=none;textShadow=0;" parent="1" vertex="1">
          <mxGeometry x="1380" y="780" width="100" height="40" as="geometry" />
        </mxCell>
        <mxCell id="CrQmq970yaaDrKnqdUMQ-15" value="" style="endArrow=none;html=1;rounded=0;entryX=0.5;entryY=1;entryDx=0;entryDy=0;exitX=0.5;exitY=0;exitDx=0;exitDy=0;fontSize=13;fontStyle=0;labelBorderColor=none;textShadow=0;" parent="1" source="CrQmq970yaaDrKnqdUMQ-14" target="DWwsRA3n9qqmaE4OlVu3-116" edge="1">
          <mxGeometry relative="1" as="geometry">
            <mxPoint x="1270" y="790" as="sourcePoint" />
            <mxPoint x="1270" y="760" as="targetPoint" />
          </mxGeometry>
        </mxCell>
        <mxCell id="CrQmq970yaaDrKnqdUMQ-16" value="" style="endArrow=none;html=1;rounded=0;entryX=0.25;entryY=1;entryDx=0;entryDy=0;exitX=0.5;exitY=0;exitDx=0;exitDy=0;fontSize=13;fontStyle=0;labelBorderColor=none;textShadow=0;" parent="1" source="jRvsaUa9cUx2iDDj-W8V-34" target="DWwsRA3n9qqmaE4OlVu3-116" edge="1">
          <mxGeometry relative="1" as="geometry">
            <mxPoint x="1342.5" y="820" as="sourcePoint" />
            <mxPoint x="1455" y="760" as="targetPoint" />
          </mxGeometry>
        </mxCell>
        <mxCell id="CrQmq970yaaDrKnqdUMQ-17" value="quantity" style="ellipse;whiteSpace=wrap;html=1;align=center;fillColor=#cce5ff;strokeColor=#36393d;fontSize=13;fontStyle=0;labelBorderColor=none;textShadow=0;" parent="1" vertex="1">
          <mxGeometry x="1347.5" y="1000" width="100" height="40" as="geometry" />
        </mxCell>
        <mxCell id="CrQmq970yaaDrKnqdUMQ-18" value="percentage" style="ellipse;whiteSpace=wrap;html=1;align=center;dashed=1;fillColor=#cce5ff;strokeColor=#36393d;fontSize=13;fontStyle=0;labelBorderColor=none;textShadow=0;" parent="1" vertex="1">
          <mxGeometry x="1157.5" y="1000" width="100" height="40" as="geometry" />
        </mxCell>
        <mxCell id="CrQmq970yaaDrKnqdUMQ-19" value="" style="endArrow=none;html=1;rounded=0;entryX=0.5;entryY=0;entryDx=0;entryDy=0;fontSize=13;fontStyle=0;labelBorderColor=none;textShadow=0;exitX=0.25;exitY=1;exitDx=0;exitDy=0;" parent="1" source="jRvsaUa9cUx2iDDj-W8V-31" target="CrQmq970yaaDrKnqdUMQ-18" edge="1">
          <mxGeometry relative="1" as="geometry">
            <mxPoint x="1250" y="920" as="sourcePoint" />
            <mxPoint x="1405" y="760" as="targetPoint" />
          </mxGeometry>
        </mxCell>
        <mxCell id="CrQmq970yaaDrKnqdUMQ-20" value="" style="endArrow=none;html=1;rounded=0;entryX=0.5;entryY=0;entryDx=0;entryDy=0;fontSize=13;fontStyle=0;labelBorderColor=none;textShadow=0;exitX=0.75;exitY=1;exitDx=0;exitDy=0;" parent="1" source="jRvsaUa9cUx2iDDj-W8V-31" target="CrQmq970yaaDrKnqdUMQ-17" edge="1">
          <mxGeometry relative="1" as="geometry">
            <mxPoint x="1360" y="920" as="sourcePoint" />
            <mxPoint x="1415" y="770" as="targetPoint" />
          </mxGeometry>
        </mxCell>
        <mxCell id="CrQmq970yaaDrKnqdUMQ-21" value="duration" style="ellipse;whiteSpace=wrap;html=1;align=center;dashed=1;fillColor=#cce5ff;strokeColor=#36393d;fontSize=13;fontStyle=0;labelBorderColor=none;textShadow=0;" parent="1" vertex="1">
          <mxGeometry x="-250" y="80" width="100" height="40" as="geometry" />
        </mxCell>
        <mxCell id="CrQmq970yaaDrKnqdUMQ-23" value="title" style="ellipse;whiteSpace=wrap;html=1;align=center;fillColor=#cce5ff;strokeColor=#36393d;fontSize=13;fontStyle=0;labelBorderColor=none;textShadow=0;" parent="1" vertex="1">
          <mxGeometry x="1747.5" y="-2.75" width="100" height="40" as="geometry" />
        </mxCell>
        <mxCell id="CrQmq970yaaDrKnqdUMQ-25" value="" style="endArrow=none;html=1;rounded=0;exitX=1;exitY=0;exitDx=0;exitDy=0;entryX=0;entryY=0.5;entryDx=0;entryDy=0;fontSize=13;fontStyle=0;labelBorderColor=none;textShadow=0;" parent="1" source="DWwsRA3n9qqmaE4OlVu3-79" target="CrQmq970yaaDrKnqdUMQ-23" edge="1">
          <mxGeometry relative="1" as="geometry">
            <mxPoint x="1450" y="391.25" as="sourcePoint" />
            <mxPoint x="1375" y="447.25" as="targetPoint" />
          </mxGeometry>
        </mxCell>
        <mxCell id="CrQmq970yaaDrKnqdUMQ-26" value="" style="endArrow=none;html=1;rounded=0;exitX=0.75;exitY=0;exitDx=0;exitDy=0;fontSize=13;fontStyle=0;labelBorderColor=none;textShadow=0;" parent="1" source="DWwsRA3n9qqmaE4OlVu3-79" target="sVT_aw7DjIe-fD_PMOQF-38" edge="1">
          <mxGeometry relative="1" as="geometry">
            <mxPoint x="1630" y="97.25" as="sourcePoint" />
            <mxPoint x="1595.5" y="-32.75" as="targetPoint" />
          </mxGeometry>
        </mxCell>
        <mxCell id="CrQmq970yaaDrKnqdUMQ-28" value="link" style="ellipse;whiteSpace=wrap;html=1;align=center;fillColor=#cce5ff;strokeColor=#36393d;fontSize=13;fontStyle=0;labelBorderColor=none;textShadow=0;" parent="1" vertex="1">
          <mxGeometry x="1802.5" y="57.25" width="100" height="40" as="geometry" />
        </mxCell>
        <mxCell id="CrQmq970yaaDrKnqdUMQ-29" value="picture" style="ellipse;whiteSpace=wrap;html=1;align=center;fillColor=#cce5ff;strokeColor=#36393d;fontSize=13;fontStyle=0;labelBorderColor=none;textShadow=0;" parent="1" vertex="1">
          <mxGeometry x="1647.5" y="147.75" width="100" height="40" as="geometry" />
        </mxCell>
        <mxCell id="CrQmq970yaaDrKnqdUMQ-31" value="bot_id" style="ellipse;whiteSpace=wrap;html=1;align=center;fontStyle=4;fillColor=#cce5ff;strokeColor=#36393d;fontSize=13;labelBorderColor=none;textShadow=0;" parent="1" vertex="1">
          <mxGeometry x="1537.5" y="157.25" width="100" height="40" as="geometry" />
        </mxCell>
        <mxCell id="CrQmq970yaaDrKnqdUMQ-32" value="" style="endArrow=none;html=1;rounded=0;exitX=1;exitY=0.5;exitDx=0;exitDy=0;entryX=0;entryY=0;entryDx=0;entryDy=0;fontSize=13;fontStyle=0;labelBorderColor=none;textShadow=0;" parent="1" source="DWwsRA3n9qqmaE4OlVu3-79" target="CrQmq970yaaDrKnqdUMQ-28" edge="1">
          <mxGeometry relative="1" as="geometry">
            <mxPoint x="1630" y="97.25" as="sourcePoint" />
            <mxPoint x="1745" y="77.25" as="targetPoint" />
          </mxGeometry>
        </mxCell>
        <mxCell id="CrQmq970yaaDrKnqdUMQ-33" value="" style="endArrow=none;html=1;rounded=0;exitX=1;exitY=1;exitDx=0;exitDy=0;entryX=0.5;entryY=0;entryDx=0;entryDy=0;fontSize=13;fontStyle=0;labelBorderColor=none;textShadow=0;" parent="1" source="DWwsRA3n9qqmaE4OlVu3-79" target="CrQmq970yaaDrKnqdUMQ-29" edge="1">
          <mxGeometry relative="1" as="geometry">
            <mxPoint x="1630" y="117.25" as="sourcePoint" />
            <mxPoint x="1755" y="128.25" as="targetPoint" />
          </mxGeometry>
        </mxCell>
        <mxCell id="CrQmq970yaaDrKnqdUMQ-34" value="" style="endArrow=none;html=1;rounded=0;exitX=0.75;exitY=1;exitDx=0;exitDy=0;entryX=0.579;entryY=0.044;entryDx=0;entryDy=0;entryPerimeter=0;fontSize=13;fontStyle=0;labelBorderColor=none;textShadow=0;" parent="1" source="DWwsRA3n9qqmaE4OlVu3-79" target="CrQmq970yaaDrKnqdUMQ-31" edge="1">
          <mxGeometry relative="1" as="geometry">
            <mxPoint x="1630" y="117.25" as="sourcePoint" />
            <mxPoint x="1690" y="157.25" as="targetPoint" />
          </mxGeometry>
        </mxCell>
        <mxCell id="CrQmq970yaaDrKnqdUMQ-35" value="member_count" style="ellipse;whiteSpace=wrap;html=1;align=center;fillColor=#cce5ff;strokeColor=#36393d;fontSize=13;fontStyle=0;labelBorderColor=none;textShadow=0;" parent="1" vertex="1">
          <mxGeometry x="1767.5" y="137.75" width="100" height="40" as="geometry" />
        </mxCell>
        <mxCell id="CrQmq970yaaDrKnqdUMQ-37" value="" style="endArrow=none;html=1;rounded=0;exitX=1;exitY=0.75;exitDx=0;exitDy=0;entryX=0.5;entryY=0;entryDx=0;entryDy=0;fontSize=13;fontStyle=0;labelBorderColor=none;textShadow=0;" parent="1" source="DWwsRA3n9qqmaE4OlVu3-79" target="CrQmq970yaaDrKnqdUMQ-35" edge="1">
          <mxGeometry relative="1" as="geometry">
            <mxPoint x="1630" y="97.25" as="sourcePoint" />
            <mxPoint x="1830" y="148.25" as="targetPoint" />
          </mxGeometry>
        </mxCell>
        <mxCell id="CrQmq970yaaDrKnqdUMQ-39" value="link" style="ellipse;whiteSpace=wrap;html=1;align=center;fillColor=#cce5ff;strokeColor=#36393d;fontSize=13;fontStyle=0;labelBorderColor=none;textShadow=0;" parent="1" vertex="1">
          <mxGeometry x="1720" y="-350" width="100" height="40" as="geometry" />
        </mxCell>
        <mxCell id="CrQmq970yaaDrKnqdUMQ-42" value="name" style="ellipse;whiteSpace=wrap;html=1;align=center;fillColor=#cce5ff;strokeColor=#36393d;fontSize=13;fontStyle=0;labelBorderColor=none;textShadow=0;" parent="1" vertex="1">
          <mxGeometry x="1530" y="-250" width="100" height="40" as="geometry" />
        </mxCell>
        <mxCell id="CrQmq970yaaDrKnqdUMQ-44" value="is_superGroup" style="ellipse;whiteSpace=wrap;html=1;align=center;fillColor=#cce5ff;strokeColor=#36393d;fontSize=13;fontStyle=0;labelBorderColor=none;textShadow=0;" parent="1" vertex="1">
          <mxGeometry x="1620" y="-440" width="100" height="40" as="geometry" />
        </mxCell>
        <mxCell id="CrQmq970yaaDrKnqdUMQ-45" value="picture" style="ellipse;whiteSpace=wrap;html=1;align=center;fillColor=#cce5ff;strokeColor=#36393d;fontSize=13;fontStyle=0;labelBorderColor=none;textShadow=0;" parent="1" vertex="1">
          <mxGeometry x="1370" y="-340" width="100" height="40" as="geometry" />
        </mxCell>
        <mxCell id="CrQmq970yaaDrKnqdUMQ-50" value="start_date" style="ellipse;whiteSpace=wrap;html=1;align=center;fillColor=#cce5ff;strokeColor=#36393d;fontSize=13;fontStyle=0;labelBorderColor=none;textShadow=0;" parent="1" vertex="1">
          <mxGeometry x="1507.5" y="-450" width="100" height="40" as="geometry" />
        </mxCell>
        <mxCell id="CrQmq970yaaDrKnqdUMQ-51" value="day" style="ellipse;whiteSpace=wrap;html=1;align=center;fillColor=#cce5ff;strokeColor=#36393d;fontSize=13;fontStyle=0;labelBorderColor=none;textShadow=0;" parent="1" vertex="1">
          <mxGeometry x="1627.5" y="-529.5" width="100" height="40" as="geometry" />
        </mxCell>
        <mxCell id="CrQmq970yaaDrKnqdUMQ-52" value="month" style="ellipse;whiteSpace=wrap;html=1;align=center;fillColor=#cce5ff;strokeColor=#36393d;fontSize=13;fontStyle=0;labelBorderColor=none;textShadow=0;" parent="1" vertex="1">
          <mxGeometry x="1517.5" y="-530" width="100" height="40" as="geometry" />
        </mxCell>
        <mxCell id="CrQmq970yaaDrKnqdUMQ-53" value="year" style="ellipse;whiteSpace=wrap;html=1;align=center;fillColor=#cce5ff;strokeColor=#36393d;fontSize=13;fontStyle=0;labelBorderColor=none;textShadow=0;" parent="1" vertex="1">
          <mxGeometry x="1407.5" y="-530" width="100" height="40" as="geometry" />
        </mxCell>
        <mxCell id="CrQmq970yaaDrKnqdUMQ-54" value="" style="endArrow=none;html=1;rounded=0;exitX=1;exitY=1;exitDx=0;exitDy=0;entryX=0;entryY=0;entryDx=0;entryDy=0;fillColor=#cce5ff;strokeColor=#36393d;fontSize=13;fontStyle=0;labelBorderColor=none;textShadow=0;" parent="1" source="CrQmq970yaaDrKnqdUMQ-53" target="CrQmq970yaaDrKnqdUMQ-50" edge="1">
          <mxGeometry relative="1" as="geometry">
            <mxPoint x="1337.5" y="-430" as="sourcePoint" />
            <mxPoint x="1497.5" y="-430" as="targetPoint" />
          </mxGeometry>
        </mxCell>
        <mxCell id="CrQmq970yaaDrKnqdUMQ-55" value="" style="endArrow=none;html=1;rounded=0;exitX=0.5;exitY=1;exitDx=0;exitDy=0;entryX=0.5;entryY=0;entryDx=0;entryDy=0;fillColor=#cce5ff;strokeColor=#36393d;fontSize=13;fontStyle=0;labelBorderColor=none;textShadow=0;" parent="1" source="CrQmq970yaaDrKnqdUMQ-52" target="CrQmq970yaaDrKnqdUMQ-50" edge="1">
          <mxGeometry relative="1" as="geometry">
            <mxPoint x="1337.5" y="-430" as="sourcePoint" />
            <mxPoint x="1497.5" y="-430" as="targetPoint" />
          </mxGeometry>
        </mxCell>
        <mxCell id="CrQmq970yaaDrKnqdUMQ-56" value="" style="endArrow=none;html=1;rounded=0;exitX=0;exitY=1;exitDx=0;exitDy=0;entryX=1;entryY=0;entryDx=0;entryDy=0;fillColor=#cce5ff;strokeColor=#36393d;fontSize=13;fontStyle=0;labelBorderColor=none;textShadow=0;" parent="1" source="CrQmq970yaaDrKnqdUMQ-51" target="CrQmq970yaaDrKnqdUMQ-50" edge="1">
          <mxGeometry relative="1" as="geometry">
            <mxPoint x="1707.5" y="-480" as="sourcePoint" />
            <mxPoint x="1497.5" y="-430" as="targetPoint" />
          </mxGeometry>
        </mxCell>
        <mxCell id="CrQmq970yaaDrKnqdUMQ-57" value="" style="endArrow=none;html=1;rounded=0;exitX=0.5;exitY=0;exitDx=0;exitDy=0;entryX=0.631;entryY=0.989;entryDx=0;entryDy=0;entryPerimeter=0;fillColor=#cce5ff;strokeColor=#36393d;fontSize=13;fontStyle=0;labelBorderColor=none;textShadow=0;" parent="1" source="DWwsRA3n9qqmaE4OlVu3-78" target="CrQmq970yaaDrKnqdUMQ-50" edge="1">
          <mxGeometry relative="1" as="geometry">
            <mxPoint x="1652" y="-485" as="sourcePoint" />
            <mxPoint x="1603" y="-434" as="targetPoint" />
          </mxGeometry>
        </mxCell>
        <mxCell id="CrQmq970yaaDrKnqdUMQ-60" value="" style="endArrow=none;html=1;rounded=0;exitX=0;exitY=0.5;exitDx=0;exitDy=0;entryX=1;entryY=0.5;entryDx=0;entryDy=0;fillColor=#cce5ff;strokeColor=#36393d;fontSize=13;fontStyle=0;labelBorderColor=none;textShadow=0;" parent="1" source="DWwsRA3n9qqmaE4OlVu3-78" target="CrQmq970yaaDrKnqdUMQ-45" edge="1">
          <mxGeometry relative="1" as="geometry">
            <mxPoint x="1540" y="-310" as="sourcePoint" />
            <mxPoint x="1480" y="-320" as="targetPoint" />
          </mxGeometry>
        </mxCell>
        <mxCell id="CrQmq970yaaDrKnqdUMQ-61" value="" style="endArrow=none;html=1;rounded=0;exitX=0.75;exitY=0;exitDx=0;exitDy=0;entryX=0.251;entryY=0.98;entryDx=0;entryDy=0;entryPerimeter=0;fillColor=#cce5ff;strokeColor=#36393d;fontSize=13;fontStyle=0;labelBorderColor=none;textShadow=0;" parent="1" source="DWwsRA3n9qqmaE4OlVu3-78" target="CrQmq970yaaDrKnqdUMQ-44" edge="1">
          <mxGeometry relative="1" as="geometry">
            <mxPoint x="1590" y="-320" as="sourcePoint" />
            <mxPoint x="1581" y="-400" as="targetPoint" />
          </mxGeometry>
        </mxCell>
        <mxCell id="CrQmq970yaaDrKnqdUMQ-64" value="" style="endArrow=none;html=1;rounded=0;exitX=1;exitY=0.25;exitDx=0;exitDy=0;fillColor=#cce5ff;strokeColor=#36393d;fontSize=13;fontStyle=0;labelBorderColor=none;textShadow=0;" parent="1" source="DWwsRA3n9qqmaE4OlVu3-78" target="CrQmq970yaaDrKnqdUMQ-39" edge="1">
          <mxGeometry relative="1" as="geometry">
            <mxPoint x="1633" y="-320" as="sourcePoint" />
            <mxPoint x="1710" y="-370" as="targetPoint" />
          </mxGeometry>
        </mxCell>
        <mxCell id="CrQmq970yaaDrKnqdUMQ-66" value="" style="endArrow=none;html=1;rounded=0;exitX=1;exitY=1;exitDx=0;exitDy=0;entryX=0.251;entryY=0.1;entryDx=0;entryDy=0;entryPerimeter=0;fillColor=#cce5ff;strokeColor=#36393d;fontSize=13;fontStyle=0;labelBorderColor=none;textShadow=0;" parent="1" source="DWwsRA3n9qqmaE4OlVu3-78" target="sVT_aw7DjIe-fD_PMOQF-55" edge="1">
          <mxGeometry relative="1" as="geometry">
            <mxPoint x="1640" y="-300" as="sourcePoint" />
            <mxPoint x="1667.1999999999998" y="-256.32000000000016" as="targetPoint" />
          </mxGeometry>
        </mxCell>
        <mxCell id="CrQmq970yaaDrKnqdUMQ-67" value="" style="endArrow=none;html=1;rounded=0;exitX=0.75;exitY=1;exitDx=0;exitDy=0;entryX=0.5;entryY=0;entryDx=0;entryDy=0;fillColor=#cce5ff;strokeColor=#36393d;fontSize=13;fontStyle=0;labelBorderColor=none;textShadow=0;" parent="1" source="DWwsRA3n9qqmaE4OlVu3-78" target="CrQmq970yaaDrKnqdUMQ-42" edge="1">
          <mxGeometry relative="1" as="geometry">
            <mxPoint x="1642" y="-285" as="sourcePoint" />
            <mxPoint x="1677" y="-246" as="targetPoint" />
          </mxGeometry>
        </mxCell>
        <mxCell id="CrQmq970yaaDrKnqdUMQ-95" value="channel" style="whiteSpace=wrap;html=1;align=center;fillColor=#cdeb8b;strokeColor=#36393d;fontSize=13;fontStyle=0;labelBorderColor=none;textShadow=0;" parent="1" vertex="1">
          <mxGeometry x="1063.75" y="-604.5" width="100" height="41" as="geometry" />
        </mxCell>
        <mxCell id="CrQmq970yaaDrKnqdUMQ-96" value="link" style="ellipse;whiteSpace=wrap;html=1;align=center;fillColor=#cce5ff;strokeColor=#36393d;fontSize=13;fontStyle=0;labelBorderColor=none;textShadow=0;" parent="1" vertex="1">
          <mxGeometry x="1238.75" y="-624.5" width="100" height="41" as="geometry" />
        </mxCell>
        <mxCell id="CrQmq970yaaDrKnqdUMQ-102" value="picture" style="ellipse;whiteSpace=wrap;html=1;align=center;fillColor=#cce5ff;strokeColor=#36393d;fontSize=13;fontStyle=0;labelBorderColor=none;textShadow=0;" parent="1" vertex="1">
          <mxGeometry x="933.75" y="-604.5" width="100" height="41" as="geometry" />
        </mxCell>
        <mxCell id="CrQmq970yaaDrKnqdUMQ-105" value="start_date" style="ellipse;whiteSpace=wrap;html=1;align=center;fillColor=#cce5ff;strokeColor=#36393d;fontSize=13;fontStyle=0;labelBorderColor=none;textShadow=0;" parent="1" vertex="1">
          <mxGeometry x="1033.75" y="-705" width="100" height="41" as="geometry" />
        </mxCell>
        <mxCell id="CrQmq970yaaDrKnqdUMQ-106" value="day" style="ellipse;whiteSpace=wrap;html=1;align=center;fillColor=#cce5ff;strokeColor=#36393d;fontSize=13;fontStyle=0;labelBorderColor=none;textShadow=0;" parent="1" vertex="1">
          <mxGeometry x="1118.75" y="-775" width="100" height="41" as="geometry" />
        </mxCell>
        <mxCell id="CrQmq970yaaDrKnqdUMQ-107" value="month" style="ellipse;whiteSpace=wrap;html=1;align=center;fillColor=#cce5ff;strokeColor=#36393d;fontSize=13;fontStyle=0;labelBorderColor=none;textShadow=0;" parent="1" vertex="1">
          <mxGeometry x="1013.75" y="-785" width="100" height="41" as="geometry" />
        </mxCell>
        <mxCell id="CrQmq970yaaDrKnqdUMQ-108" value="year" style="ellipse;whiteSpace=wrap;html=1;align=center;fillColor=#cce5ff;strokeColor=#36393d;fontSize=13;fontStyle=0;labelBorderColor=none;textShadow=0;" parent="1" vertex="1">
          <mxGeometry x="906.25" y="-745" width="100" height="41" as="geometry" />
        </mxCell>
        <mxCell id="CrQmq970yaaDrKnqdUMQ-109" value="" style="endArrow=none;html=1;rounded=0;exitX=1;exitY=1;exitDx=0;exitDy=0;entryX=0;entryY=0;entryDx=0;entryDy=0;fillColor=#cce5ff;strokeColor=#36393d;fontSize=13;fontStyle=0;labelBorderColor=none;textShadow=0;" parent="1" source="CrQmq970yaaDrKnqdUMQ-108" target="CrQmq970yaaDrKnqdUMQ-105" edge="1">
          <mxGeometry relative="1" as="geometry">
            <mxPoint x="881.25" y="-704.5" as="sourcePoint" />
            <mxPoint x="1041.25" y="-704.5" as="targetPoint" />
          </mxGeometry>
        </mxCell>
        <mxCell id="CrQmq970yaaDrKnqdUMQ-110" value="" style="endArrow=none;html=1;rounded=0;exitX=0.5;exitY=1;exitDx=0;exitDy=0;entryX=0.5;entryY=0;entryDx=0;entryDy=0;fillColor=#cce5ff;strokeColor=#36393d;fontSize=13;fontStyle=0;labelBorderColor=none;textShadow=0;" parent="1" source="CrQmq970yaaDrKnqdUMQ-107" target="CrQmq970yaaDrKnqdUMQ-105" edge="1">
          <mxGeometry relative="1" as="geometry">
            <mxPoint x="881.25" y="-704.5" as="sourcePoint" />
            <mxPoint x="1041.25" y="-704.5" as="targetPoint" />
          </mxGeometry>
        </mxCell>
        <mxCell id="CrQmq970yaaDrKnqdUMQ-111" value="" style="endArrow=none;html=1;rounded=0;exitX=0;exitY=1;exitDx=0;exitDy=0;entryX=1;entryY=0;entryDx=0;entryDy=0;fillColor=#cce5ff;strokeColor=#36393d;fontSize=13;fontStyle=0;labelBorderColor=none;textShadow=0;" parent="1" source="CrQmq970yaaDrKnqdUMQ-106" target="CrQmq970yaaDrKnqdUMQ-105" edge="1">
          <mxGeometry relative="1" as="geometry">
            <mxPoint x="1251.25" y="-754.5" as="sourcePoint" />
            <mxPoint x="1041.25" y="-704.5" as="targetPoint" />
          </mxGeometry>
        </mxCell>
        <mxCell id="CrQmq970yaaDrKnqdUMQ-112" value="" style="endArrow=none;html=1;rounded=0;exitX=0.5;exitY=0;exitDx=0;exitDy=0;entryX=0.631;entryY=0.989;entryDx=0;entryDy=0;entryPerimeter=0;fillColor=#cce5ff;strokeColor=#36393d;fontSize=13;fontStyle=0;labelBorderColor=none;textShadow=0;" parent="1" source="CrQmq970yaaDrKnqdUMQ-95" target="CrQmq970yaaDrKnqdUMQ-105" edge="1">
          <mxGeometry relative="1" as="geometry">
            <mxPoint x="1195.75" y="-759.5" as="sourcePoint" />
            <mxPoint x="1146.75" y="-708.5" as="targetPoint" />
          </mxGeometry>
        </mxCell>
        <mxCell id="CrQmq970yaaDrKnqdUMQ-115" value="" style="endArrow=none;html=1;rounded=0;exitX=0;exitY=0.5;exitDx=0;exitDy=0;entryX=1;entryY=0.5;entryDx=0;entryDy=0;fillColor=#cce5ff;strokeColor=#36393d;fontSize=13;fontStyle=0;labelBorderColor=none;textShadow=0;" parent="1" source="CrQmq970yaaDrKnqdUMQ-95" target="CrQmq970yaaDrKnqdUMQ-102" edge="1">
          <mxGeometry relative="1" as="geometry">
            <mxPoint x="1083.75" y="-584.5" as="sourcePoint" />
            <mxPoint x="1023.75" y="-594.5" as="targetPoint" />
          </mxGeometry>
        </mxCell>
        <mxCell id="CrQmq970yaaDrKnqdUMQ-118" value="" style="endArrow=none;html=1;rounded=0;exitX=1;exitY=0.25;exitDx=0;exitDy=0;fillColor=#cce5ff;strokeColor=#36393d;fontSize=13;fontStyle=0;labelBorderColor=none;textShadow=0;" parent="1" source="CrQmq970yaaDrKnqdUMQ-95" target="CrQmq970yaaDrKnqdUMQ-96" edge="1">
          <mxGeometry relative="1" as="geometry">
            <mxPoint x="1176.75" y="-594.5" as="sourcePoint" />
            <mxPoint x="1253.75" y="-644.5" as="targetPoint" />
          </mxGeometry>
        </mxCell>
        <mxCell id="CrQmq970yaaDrKnqdUMQ-120" value="" style="endArrow=none;html=1;rounded=0;exitX=1;exitY=1;exitDx=0;exitDy=0;fillColor=#cce5ff;strokeColor=#36393d;fontSize=13;fontStyle=0;labelBorderColor=none;textShadow=0;" parent="1" source="CrQmq970yaaDrKnqdUMQ-95" edge="1">
          <mxGeometry relative="1" as="geometry">
            <mxPoint x="1183.75" y="-574.5" as="sourcePoint" />
            <mxPoint x="1246.25" y="-521" as="targetPoint" />
          </mxGeometry>
        </mxCell>
        <mxCell id="CrQmq970yaaDrKnqdUMQ-121" value="" style="endArrow=none;html=1;rounded=0;exitX=0.75;exitY=1;exitDx=0;exitDy=0;entryX=0;entryY=0.5;entryDx=0;entryDy=0;fillColor=#cce5ff;strokeColor=#36393d;fontSize=13;fontStyle=0;labelBorderColor=none;textShadow=0;" parent="1" source="CrQmq970yaaDrKnqdUMQ-95" target="jRvsaUa9cUx2iDDj-W8V-14" edge="1">
          <mxGeometry relative="1" as="geometry">
            <mxPoint x="1185.75" y="-559.5" as="sourcePoint" />
            <mxPoint x="1188.75" y="-475" as="targetPoint" />
          </mxGeometry>
        </mxCell>
        <mxCell id="CrQmq970yaaDrKnqdUMQ-122" value="" style="endArrow=classic;html=1;rounded=0;entryX=0.5;entryY=1;entryDx=0;entryDy=0;fontSize=13;fontStyle=0;labelBorderColor=none;textShadow=0;exitX=0.5;exitY=0;exitDx=0;exitDy=0;" parent="1" source="DWwsRA3n9qqmaE4OlVu3-75" target="CrQmq970yaaDrKnqdUMQ-95" edge="1">
          <mxGeometry width="50" height="50" relative="1" as="geometry">
            <mxPoint x="1140" y="-190" as="sourcePoint" />
            <mxPoint x="1160" y="-580" as="targetPoint" />
          </mxGeometry>
        </mxCell>
        <mxCell id="CrQmq970yaaDrKnqdUMQ-123" value="" style="endArrow=none;html=1;rounded=0;entryX=1;entryY=0;entryDx=0;entryDy=0;exitX=0.5;exitY=1;exitDx=0;exitDy=0;fillColor=#cce5ff;strokeColor=#36393d;fontSize=13;fontStyle=0;labelBorderColor=none;textShadow=0;" parent="1" source="CrQmq970yaaDrKnqdUMQ-124" target="CrQmq970yaaDrKnqdUMQ-95" edge="1">
          <mxGeometry relative="1" as="geometry">
            <mxPoint x="1353.75" y="-705" as="sourcePoint" />
            <mxPoint x="1128.75" y="-689" as="targetPoint" />
          </mxGeometry>
        </mxCell>
        <mxCell id="CrQmq970yaaDrKnqdUMQ-124" value="is_private" style="ellipse;whiteSpace=wrap;html=1;align=center;fillColor=#cce5ff;strokeColor=#36393d;fontSize=13;fontStyle=0;labelBorderColor=none;textShadow=0;" parent="1" vertex="1">
          <mxGeometry x="1157.5" y="-705" width="100" height="41" as="geometry" />
        </mxCell>
        <mxCell id="CrQmq970yaaDrKnqdUMQ-125" value="is_private" style="ellipse;whiteSpace=wrap;html=1;align=center;fillColor=#cce5ff;strokeColor=#36393d;fontSize=13;fontStyle=0;labelBorderColor=none;textShadow=0;" parent="1" vertex="1">
          <mxGeometry x="1740" y="-435" width="100" height="40" as="geometry" />
        </mxCell>
        <mxCell id="CrQmq970yaaDrKnqdUMQ-126" value="" style="endArrow=none;html=1;rounded=0;exitX=0;exitY=1;exitDx=0;exitDy=0;fillColor=#cce5ff;strokeColor=#36393d;fontSize=13;fontStyle=0;labelBorderColor=none;textShadow=0;entryX=1;entryY=0;entryDx=0;entryDy=0;" parent="1" source="CrQmq970yaaDrKnqdUMQ-125" target="DWwsRA3n9qqmaE4OlVu3-78" edge="1">
          <mxGeometry relative="1" as="geometry">
            <mxPoint x="1430" y="-560" as="sourcePoint" />
            <mxPoint x="1380" y="-474" as="targetPoint" />
          </mxGeometry>
        </mxCell>
        <mxCell id="CrQmq970yaaDrKnqdUMQ-176" value="" style="endArrow=none;html=1;rounded=0;fontSize=13;startSize=8;endSize=8;curved=1;entryX=0;entryY=1;entryDx=0;entryDy=0;exitX=1;exitY=0.75;exitDx=0;exitDy=0;fontStyle=0;labelBorderColor=none;textShadow=0;" parent="1" source="DWwsRA3n9qqmaE4OlVu3-94" target="DWwsRA3n9qqmaE4OlVu3-160" edge="1">
          <mxGeometry relative="1" as="geometry">
            <mxPoint x="820" y="569" as="sourcePoint" />
            <mxPoint x="980" y="569" as="targetPoint" />
          </mxGeometry>
        </mxCell>
        <mxCell id="CrQmq970yaaDrKnqdUMQ-177" value="1" style="resizable=0;html=1;whiteSpace=wrap;align=right;verticalAlign=bottom;fontSize=13;fontStyle=0;labelBorderColor=none;textShadow=0;" parent="CrQmq970yaaDrKnqdUMQ-176" connectable="0" vertex="1">
          <mxGeometry x="1" relative="1" as="geometry">
            <mxPoint x="-38" y="-5" as="offset" />
          </mxGeometry>
        </mxCell>
        <mxCell id="CrQmq970yaaDrKnqdUMQ-178" value="" style="endArrow=none;html=1;rounded=0;fontSize=13;startSize=8;endSize=8;curved=1;entryX=1;entryY=0.25;entryDx=0;entryDy=0;exitX=0;exitY=0;exitDx=0;exitDy=0;fontStyle=0;labelBorderColor=none;textShadow=0;" parent="1" source="DWwsRA3n9qqmaE4OlVu3-160" target="DWwsRA3n9qqmaE4OlVu3-94" edge="1">
          <mxGeometry relative="1" as="geometry">
            <mxPoint x="1200" y="370" as="sourcePoint" />
            <mxPoint x="1378" y="375" as="targetPoint" />
          </mxGeometry>
        </mxCell>
        <mxCell id="CrQmq970yaaDrKnqdUMQ-179" value="1" style="resizable=0;html=1;whiteSpace=wrap;align=right;verticalAlign=bottom;fontSize=13;fontStyle=0;labelBorderColor=none;textShadow=0;" parent="CrQmq970yaaDrKnqdUMQ-178" connectable="0" vertex="1">
          <mxGeometry x="1" relative="1" as="geometry">
            <mxPoint x="166" y="490" as="offset" />
          </mxGeometry>
        </mxCell>
        <mxCell id="CrQmq970yaaDrKnqdUMQ-180" value="" style="endArrow=none;html=1;rounded=0;fontSize=13;startSize=8;endSize=8;curved=1;entryX=1;entryY=1;entryDx=0;entryDy=0;exitX=0.5;exitY=0;exitDx=0;exitDy=0;fontStyle=0;labelBorderColor=none;textShadow=0;" parent="1" source="DWwsRA3n9qqmaE4OlVu3-92" target="DWwsRA3n9qqmaE4OlVu3-72" edge="1">
          <mxGeometry relative="1" as="geometry">
            <mxPoint x="1340" y="160" as="sourcePoint" />
            <mxPoint x="1200" y="100" as="targetPoint" />
          </mxGeometry>
        </mxCell>
        <mxCell id="CrQmq970yaaDrKnqdUMQ-181" value="1" style="resizable=0;html=1;whiteSpace=wrap;align=right;verticalAlign=bottom;fontSize=13;fontStyle=0;labelBorderColor=none;textShadow=0;" parent="CrQmq970yaaDrKnqdUMQ-180" connectable="0" vertex="1">
          <mxGeometry x="1" relative="1" as="geometry">
            <mxPoint x="30" y="10" as="offset" />
          </mxGeometry>
        </mxCell>
        <mxCell id="CrQmq970yaaDrKnqdUMQ-182" value="" style="endArrow=none;html=1;rounded=0;fontSize=13;startSize=8;endSize=8;curved=1;entryX=0.75;entryY=1;entryDx=0;entryDy=0;exitX=0.5;exitY=0;exitDx=0;exitDy=0;fontStyle=0;labelBorderColor=none;textShadow=0;" parent="1" source="DWwsRA3n9qqmaE4OlVu3-93" target="DWwsRA3n9qqmaE4OlVu3-72" edge="1">
          <mxGeometry relative="1" as="geometry">
            <mxPoint x="1353" y="180" as="sourcePoint" />
            <mxPoint x="1200" y="80" as="targetPoint" />
          </mxGeometry>
        </mxCell>
        <mxCell id="CrQmq970yaaDrKnqdUMQ-183" value="1" style="resizable=0;html=1;whiteSpace=wrap;align=right;verticalAlign=bottom;fontSize=13;fontStyle=0;labelBorderColor=none;textShadow=0;" parent="CrQmq970yaaDrKnqdUMQ-182" connectable="0" vertex="1">
          <mxGeometry x="1" relative="1" as="geometry">
            <mxPoint x="25" y="20" as="offset" />
          </mxGeometry>
        </mxCell>
        <mxCell id="CrQmq970yaaDrKnqdUMQ-184" value="" style="endArrow=none;html=1;rounded=0;fontSize=13;startSize=8;endSize=8;curved=1;entryX=0.5;entryY=1;entryDx=0;entryDy=0;exitX=0.5;exitY=0;exitDx=0;exitDy=0;fontStyle=0;labelBorderColor=none;textShadow=0;" parent="1" source="DWwsRA3n9qqmaE4OlVu3-91" target="DWwsRA3n9qqmaE4OlVu3-72" edge="1">
          <mxGeometry relative="1" as="geometry">
            <mxPoint x="1218" y="180" as="sourcePoint" />
            <mxPoint x="1175" y="80" as="targetPoint" />
          </mxGeometry>
        </mxCell>
        <mxCell id="CrQmq970yaaDrKnqdUMQ-185" value="1" style="resizable=0;html=1;whiteSpace=wrap;align=right;verticalAlign=bottom;fontSize=13;fontStyle=0;labelBorderColor=none;textShadow=0;" parent="CrQmq970yaaDrKnqdUMQ-184" connectable="0" vertex="1">
          <mxGeometry x="1" relative="1" as="geometry">
            <mxPoint x="7" y="20" as="offset" />
          </mxGeometry>
        </mxCell>
        <mxCell id="CrQmq970yaaDrKnqdUMQ-186" value="" style="endArrow=none;html=1;rounded=0;fontSize=13;startSize=8;endSize=8;curved=1;entryX=0;entryY=1;entryDx=0;entryDy=0;exitX=0.5;exitY=0;exitDx=0;exitDy=0;fontStyle=0;labelBorderColor=none;textShadow=0;" parent="1" source="DWwsRA3n9qqmaE4OlVu3-90" target="DWwsRA3n9qqmaE4OlVu3-72" edge="1">
          <mxGeometry relative="1" as="geometry">
            <mxPoint x="1083" y="180" as="sourcePoint" />
            <mxPoint x="1150" y="80" as="targetPoint" />
          </mxGeometry>
        </mxCell>
        <mxCell id="CrQmq970yaaDrKnqdUMQ-187" value="1" style="resizable=0;html=1;whiteSpace=wrap;align=right;verticalAlign=bottom;fontSize=13;fontStyle=0;labelBorderColor=none;textShadow=0;" parent="CrQmq970yaaDrKnqdUMQ-186" connectable="0" vertex="1">
          <mxGeometry x="1" relative="1" as="geometry">
            <mxPoint x="7" y="20" as="offset" />
          </mxGeometry>
        </mxCell>
        <mxCell id="CrQmq970yaaDrKnqdUMQ-188" value="" style="endArrow=none;html=1;rounded=0;fontSize=13;startSize=8;endSize=8;curved=1;entryX=0.75;entryY=0;entryDx=0;entryDy=0;exitX=0.5;exitY=1;exitDx=0;exitDy=0;fontStyle=0;labelBorderColor=none;textShadow=0;" parent="1" source="DWwsRA3n9qqmaE4OlVu3-93" target="DWwsRA3n9qqmaE4OlVu3-94" edge="1">
          <mxGeometry relative="1" as="geometry">
            <mxPoint x="1090" y="190" as="sourcePoint" />
            <mxPoint x="1250" y="190" as="targetPoint" />
          </mxGeometry>
        </mxCell>
        <mxCell id="CrQmq970yaaDrKnqdUMQ-189" value="N" style="resizable=0;html=1;whiteSpace=wrap;align=right;verticalAlign=bottom;fontSize=13;fontStyle=0;labelBorderColor=none;textShadow=0;" parent="CrQmq970yaaDrKnqdUMQ-188" connectable="0" vertex="1">
          <mxGeometry x="1" relative="1" as="geometry" />
        </mxCell>
        <mxCell id="CrQmq970yaaDrKnqdUMQ-190" value="" style="endArrow=none;html=1;rounded=0;fontSize=13;startSize=8;endSize=8;curved=1;entryX=0;entryY=0;entryDx=0;entryDy=0;exitX=0.5;exitY=1;exitDx=0;exitDy=0;fontStyle=0;labelBorderColor=none;textShadow=0;" parent="1" source="DWwsRA3n9qqmaE4OlVu3-90" target="DWwsRA3n9qqmaE4OlVu3-94" edge="1">
          <mxGeometry relative="1" as="geometry">
            <mxPoint x="1218" y="240" as="sourcePoint" />
            <mxPoint x="1175" y="340" as="targetPoint" />
          </mxGeometry>
        </mxCell>
        <mxCell id="CrQmq970yaaDrKnqdUMQ-191" value="N" style="resizable=0;html=1;whiteSpace=wrap;align=right;verticalAlign=bottom;fontSize=13;fontStyle=0;labelBorderColor=none;textShadow=0;" parent="CrQmq970yaaDrKnqdUMQ-190" connectable="0" vertex="1">
          <mxGeometry x="1" relative="1" as="geometry" />
        </mxCell>
        <mxCell id="CrQmq970yaaDrKnqdUMQ-192" value="" style="endArrow=none;html=1;rounded=0;fontSize=13;startSize=8;endSize=8;curved=1;entryX=1;entryY=0;entryDx=0;entryDy=0;exitX=0.5;exitY=1;exitDx=0;exitDy=0;fontStyle=0;labelBorderColor=none;textShadow=0;" parent="1" source="DWwsRA3n9qqmaE4OlVu3-92" target="DWwsRA3n9qqmaE4OlVu3-94" edge="1">
          <mxGeometry relative="1" as="geometry">
            <mxPoint x="1378" y="345" as="sourcePoint" />
            <mxPoint x="1200" y="350" as="targetPoint" />
          </mxGeometry>
        </mxCell>
        <mxCell id="CrQmq970yaaDrKnqdUMQ-193" value="1" style="resizable=0;html=1;whiteSpace=wrap;align=right;verticalAlign=bottom;fontSize=13;fontStyle=0;labelBorderColor=none;textShadow=0;" parent="CrQmq970yaaDrKnqdUMQ-192" connectable="0" vertex="1">
          <mxGeometry x="1" relative="1" as="geometry">
            <mxPoint as="offset" />
          </mxGeometry>
        </mxCell>
        <mxCell id="CrQmq970yaaDrKnqdUMQ-194" value="" style="endArrow=none;html=1;rounded=0;fontSize=13;startSize=8;endSize=8;curved=1;entryX=0.25;entryY=0;entryDx=0;entryDy=0;exitX=0.5;exitY=1;exitDx=0;exitDy=0;fontStyle=0;labelBorderColor=none;textShadow=0;" parent="1" source="DWwsRA3n9qqmaE4OlVu3-91" target="DWwsRA3n9qqmaE4OlVu3-94" edge="1">
          <mxGeometry relative="1" as="geometry">
            <mxPoint x="1353" y="240" as="sourcePoint" />
            <mxPoint x="1200" y="340" as="targetPoint" />
          </mxGeometry>
        </mxCell>
        <mxCell id="CrQmq970yaaDrKnqdUMQ-195" value="1" style="resizable=0;html=1;whiteSpace=wrap;align=right;verticalAlign=bottom;fontSize=13;fontStyle=0;labelBorderColor=none;textShadow=0;" parent="CrQmq970yaaDrKnqdUMQ-194" connectable="0" vertex="1">
          <mxGeometry x="1" relative="1" as="geometry">
            <mxPoint x="10" as="offset" />
          </mxGeometry>
        </mxCell>
        <mxCell id="CrQmq970yaaDrKnqdUMQ-198" value="" style="endArrow=none;html=1;rounded=0;fontSize=13;startSize=8;endSize=8;curved=1;entryX=0.957;entryY=0.998;entryDx=0;entryDy=0;entryPerimeter=0;fontStyle=0;labelBorderColor=none;textShadow=0;" parent="1" target="DWwsRA3n9qqmaE4OlVu3-2" edge="1">
          <mxGeometry relative="1" as="geometry">
            <mxPoint x="260" y="30" as="sourcePoint" />
            <mxPoint x="740" y="-140" as="targetPoint" />
            <Array as="points" />
          </mxGeometry>
        </mxCell>
        <mxCell id="CrQmq970yaaDrKnqdUMQ-199" value="1" style="resizable=0;html=1;whiteSpace=wrap;align=right;verticalAlign=bottom;fontSize=13;fontStyle=0;labelBorderColor=none;textShadow=0;" parent="CrQmq970yaaDrKnqdUMQ-198" connectable="0" vertex="1">
          <mxGeometry x="1" relative="1" as="geometry">
            <mxPoint x="14" y="18" as="offset" />
          </mxGeometry>
        </mxCell>
        <mxCell id="CrQmq970yaaDrKnqdUMQ-203" value="" style="endArrow=none;html=1;rounded=0;fontSize=13;startSize=8;endSize=8;curved=1;entryX=0;entryY=0.5;entryDx=0;entryDy=0;fontStyle=0;labelBorderColor=none;textShadow=0;" parent="1" target="DWwsRA3n9qqmaE4OlVu3-70" edge="1">
          <mxGeometry relative="1" as="geometry">
            <mxPoint x="260" y="30" as="sourcePoint" />
            <mxPoint x="740" y="-146.75" as="targetPoint" />
          </mxGeometry>
        </mxCell>
        <mxCell id="CrQmq970yaaDrKnqdUMQ-204" value="" style="endArrow=none;html=1;rounded=0;fontSize=13;startSize=8;endSize=8;curved=1;entryX=0;entryY=0.5;entryDx=0;entryDy=0;exitX=1;exitY=0.5;exitDx=0;exitDy=0;fontStyle=0;labelBorderColor=none;textShadow=0;" parent="1" source="DWwsRA3n9qqmaE4OlVu3-70" edge="1">
          <mxGeometry relative="1" as="geometry">
            <mxPoint x="890" y="73.25" as="sourcePoint" />
            <mxPoint x="1090" y="43.25" as="targetPoint" />
          </mxGeometry>
        </mxCell>
        <mxCell id="CrQmq970yaaDrKnqdUMQ-205" value="M" style="resizable=0;html=1;whiteSpace=wrap;align=right;verticalAlign=bottom;fontSize=13;fontStyle=0;labelBorderColor=none;textShadow=0;" parent="CrQmq970yaaDrKnqdUMQ-204" connectable="0" vertex="1">
          <mxGeometry x="1" relative="1" as="geometry" />
        </mxCell>
        <mxCell id="CrQmq970yaaDrKnqdUMQ-206" value="" style="endArrow=none;html=1;rounded=0;fontSize=13;startSize=8;endSize=8;curved=1;entryX=0.5;entryY=0;entryDx=0;entryDy=0;exitX=0.5;exitY=1;exitDx=0;exitDy=0;fontStyle=0;labelBorderColor=none;textShadow=0;" parent="1" source="DWwsRA3n9qqmaE4OlVu3-3" target="DWwsRA3n9qqmaE4OlVu3-1" edge="1">
          <mxGeometry relative="1" as="geometry">
            <mxPoint x="190" y="80" as="sourcePoint" />
            <mxPoint x="350" y="80" as="targetPoint" />
          </mxGeometry>
        </mxCell>
        <mxCell id="CrQmq970yaaDrKnqdUMQ-207" value="1" style="resizable=0;html=1;whiteSpace=wrap;align=right;verticalAlign=bottom;fontSize=13;fontStyle=0;labelBorderColor=none;textShadow=0;" parent="CrQmq970yaaDrKnqdUMQ-206" connectable="0" vertex="1">
          <mxGeometry x="1" relative="1" as="geometry" />
        </mxCell>
        <mxCell id="CrQmq970yaaDrKnqdUMQ-208" value="" style="endArrow=none;html=1;rounded=0;fontSize=13;startSize=8;endSize=8;curved=1;exitX=0.5;exitY=0;exitDx=0;exitDy=0;entryX=0.5;entryY=1;entryDx=0;entryDy=0;fontStyle=0;labelBorderColor=none;textShadow=0;" parent="1" source="DWwsRA3n9qqmaE4OlVu3-3" target="DWwsRA3n9qqmaE4OlVu3-2" edge="1">
          <mxGeometry relative="1" as="geometry">
            <mxPoint x="190" y="80" as="sourcePoint" />
            <mxPoint x="350" y="80" as="targetPoint" />
          </mxGeometry>
        </mxCell>
        <mxCell id="CrQmq970yaaDrKnqdUMQ-209" value="N" style="resizable=0;html=1;whiteSpace=wrap;align=right;verticalAlign=bottom;fontSize=13;fontStyle=0;labelBorderColor=none;textShadow=0;" parent="CrQmq970yaaDrKnqdUMQ-208" connectable="0" vertex="1">
          <mxGeometry x="1" relative="1" as="geometry">
            <mxPoint x="-15" y="20" as="offset" />
          </mxGeometry>
        </mxCell>
        <mxCell id="CrQmq970yaaDrKnqdUMQ-210" value="" style="endArrow=none;html=1;rounded=0;fontSize=13;startSize=8;endSize=8;curved=1;exitX=1;exitY=0.5;exitDx=0;exitDy=0;entryX=0;entryY=0.5;entryDx=0;entryDy=0;fontStyle=0;labelBorderColor=none;textShadow=0;" parent="1" edge="1">
          <mxGeometry relative="1" as="geometry">
            <mxPoint x="10" y="180.26" as="sourcePoint" />
            <mxPoint x="165" y="180.26" as="targetPoint" />
          </mxGeometry>
        </mxCell>
        <mxCell id="CrQmq970yaaDrKnqdUMQ-211" value="1" style="resizable=0;html=1;whiteSpace=wrap;align=right;verticalAlign=bottom;fontSize=13;fontStyle=0;labelBorderColor=none;textShadow=0;" parent="CrQmq970yaaDrKnqdUMQ-210" connectable="0" vertex="1">
          <mxGeometry x="1" relative="1" as="geometry">
            <mxPoint x="-10" as="offset" />
          </mxGeometry>
        </mxCell>
        <mxCell id="CrQmq970yaaDrKnqdUMQ-214" value="" style="endArrow=none;html=1;rounded=0;fontSize=13;startSize=8;endSize=8;curved=1;exitX=0.5;exitY=0;exitDx=0;exitDy=0;entryX=0.5;entryY=1;entryDx=0;entryDy=0;fontStyle=0;labelBorderColor=none;textShadow=0;" parent="1" source="DWwsRA3n9qqmaE4OlVu3-185" target="DWwsRA3n9qqmaE4OlVu3-1" edge="1">
          <mxGeometry relative="1" as="geometry">
            <mxPoint x="20" y="190.26" as="sourcePoint" />
            <mxPoint x="175" y="190.26" as="targetPoint" />
          </mxGeometry>
        </mxCell>
        <mxCell id="CrQmq970yaaDrKnqdUMQ-215" value="1" style="resizable=0;html=1;whiteSpace=wrap;align=right;verticalAlign=bottom;fontSize=13;fontStyle=0;labelBorderColor=none;textShadow=0;" parent="CrQmq970yaaDrKnqdUMQ-214" connectable="0" vertex="1">
          <mxGeometry x="1" relative="1" as="geometry">
            <mxPoint x="15" y="20" as="offset" />
          </mxGeometry>
        </mxCell>
        <mxCell id="CrQmq970yaaDrKnqdUMQ-216" value="" style="endArrow=none;html=1;rounded=0;fontSize=13;startSize=8;endSize=8;curved=1;exitX=0;exitY=0.5;exitDx=0;exitDy=0;entryX=1;entryY=0.5;entryDx=0;entryDy=0;fontStyle=0;labelBorderColor=none;textShadow=0;" parent="1" source="DWwsRA3n9qqmaE4OlVu3-185" target="DWwsRA3n9qqmaE4OlVu3-188" edge="1">
          <mxGeometry relative="1" as="geometry">
            <mxPoint x="225" y="330" as="sourcePoint" />
            <mxPoint x="225" y="210" as="targetPoint" />
          </mxGeometry>
        </mxCell>
        <mxCell id="CrQmq970yaaDrKnqdUMQ-217" value="1" style="resizable=0;html=1;whiteSpace=wrap;align=right;verticalAlign=bottom;fontSize=13;fontStyle=0;labelBorderColor=none;textShadow=0;" parent="CrQmq970yaaDrKnqdUMQ-216" connectable="0" vertex="1">
          <mxGeometry x="1" relative="1" as="geometry">
            <mxPoint x="15" y="20" as="offset" />
          </mxGeometry>
        </mxCell>
        <mxCell id="CrQmq970yaaDrKnqdUMQ-220" value="" style="endArrow=none;html=1;rounded=0;fontSize=13;startSize=8;endSize=8;curved=1;entryX=0.539;entryY=0.004;entryDx=0;entryDy=0;entryPerimeter=0;fontStyle=0;labelBorderColor=none;textShadow=0;" parent="1" target="DWwsRA3n9qqmaE4OlVu3-2" edge="1">
          <mxGeometry relative="1" as="geometry">
            <mxPoint x="220" y="-240" as="sourcePoint" />
            <mxPoint x="310" y="-270" as="targetPoint" />
          </mxGeometry>
        </mxCell>
        <mxCell id="CrQmq970yaaDrKnqdUMQ-221" value="1" style="resizable=0;html=1;whiteSpace=wrap;align=right;verticalAlign=bottom;fontSize=13;fontStyle=0;labelBorderColor=none;textShadow=0;" parent="CrQmq970yaaDrKnqdUMQ-220" connectable="0" vertex="1">
          <mxGeometry x="1" relative="1" as="geometry" />
        </mxCell>
        <mxCell id="CrQmq970yaaDrKnqdUMQ-222" value="" style="endArrow=none;html=1;rounded=0;fontSize=13;startSize=8;endSize=8;curved=1;exitX=1;exitY=0.5;exitDx=0;exitDy=0;fontStyle=0;labelBorderColor=none;textShadow=0;" parent="1" source="DWwsRA3n9qqmaE4OlVu3-206" edge="1">
          <mxGeometry relative="1" as="geometry">
            <mxPoint x="150" y="-270" as="sourcePoint" />
            <mxPoint x="220" y="-240" as="targetPoint" />
          </mxGeometry>
        </mxCell>
        <mxCell id="CrQmq970yaaDrKnqdUMQ-223" value="" style="endArrow=none;html=1;rounded=0;fontSize=13;startSize=8;endSize=8;curved=1;exitX=0;exitY=0.5;exitDx=0;exitDy=0;entryX=1;entryY=0.5;entryDx=0;entryDy=0;fontStyle=0;labelBorderColor=none;textShadow=0;" parent="1" source="DWwsRA3n9qqmaE4OlVu3-206" target="DWwsRA3n9qqmaE4OlVu3-201" edge="1">
          <mxGeometry relative="1" as="geometry">
            <mxPoint x="-180" y="-100" as="sourcePoint" />
            <mxPoint x="-20" y="-100" as="targetPoint" />
          </mxGeometry>
        </mxCell>
        <mxCell id="CrQmq970yaaDrKnqdUMQ-224" value="N" style="resizable=0;html=1;whiteSpace=wrap;align=right;verticalAlign=bottom;fontSize=13;fontStyle=0;labelBorderColor=none;textShadow=0;" parent="CrQmq970yaaDrKnqdUMQ-223" connectable="0" vertex="1">
          <mxGeometry x="1" relative="1" as="geometry">
            <mxPoint x="21" as="offset" />
          </mxGeometry>
        </mxCell>
        <mxCell id="CrQmq970yaaDrKnqdUMQ-225" value="" style="endArrow=none;html=1;rounded=0;fontSize=13;startSize=8;endSize=8;curved=1;exitX=1;exitY=1;exitDx=0;exitDy=0;entryX=0.127;entryY=0.01;entryDx=0;entryDy=0;entryPerimeter=0;fontStyle=0;labelBorderColor=none;textShadow=0;" parent="1" source="WTfuxV2dFYM7REvjqLjO-1" target="DWwsRA3n9qqmaE4OlVu3-72" edge="1">
          <mxGeometry relative="1" as="geometry">
            <mxPoint x="720" y="-190" as="sourcePoint" />
            <mxPoint x="880" y="-190" as="targetPoint" />
          </mxGeometry>
        </mxCell>
        <mxCell id="CrQmq970yaaDrKnqdUMQ-226" value="1" style="resizable=0;html=1;whiteSpace=wrap;align=right;verticalAlign=bottom;fontSize=13;fontStyle=0;labelBorderColor=none;textShadow=0;" parent="CrQmq970yaaDrKnqdUMQ-225" connectable="0" vertex="1">
          <mxGeometry x="1" relative="1" as="geometry" />
        </mxCell>
        <mxCell id="CrQmq970yaaDrKnqdUMQ-227" value="" style="endArrow=none;html=1;rounded=0;fontSize=13;startSize=8;endSize=8;curved=1;exitX=1;exitY=1;exitDx=0;exitDy=0;entryX=0.25;entryY=0;entryDx=0;entryDy=0;fontStyle=0;labelBorderColor=none;textShadow=0;" parent="1" source="DWwsRA3n9qqmaE4OlVu3-202" target="DWwsRA3n9qqmaE4OlVu3-72" edge="1">
          <mxGeometry relative="1" as="geometry">
            <mxPoint x="570" y="-240" as="sourcePoint" />
            <mxPoint x="1113" y="40" as="targetPoint" />
          </mxGeometry>
        </mxCell>
        <mxCell id="CrQmq970yaaDrKnqdUMQ-228" value="1" style="resizable=0;html=1;whiteSpace=wrap;align=right;verticalAlign=bottom;fontSize=13;fontStyle=0;labelBorderColor=none;textShadow=0;" parent="CrQmq970yaaDrKnqdUMQ-227" connectable="0" vertex="1">
          <mxGeometry x="1" relative="1" as="geometry" />
        </mxCell>
        <mxCell id="CrQmq970yaaDrKnqdUMQ-229" value="" style="endArrow=none;html=1;rounded=0;fontSize=13;startSize=8;endSize=8;curved=1;exitX=1;exitY=1;exitDx=0;exitDy=0;fontStyle=0;labelBorderColor=none;textShadow=0;" parent="1" source="WTfuxV2dFYM7REvjqLjO-5" edge="1">
          <mxGeometry relative="1" as="geometry">
            <mxPoint x="710" y="-240" as="sourcePoint" />
            <mxPoint x="1129" y="30" as="targetPoint" />
          </mxGeometry>
        </mxCell>
        <mxCell id="CrQmq970yaaDrKnqdUMQ-230" value="1" style="resizable=0;html=1;whiteSpace=wrap;align=right;verticalAlign=bottom;fontSize=13;fontStyle=0;labelBorderColor=none;textShadow=0;" parent="CrQmq970yaaDrKnqdUMQ-229" connectable="0" vertex="1">
          <mxGeometry x="1" relative="1" as="geometry" />
        </mxCell>
        <mxCell id="CrQmq970yaaDrKnqdUMQ-231" value="" style="endArrow=none;html=1;rounded=0;fontSize=13;startSize=8;endSize=8;curved=1;entryX=0.5;entryY=0;entryDx=0;entryDy=0;fontStyle=0;labelBorderColor=none;textShadow=0;" parent="1" target="DWwsRA3n9qqmaE4OlVu3-56" edge="1">
          <mxGeometry relative="1" as="geometry">
            <mxPoint x="-20" y="-530" as="sourcePoint" />
            <mxPoint x="580" y="-310" as="targetPoint" />
          </mxGeometry>
        </mxCell>
        <mxCell id="CrQmq970yaaDrKnqdUMQ-232" value="1" style="resizable=0;html=1;whiteSpace=wrap;align=right;verticalAlign=bottom;fontSize=13;fontStyle=0;labelBorderColor=none;textShadow=0;" parent="CrQmq970yaaDrKnqdUMQ-231" connectable="0" vertex="1">
          <mxGeometry x="1" relative="1" as="geometry" />
        </mxCell>
        <mxCell id="CrQmq970yaaDrKnqdUMQ-233" value="" style="endArrow=none;html=1;rounded=0;fontSize=13;startSize=8;endSize=8;curved=1;fontStyle=0;labelBorderColor=none;textShadow=0;" parent="1" edge="1">
          <mxGeometry relative="1" as="geometry">
            <mxPoint x="-20" y="-530" as="sourcePoint" />
            <mxPoint x="800" y="-530" as="targetPoint" />
          </mxGeometry>
        </mxCell>
        <mxCell id="CrQmq970yaaDrKnqdUMQ-234" value="" style="endArrow=none;html=1;rounded=0;fontSize=13;startSize=8;endSize=8;curved=1;entryX=0.5;entryY=0;entryDx=0;entryDy=0;fontStyle=0;labelBorderColor=none;textShadow=0;" parent="1" target="DWwsRA3n9qqmaE4OlVu3-55" edge="1">
          <mxGeometry relative="1" as="geometry">
            <mxPoint x="120" y="-490" as="sourcePoint" />
            <mxPoint x="230" y="-440" as="targetPoint" />
          </mxGeometry>
        </mxCell>
        <mxCell id="CrQmq970yaaDrKnqdUMQ-235" value="N" style="resizable=0;html=1;whiteSpace=wrap;align=right;verticalAlign=bottom;fontSize=13;fontStyle=0;labelBorderColor=none;textShadow=0;" parent="CrQmq970yaaDrKnqdUMQ-234" connectable="0" vertex="1">
          <mxGeometry x="1" relative="1" as="geometry" />
        </mxCell>
        <mxCell id="CrQmq970yaaDrKnqdUMQ-236" value="" style="endArrow=none;html=1;rounded=0;fontSize=13;startSize=8;endSize=8;curved=1;entryX=0.5;entryY=0;entryDx=0;entryDy=0;fontStyle=0;labelBorderColor=none;textShadow=0;" parent="1" target="DWwsRA3n9qqmaE4OlVu3-54" edge="1">
          <mxGeometry relative="1" as="geometry">
            <mxPoint x="280" y="-470" as="sourcePoint" />
            <mxPoint x="310" y="-440" as="targetPoint" />
          </mxGeometry>
        </mxCell>
        <mxCell id="CrQmq970yaaDrKnqdUMQ-237" value="N" style="resizable=0;html=1;whiteSpace=wrap;align=right;verticalAlign=bottom;fontSize=13;fontStyle=0;labelBorderColor=none;textShadow=0;" parent="CrQmq970yaaDrKnqdUMQ-236" connectable="0" vertex="1">
          <mxGeometry x="1" relative="1" as="geometry" />
        </mxCell>
        <mxCell id="CrQmq970yaaDrKnqdUMQ-238" value="" style="endArrow=none;html=1;rounded=0;fontSize=13;startSize=8;endSize=8;curved=1;fontStyle=0;labelBorderColor=none;textShadow=0;" parent="1" edge="1">
          <mxGeometry relative="1" as="geometry">
            <mxPoint x="120" y="-490" as="sourcePoint" />
            <mxPoint x="670" y="-490" as="targetPoint" />
          </mxGeometry>
        </mxCell>
        <mxCell id="CrQmq970yaaDrKnqdUMQ-239" value="" style="endArrow=none;html=1;rounded=0;fontSize=13;startSize=8;endSize=8;curved=1;fontStyle=0;labelBorderColor=none;textShadow=0;" parent="1" edge="1">
          <mxGeometry relative="1" as="geometry">
            <mxPoint x="280" y="-470" as="sourcePoint" />
            <mxPoint x="530" y="-470" as="targetPoint" />
          </mxGeometry>
        </mxCell>
        <mxCell id="sVT_aw7DjIe-fD_PMOQF-1" value="" style="endArrow=none;html=1;rounded=0;entryX=0;entryY=0.5;entryDx=0;entryDy=0;" parent="1" target="DWwsRA3n9qqmaE4OlVu3-2" edge="1">
          <mxGeometry relative="1" as="geometry">
            <mxPoint x="-200" y="-40" as="sourcePoint" />
            <mxPoint x="100" y="10" as="targetPoint" />
          </mxGeometry>
        </mxCell>
        <mxCell id="sVT_aw7DjIe-fD_PMOQF-2" value="Profile" style="shape=rhombus;double=1;perimeter=rhombusPerimeter;whiteSpace=wrap;html=1;align=center;fillColor=#f8cecc;strokeColor=light-dark(#000000, #d7817e);" parent="1" vertex="1">
          <mxGeometry x="-370" y="-110" width="120" height="60" as="geometry" />
        </mxCell>
        <mxCell id="sVT_aw7DjIe-fD_PMOQF-3" value="" style="shape=link;html=1;rounded=0;exitX=0;exitY=0.5;exitDx=0;exitDy=0;entryX=1;entryY=0.5;entryDx=0;entryDy=0;" parent="1" source="sVT_aw7DjIe-fD_PMOQF-2" target="sVT_aw7DjIe-fD_PMOQF-5" edge="1">
          <mxGeometry relative="1" as="geometry">
            <mxPoint x="-270" y="10" as="sourcePoint" />
            <mxPoint x="-900" y="-40" as="targetPoint" />
          </mxGeometry>
        </mxCell>
        <mxCell id="sVT_aw7DjIe-fD_PMOQF-4" value="N" style="resizable=0;html=1;whiteSpace=wrap;align=right;verticalAlign=bottom;" parent="sVT_aw7DjIe-fD_PMOQF-3" connectable="0" vertex="1">
          <mxGeometry x="1" relative="1" as="geometry" />
        </mxCell>
        <mxCell id="sVT_aw7DjIe-fD_PMOQF-5" value="&lt;span style=&quot;font-size: 13px;&quot;&gt;Private Photo&lt;/span&gt;" style="shape=ext;margin=3;double=1;whiteSpace=wrap;html=1;align=center;fillColor=#cdeb8b;strokeColor=#36393d;" parent="1" vertex="1">
          <mxGeometry x="-620" y="-100" width="100" height="40" as="geometry" />
        </mxCell>
        <mxCell id="sVT_aw7DjIe-fD_PMOQF-11" value="1" style="resizable=0;html=1;whiteSpace=wrap;align=right;verticalAlign=bottom;fontSize=13;fontStyle=0;labelBorderColor=none;textShadow=0;" parent="1" connectable="0" vertex="1">
          <mxGeometry x="155" y="-30" as="geometry" />
        </mxCell>
        <mxCell id="sVT_aw7DjIe-fD_PMOQF-13" value="N" style="resizable=0;html=1;whiteSpace=wrap;align=right;verticalAlign=bottom;fontSize=13;fontStyle=0;labelBorderColor=none;textShadow=0;" parent="1" connectable="0" vertex="1">
          <mxGeometry x="-500" y="-174.5" as="geometry">
            <mxPoint x="-5" y="96" as="offset" />
          </mxGeometry>
        </mxCell>
        <mxCell id="sVT_aw7DjIe-fD_PMOQF-14" value="" style="endArrow=none;html=1;rounded=0;" parent="1" edge="1">
          <mxGeometry relative="1" as="geometry">
            <mxPoint x="-200.42" y="-80" as="sourcePoint" />
            <mxPoint x="-200.42" y="-40" as="targetPoint" />
          </mxGeometry>
        </mxCell>
        <mxCell id="sVT_aw7DjIe-fD_PMOQF-15" value="" style="endArrow=none;html=1;rounded=0;exitX=1;exitY=0.5;exitDx=0;exitDy=0;" parent="1" source="sVT_aw7DjIe-fD_PMOQF-2" edge="1">
          <mxGeometry relative="1" as="geometry">
            <mxPoint x="-420" y="-110" as="sourcePoint" />
            <mxPoint x="-200" y="-80" as="targetPoint" />
          </mxGeometry>
        </mxCell>
        <mxCell id="sVT_aw7DjIe-fD_PMOQF-23" value="" style="endArrow=none;html=1;rounded=0;entryX=0;entryY=0.75;entryDx=0;entryDy=0;" parent="1" target="DWwsRA3n9qqmaE4OlVu3-94" edge="1">
          <mxGeometry relative="1" as="geometry">
            <mxPoint x="640" y="360" as="sourcePoint" />
            <mxPoint x="970" y="359.43" as="targetPoint" />
          </mxGeometry>
        </mxCell>
        <mxCell id="sVT_aw7DjIe-fD_PMOQF-24" value="" style="endArrow=none;html=1;rounded=0;" parent="1" target="sVT_aw7DjIe-fD_PMOQF-25" edge="1">
          <mxGeometry relative="1" as="geometry">
            <mxPoint x="640" y="360" as="sourcePoint" />
            <mxPoint x="640" y="460" as="targetPoint" />
          </mxGeometry>
        </mxCell>
        <mxCell id="sVT_aw7DjIe-fD_PMOQF-25" value="React" style="shape=rhombus;double=1;perimeter=rhombusPerimeter;whiteSpace=wrap;html=1;align=center;fillColor=#ffcccc;strokeColor=#36393d;" parent="1" vertex="1">
          <mxGeometry x="580" y="420" width="120" height="60" as="geometry" />
        </mxCell>
        <mxCell id="sVT_aw7DjIe-fD_PMOQF-26" value="" style="shape=link;html=1;rounded=0;exitX=0.5;exitY=1;exitDx=0;exitDy=0;" parent="1" source="sVT_aw7DjIe-fD_PMOQF-25" target="sVT_aw7DjIe-fD_PMOQF-28" edge="1">
          <mxGeometry relative="1" as="geometry">
            <mxPoint x="620" y="460" as="sourcePoint" />
            <mxPoint x="640" y="540" as="targetPoint" />
          </mxGeometry>
        </mxCell>
        <mxCell id="sVT_aw7DjIe-fD_PMOQF-27" value="N" style="resizable=0;html=1;whiteSpace=wrap;align=right;verticalAlign=bottom;" parent="sVT_aw7DjIe-fD_PMOQF-26" connectable="0" vertex="1">
          <mxGeometry x="1" relative="1" as="geometry" />
        </mxCell>
        <mxCell id="sVT_aw7DjIe-fD_PMOQF-28" value="Reaction" style="shape=ext;margin=3;double=1;whiteSpace=wrap;html=1;align=center;fillColor=#cdeb8b;strokeColor=#36393d;" parent="1" vertex="1">
          <mxGeometry x="590" y="540" width="100" height="40" as="geometry" />
        </mxCell>
        <mxCell id="sVT_aw7DjIe-fD_PMOQF-29" value="1" style="resizable=0;html=1;whiteSpace=wrap;align=right;verticalAlign=bottom;fontSize=13;fontStyle=0;labelBorderColor=none;textShadow=0;" parent="1" connectable="0" vertex="1">
          <mxGeometry x="1080" y="370" as="geometry" />
        </mxCell>
        <mxCell id="sVT_aw7DjIe-fD_PMOQF-36" value="story" style="ellipse;shape=doubleEllipse;margin=3;whiteSpace=wrap;html=1;align=center;fillColor=#dae8fc;strokeColor=light-dark(#000000, #5c79a3);" parent="1" vertex="1">
          <mxGeometry x="550" y="-100" width="100" height="40" as="geometry" />
        </mxCell>
        <mxCell id="sVT_aw7DjIe-fD_PMOQF-37" value="" style="endArrow=none;html=1;rounded=0;entryX=0.5;entryY=1;entryDx=0;entryDy=0;" parent="1" target="sVT_aw7DjIe-fD_PMOQF-36" edge="1">
          <mxGeometry relative="1" as="geometry">
            <mxPoint x="600" y="-50" as="sourcePoint" />
            <mxPoint x="580" y="-60" as="targetPoint" />
          </mxGeometry>
        </mxCell>
        <mxCell id="sVT_aw7DjIe-fD_PMOQF-38" value="Select" style="shape=rhombus;double=1;perimeter=rhombusPerimeter;whiteSpace=wrap;html=1;align=center;fillColor=#ffcccc;strokeColor=#36393d;" parent="1" vertex="1">
          <mxGeometry x="1537.4999999999995" y="-62.75" width="120" height="60" as="geometry" />
        </mxCell>
        <mxCell id="sVT_aw7DjIe-fD_PMOQF-41" value="" style="shape=link;html=1;rounded=0;exitX=0.5;exitY=0;exitDx=0;exitDy=0;" parent="1" source="sVT_aw7DjIe-fD_PMOQF-38" target="sVT_aw7DjIe-fD_PMOQF-43" edge="1">
          <mxGeometry relative="1" as="geometry">
            <mxPoint x="1482.5" y="-82.75" as="sourcePoint" />
            <mxPoint x="1597.5" y="-122.75" as="targetPoint" />
          </mxGeometry>
        </mxCell>
        <mxCell id="sVT_aw7DjIe-fD_PMOQF-42" value="N" style="resizable=0;html=1;whiteSpace=wrap;align=right;verticalAlign=bottom;" parent="sVT_aw7DjIe-fD_PMOQF-41" connectable="0" vertex="1">
          <mxGeometry x="1" relative="1" as="geometry" />
        </mxCell>
        <mxCell id="sVT_aw7DjIe-fD_PMOQF-43" value="Bot_Option" style="shape=ext;margin=3;double=1;whiteSpace=wrap;html=1;align=center;fillColor=#cdeb8b;strokeColor=#36393d;" parent="1" vertex="1">
          <mxGeometry x="1547.5" y="-172.25" width="100" height="40" as="geometry" />
        </mxCell>
        <mxCell id="sVT_aw7DjIe-fD_PMOQF-46" value="1" style="resizable=0;html=1;whiteSpace=wrap;align=right;verticalAlign=bottom;fontSize=13;fontStyle=0;labelBorderColor=none;textShadow=0;" parent="1" connectable="0" vertex="1">
          <mxGeometry x="1587.5" y="57.25" as="geometry" />
        </mxCell>
        <mxCell id="sVT_aw7DjIe-fD_PMOQF-47" value="N" style="resizable=0;html=1;whiteSpace=wrap;align=right;verticalAlign=bottom;fontSize=13;fontStyle=0;labelBorderColor=none;textShadow=0;" parent="1" connectable="0" vertex="1">
          <mxGeometry x="1587.5" y="-102.75" as="geometry" />
        </mxCell>
        <mxCell id="sVT_aw7DjIe-fD_PMOQF-48" value="chat_id" style="ellipse;whiteSpace=wrap;html=1;align=center;fontStyle=4;fillColor=#cce5ff;strokeColor=#36393d;fontSize=13;labelBorderColor=none;textShadow=0;" parent="1" vertex="1">
          <mxGeometry x="877.5" y="90" width="100" height="40" as="geometry" />
        </mxCell>
        <mxCell id="sVT_aw7DjIe-fD_PMOQF-54" value="" style="endArrow=none;html=1;rounded=0;exitX=1;exitY=0;exitDx=0;exitDy=0;entryX=0;entryY=0.75;entryDx=0;entryDy=0;" parent="1" source="sVT_aw7DjIe-fD_PMOQF-48" target="DWwsRA3n9qqmaE4OlVu3-72" edge="1">
          <mxGeometry relative="1" as="geometry">
            <mxPoint x="1010" y="10" as="sourcePoint" />
            <mxPoint x="1170" y="10" as="targetPoint" />
          </mxGeometry>
        </mxCell>
        <mxCell id="sVT_aw7DjIe-fD_PMOQF-55" value="member_count" style="ellipse;whiteSpace=wrap;html=1;align=center;fillColor=#cce5ff;strokeColor=#36393d;fontSize=13;fontStyle=0;labelBorderColor=none;textShadow=0;" parent="1" vertex="1">
          <mxGeometry x="1645" y="-260" width="100" height="40" as="geometry" />
        </mxCell>
        <mxCell id="sVT_aw7DjIe-fD_PMOQF-56" value="member_count" style="ellipse;whiteSpace=wrap;html=1;align=center;fillColor=#cce5ff;strokeColor=#36393d;fontSize=13;fontStyle=0;labelBorderColor=none;textShadow=0;" parent="1" vertex="1">
          <mxGeometry x="1241.25" y="-545" width="100" height="41" as="geometry" />
        </mxCell>
        <mxCell id="sVT_aw7DjIe-fD_PMOQF-57" value="" style="shape=link;html=1;rounded=0;exitX=0;exitY=0.5;exitDx=0;exitDy=0;entryX=1;entryY=0.5;entryDx=0;entryDy=0;" parent="1" source="DWwsRA3n9qqmaE4OlVu3-218" target="DWwsRA3n9qqmaE4OlVu3-217" edge="1">
          <mxGeometry relative="1" as="geometry">
            <mxPoint x="30" y="160" as="sourcePoint" />
            <mxPoint x="-230" y="180" as="targetPoint" />
          </mxGeometry>
        </mxCell>
        <mxCell id="sVT_aw7DjIe-fD_PMOQF-58" value="1" style="resizable=0;html=1;whiteSpace=wrap;align=right;verticalAlign=bottom;" parent="sVT_aw7DjIe-fD_PMOQF-57" connectable="0" vertex="1">
          <mxGeometry x="1" relative="1" as="geometry">
            <mxPoint x="20" as="offset" />
          </mxGeometry>
        </mxCell>
        <mxCell id="sVT_aw7DjIe-fD_PMOQF-60" value="address" style="ellipse;whiteSpace=wrap;html=1;align=center;fontStyle=4;fillColor=#cce5ff;strokeColor=#36393d;fontSize=13;labelBorderColor=none;textShadow=0;" parent="1" vertex="1">
          <mxGeometry x="-70" y="420" width="100" height="40" as="geometry" />
        </mxCell>
        <mxCell id="sVT_aw7DjIe-fD_PMOQF-61" value="" style="endArrow=none;html=1;rounded=0;exitX=0.25;exitY=1;exitDx=0;exitDy=0;entryX=1;entryY=0;entryDx=0;entryDy=0;fontSize=13;fontStyle=0;labelBorderColor=none;textShadow=0;" parent="1" source="DWwsRA3n9qqmaE4OlVu3-188" target="sVT_aw7DjIe-fD_PMOQF-60" edge="1">
          <mxGeometry relative="1" as="geometry">
            <mxPoint x="60" y="380" as="sourcePoint" />
            <mxPoint x="50" y="460" as="targetPoint" />
          </mxGeometry>
        </mxCell>
        <mxCell id="sVT_aw7DjIe-fD_PMOQF-62" value="" style="shape=link;html=1;rounded=0;entryX=0;entryY=0.5;entryDx=0;entryDy=0;exitX=1;exitY=0.5;exitDx=0;exitDy=0;" parent="1" source="DWwsRA3n9qqmaE4OlVu3-185" target="DWwsRA3n9qqmaE4OlVu3-94" edge="1">
          <mxGeometry relative="1" as="geometry">
            <mxPoint x="730" y="390" as="sourcePoint" />
            <mxPoint x="890" y="390" as="targetPoint" />
          </mxGeometry>
        </mxCell>
        <mxCell id="sVT_aw7DjIe-fD_PMOQF-63" value="N" style="resizable=0;html=1;whiteSpace=wrap;align=right;verticalAlign=bottom;" parent="sVT_aw7DjIe-fD_PMOQF-62" connectable="0" vertex="1">
          <mxGeometry x="1" relative="1" as="geometry">
            <mxPoint x="-10" as="offset" />
          </mxGeometry>
        </mxCell>
        <mxCell id="sVT_aw7DjIe-fD_PMOQF-64" value="" style="endArrow=classic;html=1;rounded=0;exitX=0;exitY=1;exitDx=0;exitDy=0;fontSize=13;fontStyle=0;labelBorderColor=none;textShadow=0;entryX=1;entryY=1;entryDx=0;entryDy=0;" parent="1" source="DWwsRA3n9qqmaE4OlVu3-52" target="sVT_aw7DjIe-fD_PMOQF-66" edge="1">
          <mxGeometry width="50" height="50" relative="1" as="geometry">
            <mxPoint x="-115" y="-575" as="sourcePoint" />
            <mxPoint x="-130" y="-320" as="targetPoint" />
          </mxGeometry>
        </mxCell>
        <mxCell id="sVT_aw7DjIe-fD_PMOQF-66" value="Contact" style="whiteSpace=wrap;html=1;align=center;fillColor=#cdeb8b;strokeColor=#36393d;fontSize=13;fontStyle=0;labelBorderColor=none;textShadow=0;" parent="1" vertex="1">
          <mxGeometry x="-240" y="-400" width="100" height="40" as="geometry" />
        </mxCell>
        <mxCell id="sVT_aw7DjIe-fD_PMOQF-67" value="Personal" style="whiteSpace=wrap;html=1;align=center;fillColor=#cdeb8b;strokeColor=#36393d;fontSize=13;fontStyle=0;labelBorderColor=none;textShadow=0;" parent="1" vertex="1">
          <mxGeometry x="400" y="-399.5" width="100" height="40" as="geometry" />
        </mxCell>
        <mxCell id="jRvsaUa9cUx2iDDj-W8V-1" value="" style="endArrow=none;html=1;rounded=0;exitX=0.75;exitY=1;exitDx=0;exitDy=0;" parent="1" source="DWwsRA3n9qqmaE4OlVu3-2" edge="1">
          <mxGeometry width="50" height="50" relative="1" as="geometry">
            <mxPoint x="630" as="sourcePoint" />
            <mxPoint x="250" y="40" as="targetPoint" />
          </mxGeometry>
        </mxCell>
        <mxCell id="jRvsaUa9cUx2iDDj-W8V-2" value="delete" style="shape=rhombus;perimeter=rhombusPerimeter;whiteSpace=wrap;html=1;align=center;fillColor=#ffcccc;strokeColor=#36393d;fontSize=13;fontStyle=0;labelBorderColor=none;textShadow=0;" parent="1" vertex="1">
          <mxGeometry x="690" y="70" width="120" height="44" as="geometry" />
        </mxCell>
        <mxCell id="jRvsaUa9cUx2iDDj-W8V-3" value="" style="endArrow=none;html=1;rounded=0;exitX=0;exitY=0.5;exitDx=0;exitDy=0;entryX=1;entryY=0.5;entryDx=0;entryDy=0;" parent="1" source="DWwsRA3n9qqmaE4OlVu3-72" target="jRvsaUa9cUx2iDDj-W8V-2" edge="1">
          <mxGeometry width="50" height="50" relative="1" as="geometry">
            <mxPoint x="250" y="-10" as="sourcePoint" />
            <mxPoint x="260" y="40" as="targetPoint" />
          </mxGeometry>
        </mxCell>
        <mxCell id="jRvsaUa9cUx2iDDj-W8V-4" value="" style="endArrow=none;html=1;rounded=0;exitX=0;exitY=0.5;exitDx=0;exitDy=0;" parent="1" source="jRvsaUa9cUx2iDDj-W8V-2" edge="1">
          <mxGeometry width="50" height="50" relative="1" as="geometry">
            <mxPoint x="1100" y="60" as="sourcePoint" />
            <mxPoint x="250" y="40" as="targetPoint" />
          </mxGeometry>
        </mxCell>
        <mxCell id="jRvsaUa9cUx2iDDj-W8V-5" value="1" style="resizable=0;html=1;whiteSpace=wrap;align=right;verticalAlign=bottom;fontSize=13;fontStyle=0;labelBorderColor=none;textShadow=0;" parent="1" connectable="0" vertex="1">
          <mxGeometry x="279.9981310410672" y="9.998282090519215" as="geometry">
            <mxPoint x="-40" y="-9" as="offset" />
          </mxGeometry>
        </mxCell>
        <mxCell id="jRvsaUa9cUx2iDDj-W8V-6" value="M" style="resizable=0;html=1;whiteSpace=wrap;align=right;verticalAlign=bottom;fontSize=13;fontStyle=0;labelBorderColor=none;textShadow=0;" parent="1" connectable="0" vertex="1">
          <mxGeometry x="1099.8857842089947" y="53.246736691685555" as="geometry">
            <mxPoint x="-53" y="8" as="offset" />
          </mxGeometry>
        </mxCell>
        <mxCell id="jRvsaUa9cUx2iDDj-W8V-8" value="bio" style="ellipse;whiteSpace=wrap;html=1;align=center;fillColor=#cce5ff;strokeColor=#36393d;fontSize=13;fontStyle=0;labelBorderColor=none;textShadow=0;" parent="1" vertex="1">
          <mxGeometry x="1218.75" y="-10" width="100" height="40" as="geometry" />
        </mxCell>
        <mxCell id="jRvsaUa9cUx2iDDj-W8V-11" value="" style="endArrow=none;html=1;rounded=0;exitX=1;exitY=0.25;exitDx=0;exitDy=0;entryX=0;entryY=1;entryDx=0;entryDy=0;fillColor=#cce5ff;strokeColor=#36393d;fontSize=13;fontStyle=0;labelBorderColor=none;textShadow=0;" parent="1" source="DWwsRA3n9qqmaE4OlVu3-72" target="jRvsaUa9cUx2iDDj-W8V-8" edge="1">
          <mxGeometry relative="1" as="geometry">
            <mxPoint x="1149" y="-554" as="sourcePoint" />
            <mxPoint x="1199" y="-465" as="targetPoint" />
          </mxGeometry>
        </mxCell>
        <mxCell id="jRvsaUa9cUx2iDDj-W8V-12" value="name" style="ellipse;whiteSpace=wrap;html=1;align=center;fillColor=#cce5ff;strokeColor=#36393d;fontSize=13;fontStyle=0;labelBorderColor=none;textShadow=0;" parent="1" vertex="1">
          <mxGeometry x="897.5" y="-670" width="100" height="41" as="geometry" />
        </mxCell>
        <mxCell id="jRvsaUa9cUx2iDDj-W8V-13" value="" style="endArrow=none;html=1;rounded=0;exitX=1;exitY=0.5;exitDx=0;exitDy=0;entryX=0.25;entryY=0;entryDx=0;entryDy=0;fillColor=#cce5ff;strokeColor=#36393d;fontSize=13;fontStyle=0;labelBorderColor=none;textShadow=0;" parent="1" source="jRvsaUa9cUx2iDDj-W8V-12" target="CrQmq970yaaDrKnqdUMQ-95" edge="1">
          <mxGeometry relative="1" as="geometry">
            <mxPoint x="1149" y="-554" as="sourcePoint" />
            <mxPoint x="1198.75" y="-465" as="targetPoint" />
          </mxGeometry>
        </mxCell>
        <mxCell id="jRvsaUa9cUx2iDDj-W8V-14" value="manages" style="shape=rhombus;perimeter=rhombusPerimeter;whiteSpace=wrap;html=1;align=center;fillColor=#ffcccc;strokeColor=#36393d;fontSize=13;fontStyle=0;labelBorderColor=none;textShadow=0;" parent="1" vertex="1">
          <mxGeometry x="1218.75" y="-445" width="120" height="61" as="geometry" />
        </mxCell>
        <mxCell id="jRvsaUa9cUx2iDDj-W8V-15" value="" style="endArrow=none;html=1;rounded=0;exitX=1;exitY=0.5;exitDx=0;exitDy=0;entryX=0;entryY=0;entryDx=0;entryDy=0;fillColor=#cce5ff;strokeColor=#36393d;fontSize=13;fontStyle=0;labelBorderColor=none;textShadow=0;" parent="1" source="jRvsaUa9cUx2iDDj-W8V-14" target="DWwsRA3n9qqmaE4OlVu3-78" edge="1">
          <mxGeometry relative="1" as="geometry">
            <mxPoint x="1149" y="-554" as="sourcePoint" />
            <mxPoint x="1225" y="-415" as="targetPoint" />
          </mxGeometry>
        </mxCell>
        <mxCell id="jRvsaUa9cUx2iDDj-W8V-16" value="1" style="resizable=0;html=1;whiteSpace=wrap;align=right;verticalAlign=bottom;fontSize=13;fontStyle=0;labelBorderColor=none;textShadow=0;" parent="1" connectable="0" vertex="1">
          <mxGeometry x="1229.7460288908483" y="89.83346156776929" as="geometry">
            <mxPoint x="-88" y="-630" as="offset" />
          </mxGeometry>
        </mxCell>
        <mxCell id="jRvsaUa9cUx2iDDj-W8V-17" value="1" style="resizable=0;html=1;whiteSpace=wrap;align=right;verticalAlign=bottom;fontSize=13;fontStyle=0;labelBorderColor=none;textShadow=0;" parent="1" connectable="0" vertex="1">
          <mxGeometry x="1619.9960288908483" y="290.00346156776925" as="geometry">
            <mxPoint x="-88" y="-630" as="offset" />
          </mxGeometry>
        </mxCell>
        <mxCell id="jRvsaUa9cUx2iDDj-W8V-18" value="" style="shape=link;html=1;rounded=0;exitX=0.75;exitY=0;exitDx=0;exitDy=0;fontSize=13;fontStyle=0;labelBorderColor=none;textShadow=0;entryX=0.5;entryY=1;entryDx=0;entryDy=0;" parent="1" source="DWwsRA3n9qqmaE4OlVu3-2" target="DWwsRA3n9qqmaE4OlVu3-52" edge="1">
          <mxGeometry relative="1" as="geometry">
            <mxPoint x="1150" y="39.5" as="sourcePoint" />
            <mxPoint x="300" y="-230" as="targetPoint" />
          </mxGeometry>
        </mxCell>
        <mxCell id="jRvsaUa9cUx2iDDj-W8V-19" value="" style="resizable=0;html=1;whiteSpace=wrap;align=right;verticalAlign=bottom;fontSize=13;fontStyle=0;labelBorderColor=none;textShadow=0;" parent="jRvsaUa9cUx2iDDj-W8V-18" connectable="0" vertex="1">
          <mxGeometry x="1" relative="1" as="geometry" />
        </mxCell>
        <mxCell id="jRvsaUa9cUx2iDDj-W8V-20" value="" style="endArrow=none;html=1;rounded=0;exitX=0.25;exitY=1;exitDx=0;exitDy=0;fontSize=13;fontStyle=0;labelBorderColor=none;textShadow=0;" parent="1" source="DWwsRA3n9qqmaE4OlVu3-1" edge="1">
          <mxGeometry relative="1" as="geometry">
            <mxPoint x="395" y="144" as="sourcePoint" />
            <mxPoint x="70" y="300" as="targetPoint" />
          </mxGeometry>
        </mxCell>
        <mxCell id="jRvsaUa9cUx2iDDj-W8V-21" value="" style="endArrow=none;html=1;rounded=0;fontSize=13;fontStyle=0;labelBorderColor=none;textShadow=0;" parent="1" edge="1">
          <mxGeometry relative="1" as="geometry">
            <mxPoint x="70" y="300" as="sourcePoint" />
            <mxPoint x="-160" y="300" as="targetPoint" />
          </mxGeometry>
        </mxCell>
        <mxCell id="jRvsaUa9cUx2iDDj-W8V-22" value="" style="endArrow=none;html=1;rounded=0;fontSize=13;fontStyle=0;labelBorderColor=none;textShadow=0;exitX=0.5;exitY=0;exitDx=0;exitDy=0;" parent="1" source="jRvsaUa9cUx2iDDj-W8V-23" edge="1">
          <mxGeometry relative="1" as="geometry">
            <mxPoint x="-220" y="830" as="sourcePoint" />
            <mxPoint x="-160" y="297.25" as="targetPoint" />
          </mxGeometry>
        </mxCell>
        <mxCell id="jRvsaUa9cUx2iDDj-W8V-23" value="Makes" style="shape=rhombus;perimeter=rhombusPerimeter;whiteSpace=wrap;html=1;align=center;fillColor=#ffcccc;strokeColor=#36393d;fontSize=13;fontStyle=0;labelBorderColor=none;textShadow=0;" parent="1" vertex="1">
          <mxGeometry x="-220" y="550" width="120" height="60" as="geometry" />
        </mxCell>
        <mxCell id="jRvsaUa9cUx2iDDj-W8V-25" value="" style="shape=link;html=1;rounded=0;entryX=0;entryY=0;entryDx=0;entryDy=0;" parent="1" source="jRvsaUa9cUx2iDDj-W8V-23" target="DWwsRA3n9qqmaE4OlVu3-119" edge="1">
          <mxGeometry relative="1" as="geometry">
            <mxPoint x="-160" y="620" as="sourcePoint" />
            <mxPoint x="-160" y="680" as="targetPoint" />
          </mxGeometry>
        </mxCell>
        <mxCell id="jRvsaUa9cUx2iDDj-W8V-26" value="N" style="resizable=0;html=1;whiteSpace=wrap;align=right;verticalAlign=bottom;" parent="jRvsaUa9cUx2iDDj-W8V-25" connectable="0" vertex="1">
          <mxGeometry x="1" relative="1" as="geometry">
            <mxPoint x="16" y="-1" as="offset" />
          </mxGeometry>
        </mxCell>
        <mxCell id="jRvsaUa9cUx2iDDj-W8V-27" value="1" style="resizable=0;html=1;whiteSpace=wrap;align=right;verticalAlign=bottom;fontSize=13;fontStyle=0;labelBorderColor=none;textShadow=0;" parent="1" connectable="0" vertex="1">
          <mxGeometry x="430.0045454545455" y="130" as="geometry">
            <mxPoint x="-242" y="112" as="offset" />
          </mxGeometry>
        </mxCell>
        <mxCell id="jRvsaUa9cUx2iDDj-W8V-28" value="" style="endArrow=none;html=1;rounded=0;exitX=1;exitY=0.5;exitDx=0;exitDy=0;entryX=0;entryY=0.5;entryDx=0;entryDy=0;fillColor=#cce5ff;strokeColor=#36393d;fontSize=13;fontStyle=0;labelBorderColor=none;textShadow=0;" parent="1" source="b3l8XS5TyP1j2PkbE2KR-2" target="DWwsRA3n9qqmaE4OlVu3-119" edge="1">
          <mxGeometry relative="1" as="geometry">
            <mxPoint x="-109.91978735023167" y="724.2513363889684" as="sourcePoint" />
            <mxPoint x="-35" y="874" as="targetPoint" />
          </mxGeometry>
        </mxCell>
        <mxCell id="jRvsaUa9cUx2iDDj-W8V-30" value="" style="endArrow=none;html=1;rounded=0;exitX=0.5;exitY=0;exitDx=0;exitDy=0;entryX=0;entryY=1;entryDx=0;entryDy=0;fillColor=#cce5ff;strokeColor=#36393d;fontSize=13;fontStyle=0;labelBorderColor=none;textShadow=0;" parent="1" source="DWwsRA3n9qqmaE4OlVu3-148" target="b3l8XS5TyP1j2PkbE2KR-1" edge="1">
          <mxGeometry relative="1" as="geometry">
            <mxPoint x="-585" y="926" as="sourcePoint" />
            <mxPoint x="-554.9999999999998" y="750" as="targetPoint" />
          </mxGeometry>
        </mxCell>
        <mxCell id="jRvsaUa9cUx2iDDj-W8V-31" value="option" style="shape=ext;margin=3;double=1;whiteSpace=wrap;html=1;align=center;fillColor=#cdeb8b;strokeColor=#36393d;" parent="1" vertex="1">
          <mxGeometry x="1275" y="930" width="100" height="40" as="geometry" />
        </mxCell>
        <mxCell id="jRvsaUa9cUx2iDDj-W8V-34" value="vote" style="shape=rhombus;double=1;perimeter=rhombusPerimeter;whiteSpace=wrap;html=1;align=center;fillColor=#ffcccc;strokeColor=#36393d;" parent="1" vertex="1">
          <mxGeometry x="1267.5" y="830" width="120" height="60" as="geometry" />
        </mxCell>
        <mxCell id="jRvsaUa9cUx2iDDj-W8V-36" value="N" style="resizable=0;html=1;whiteSpace=wrap;align=right;verticalAlign=bottom;" parent="1" connectable="0" vertex="1">
          <mxGeometry x="450.0045519745621" y="780.0010195188124" as="geometry">
            <mxPoint x="851" y="144" as="offset" />
          </mxGeometry>
        </mxCell>
        <mxCell id="jRvsaUa9cUx2iDDj-W8V-37" value="" style="shape=link;html=1;rounded=0;entryX=0.5;entryY=0;entryDx=0;entryDy=0;exitX=0.5;exitY=1;exitDx=0;exitDy=0;" parent="1" source="jRvsaUa9cUx2iDDj-W8V-34" target="jRvsaUa9cUx2iDDj-W8V-31" edge="1">
          <mxGeometry relative="1" as="geometry">
            <mxPoint x="-135" y="612" as="sourcePoint" />
            <mxPoint x="1180" y="950" as="targetPoint" />
          </mxGeometry>
        </mxCell>
        <mxCell id="jRvsaUa9cUx2iDDj-W8V-39" value="name" style="ellipse;whiteSpace=wrap;html=1;align=center;fillColor=#cce5ff;strokeColor=#36393d;fontSize=13;fontStyle=0;labelBorderColor=none;textShadow=0;" parent="1" vertex="1">
          <mxGeometry x="1247.5" y="1040" width="100" height="40" as="geometry" />
        </mxCell>
        <mxCell id="jRvsaUa9cUx2iDDj-W8V-40" value="" style="endArrow=none;html=1;rounded=0;entryX=0.5;entryY=0;entryDx=0;entryDy=0;fontSize=13;fontStyle=0;labelBorderColor=none;textShadow=0;exitX=0.5;exitY=1;exitDx=0;exitDy=0;" parent="1" source="jRvsaUa9cUx2iDDj-W8V-31" target="jRvsaUa9cUx2iDDj-W8V-39" edge="1">
          <mxGeometry relative="1" as="geometry">
            <mxPoint x="1360" y="980" as="sourcePoint" />
            <mxPoint x="1408" y="1010" as="targetPoint" />
          </mxGeometry>
        </mxCell>
        <mxCell id="b3l8XS5TyP1j2PkbE2KR-1" value="Pack" style="whiteSpace=wrap;html=1;align=center;fillColor=#cdeb8b;strokeColor=#36393d;fontSize=13;fontStyle=0;labelBorderColor=none;textShadow=0;" vertex="1" parent="1">
          <mxGeometry x="-555" y="710" width="100" height="40" as="geometry" />
        </mxCell>
        <mxCell id="b3l8XS5TyP1j2PkbE2KR-2" value="Has" style="shape=rhombus;perimeter=rhombusPerimeter;whiteSpace=wrap;html=1;align=center;fillColor=#ffcccc;strokeColor=#36393d;fontSize=13;fontStyle=0;labelBorderColor=none;textShadow=0;" vertex="1" parent="1">
          <mxGeometry x="-330" y="700" width="120" height="60" as="geometry" />
        </mxCell>
        <mxCell id="b3l8XS5TyP1j2PkbE2KR-3" value="N" style="resizable=0;html=1;whiteSpace=wrap;align=right;verticalAlign=bottom;" connectable="0" vertex="1" parent="1">
          <mxGeometry x="-90" y="730" as="geometry" />
        </mxCell>
        <mxCell id="b3l8XS5TyP1j2PkbE2KR-4" value="" style="endArrow=none;html=1;rounded=0;exitX=1;exitY=0.5;exitDx=0;exitDy=0;entryX=0;entryY=0.5;entryDx=0;entryDy=0;" edge="1" parent="1" source="b3l8XS5TyP1j2PkbE2KR-1" target="b3l8XS5TyP1j2PkbE2KR-2">
          <mxGeometry relative="1" as="geometry">
            <mxPoint x="-170" y="850" as="sourcePoint" />
            <mxPoint x="-10" y="850" as="targetPoint" />
          </mxGeometry>
        </mxCell>
        <mxCell id="b3l8XS5TyP1j2PkbE2KR-5" value="1" style="resizable=0;html=1;whiteSpace=wrap;align=right;verticalAlign=bottom;" connectable="0" vertex="1" parent="1">
          <mxGeometry x="-395" y="630" as="geometry">
            <mxPoint x="-34" y="95" as="offset" />
          </mxGeometry>
        </mxCell>
        <mxCell id="b3l8XS5TyP1j2PkbE2KR-7" value="" style="endArrow=none;html=1;rounded=0;exitX=0.5;exitY=1;exitDx=0;exitDy=0;entryX=0;entryY=0;entryDx=0;entryDy=0;fillColor=#cce5ff;strokeColor=#36393d;fontSize=13;fontStyle=0;labelBorderColor=none;textShadow=0;" edge="1" parent="1" source="b3l8XS5TyP1j2PkbE2KR-10" target="b3l8XS5TyP1j2PkbE2KR-1">
          <mxGeometry relative="1" as="geometry">
            <mxPoint x="-620" y="670" as="sourcePoint" />
            <mxPoint x="-570" y="550" as="targetPoint" />
          </mxGeometry>
        </mxCell>
        <mxCell id="b3l8XS5TyP1j2PkbE2KR-10" value="&lt;span style=&quot;font-size: 13px;&quot;&gt;pack_id&lt;/span&gt;" style="ellipse;whiteSpace=wrap;html=1;align=center;fontStyle=4;fillColor=#cce5ff;strokeColor=#36393d;" vertex="1" parent="1">
          <mxGeometry x="-670" y="630" width="100" height="40" as="geometry" />
        </mxCell>
      </root>
    </mxGraphModel>
  </diagram>
</mxfile>
